<svg width="386" height="102" viewBox="0 0 386 102" fill="none" xmlns="http://www.w3.org/2000/svg">
<g clip-path="url(#clip0_839_3582)">
<g filter="url(#filter0_f_839_3582)">
<path d="M374.848 32.9102H380.999L368.15 82.9995H361.999L374.848 32.9102Z" fill="#3994FE" fill-opacity="0.5"/>
<path d="M374.848 32.9102H380.999L368.15 82.9995H361.999L374.848 32.9102Z" stroke="url(#paint0_linear_839_3582)" stroke-width="2"/>
</g>
<path d="M373 34.2421L380.131 34.2415L368.143 80.9564H360.254L373 34.2421Z" stroke="url(#paint1_linear_839_3582)" stroke-width="2"/>
<g filter="url(#filter1_f_839_3582)">
<path d="M80 29.4844H374.5L359 86.4844H80V29.4844Z" fill="#3994FE" fill-opacity="0.15"/>
<path d="M80 29.4844H374.5L359 86.4844H80V29.4844Z" stroke="url(#paint2_linear_839_3582)" stroke-width="2"/>
</g>
<path d="M80.5234 29H374.5L358.646 86.1603H80.5234V29Z" stroke="url(#paint3_linear_839_3582)" stroke-width="2"/>
<g opacity="0.1" filter="url(#filter2_f_839_3582)">
<path d="M172.5 51.9844H350.5L336 101.484H158L172.5 51.9844Z" fill="#20A1EA"/>
<path d="M172.5 51.9844H350.5L336 101.484H158L172.5 51.9844Z" stroke="url(#paint4_linear_839_3582)" stroke-width="1.82979"/>
</g>
<line x1="322.691" y1="81.5" x2="126.884" y2="81.5" stroke="url(#paint5_linear_839_3582)"/>
<line x1="385.807" y1="96.5" x2="189.999" y2="96.5" stroke="url(#paint6_linear_839_3582)"/>
<line x1="203" y1="21.5" x2="315" y2="21.5" stroke="url(#paint7_linear_839_3582)"/>
<path d="M359 64.8633L367.5 33.3633" stroke="url(#paint8_linear_839_3582)"/>
<g filter="url(#filter3_d_839_3582)">
<rect x="193" y="20.5" width="2" height="2" fill="#80E1F6"/>
</g>
<g clip-path="url(#clip1_839_3582)">
<g filter="url(#filter4_f_839_3582)">
<ellipse cx="63" cy="69" rx="31" ry="33" fill="#06A6EB" fill-opacity="0.7"/>
</g>
<path d="M1.89129 58.7157C-0.622764 60.1638 -0.622752 62.4716 1.84559 63.9196L57.2919 95.7763C59.7602 97.2243 63.8284 97.2243 66.3425 95.7763L122.109 63.9196C124.623 62.4716 124.623 60.1638 122.154 58.7157L66.7081 26.859C64.2398 25.411 60.1716 25.411 57.6575 26.859L1.89129 58.7157Z" stroke="url(#paint9_linear_839_3582)" stroke-width="0.914701"/>
<g filter="url(#filter5_d_839_3582)">
<path d="M10.4078 58.9359C8.24989 60.1771 8.24989 62.1552 10.3686 63.3964L57.9599 90.7021C60.0786 91.9433 63.5705 91.9433 65.7284 90.7021L113.594 63.3964C115.752 62.1552 115.752 60.1771 113.634 58.9359L66.0423 31.6302C63.9236 30.389 60.4317 30.389 58.2738 31.6302L10.4078 58.9359Z" fill="url(#paint10_linear_839_3582)" fill-opacity="0.3" shape-rendering="crispEdges"/>
</g>
<path d="M17.3827 53.5172C15.5116 54.5871 15.5116 56.2922 17.3487 57.3621L58.6144 80.9C60.4514 81.9699 63.4792 81.9699 65.3503 80.9L106.854 57.3621C108.725 56.2922 108.725 54.5871 106.888 53.5172L65.6224 29.9793C63.7854 28.9094 60.7576 28.9094 58.8865 29.9793L17.3827 53.5172Z" fill="url(#paint11_radial_839_3582)"/>
<g filter="url(#filter6_d_839_3582)">
<path d="M17.3614 57.3682L58.5932 80.906C60.4302 81.9759 63.458 81.9759 65.329 80.906L106.833 57.3682C107.785 56.8332 108.228 56.1311 108.228 55.429L108.262 58.6807C108.262 59.3829 107.785 60.085 106.867 60.6199L65.3631 84.1578C63.492 85.2277 60.4983 85.2277 58.6272 84.1578L17.3955 60.6199C16.4769 60.085 16.0007 59.4163 16.0007 58.7142L15.9667 55.4624C15.9667 56.1645 16.4089 56.8332 17.3614 57.3682Z" fill="url(#paint12_linear_839_3582)"/>
</g>
<path d="M17.621 53.5171C15.7499 54.587 15.7499 56.2922 17.5869 57.3621L58.8527 80.8999C60.6897 81.9698 63.7175 81.9698 65.5885 80.8999L107.092 57.3621C108.963 56.2922 108.963 54.587 107.126 53.5171L65.8607 29.9792C64.0236 28.9093 60.9959 28.9093 59.1248 29.9792L17.621 53.5171Z" stroke="url(#paint13_linear_839_3582)" stroke-width="0.914701"/>
<path d="M83.3411 72.2093L89.2537 68.8685C89.4345 68.7618 89.5973 68.7618 89.7057 68.8329L102.453 76.101C102.345 76.0299 102.182 76.0477 102.001 76.1366L96.1066 79.4774C95.7449 79.6729 95.4737 80.1705 95.4737 80.5614C95.4737 80.7569 95.546 80.899 95.6545 80.9701L82.9071 73.6842C82.7986 73.6132 82.7263 73.471 82.7263 73.2755C82.7082 72.9024 82.9975 72.4225 83.3411 72.2093Z" fill="url(#paint14_linear_839_3582)" fill-opacity="0.6"/>
<path d="M83.4301 72.2189C83.0685 72.4143 82.7973 72.9119 82.7973 73.3029C82.7973 73.7116 83.0866 73.8715 83.4482 73.6583L89.3427 70.3174C89.7044 70.122 89.9756 69.6244 89.9756 69.2334C89.9756 68.8247 89.6863 68.6648 89.3247 68.878L83.4301 72.2189Z" fill="url(#paint15_linear_839_3582)"/>
<path d="M41.7507 72.7179L35.8381 69.3771C35.6573 69.2705 35.4945 69.2705 35.3861 69.3415L22.6387 76.6096C22.7472 76.5385 22.9099 76.5563 23.0907 76.6452L28.9852 79.986C29.3469 80.1815 29.6181 80.6791 29.6181 81.07C29.6181 81.2655 29.5458 81.4076 29.4373 81.4787L42.1847 74.1929C42.2931 74.1218 42.3655 73.9796 42.3655 73.7841C42.3836 73.411 42.0943 72.9312 41.7507 72.7179Z" fill="url(#paint16_linear_839_3582)" fill-opacity="0.6"/>
<path d="M41.6587 72.7273C42.0204 72.9228 42.2916 73.4203 42.2916 73.8113C42.2916 74.22 42.0023 74.3799 41.6407 74.1667L35.7461 70.8259C35.3845 70.6304 35.1133 70.1328 35.1133 69.7419C35.1133 69.3331 35.4026 69.1732 35.7642 69.3865L41.6587 72.7273Z" fill="url(#paint17_linear_839_3582)"/>
<path d="M108.162 -9.00403L108.196 55.319C108.196 56.0204 107.72 56.7218 106.8 57.2562L65.2525 80.7696C63.3794 81.8384 60.3826 81.8384 58.5095 80.7696L17.2345 57.2562C16.315 56.7218 15.8382 56.0538 15.8382 55.3524L15.8041 -8.97063C15.8041 -5.60695 108.162 -5.49884 108.162 -9.00403Z" fill="url(#paint18_linear_839_3582)" fill-opacity="0.4"/>
<path d="M22.3055 48.264C20.6453 49.2247 20.6453 50.7557 22.2753 51.7163L58.8908 72.8504C60.5209 73.8111 63.2074 73.8111 64.8676 72.8504L101.694 51.7163C103.355 50.7557 103.355 49.2247 101.725 48.264L65.1091 27.13C63.4791 26.1693 60.7925 26.1693 59.1323 27.13L22.3055 48.264Z" fill="url(#paint19_radial_839_3582)"/>
<path d="M22.2941 51.1998L58.876 72.8614C60.5059 73.846 63.1922 73.846 64.8523 72.8614L101.676 51.1998C102.521 50.7075 102.913 50.0614 102.913 49.4152L102.943 52.8373C102.943 53.4834 102.521 54.1296 101.706 54.6219L64.8825 76.2834C63.2224 77.2681 60.5663 77.2681 58.9062 76.2834L22.3243 54.6219C21.5093 54.1296 21.0867 53.5142 21.0867 52.868L21.0566 49.446C21.0566 50.0921 21.4489 50.7075 22.2941 51.1998Z" fill="url(#paint20_linear_839_3582)"/>
<path d="M22.3055 48.264C20.6453 49.2247 20.6453 50.7557 22.2753 51.7163L58.8908 72.8504C60.5209 73.8111 63.2074 73.8111 64.8676 72.8504L101.694 51.7163C103.355 50.7557 103.355 49.2247 101.725 48.264L65.1091 27.13C63.4791 26.1693 60.7925 26.1693 59.1323 27.13L22.3055 48.264Z" stroke="url(#paint21_linear_839_3582)" stroke-width="0.914701"/>
<g filter="url(#filter7_f_839_3582)">
<path d="M94.1387 49.7576C93.4087 50.1366 93.4062 50.7497 94.1287 51.1264C94.8537 51.5055 96.0331 51.5055 96.7631 51.1264C97.4931 50.7474 97.4956 50.1344 96.7706 49.7576C96.048 49.3786 94.8686 49.3786 94.1387 49.7576Z" fill="url(#paint22_linear_839_3582)"/>
</g>
<path d="M94.1416 49.8859L94.1435 50.3593C94.1435 50.5719 94.2871 50.7864 94.5722 50.9487C95.1463 51.2772 96.0802 51.2772 96.6583 50.9487C96.9473 50.7825 97.0928 50.5661 97.0928 50.3496L97.0908 49.8762C97.0908 50.0926 96.9453 50.3091 96.6563 50.4733C96.0782 50.8018 95.1443 50.8018 94.5702 50.4733C94.2851 50.3129 94.1416 50.1004 94.1416 49.8859Z" fill="url(#paint23_linear_839_3582)"/>
<path d="M94.5766 49.2893C93.9985 49.6178 93.9966 50.1492 94.5687 50.4757C95.1428 50.8042 96.0768 50.8042 96.6548 50.4757C97.2329 50.1472 97.2348 49.6158 96.6607 49.2893C96.0886 48.9608 95.1546 48.9608 94.5766 49.2893Z" fill="url(#paint24_linear_839_3582)"/>
<g filter="url(#filter8_f_839_3582)">
<path d="M60.4082 68.701C59.6782 69.08 59.6757 69.6931 60.3983 70.0699C61.1233 70.4489 62.3027 70.4489 63.0327 70.0699C63.7627 69.6909 63.7651 69.0778 63.0401 68.701C62.3176 68.322 61.1382 68.322 60.4082 68.701Z" fill="url(#paint25_linear_839_3582)"/>
</g>
<path d="M60.4091 68.8282L60.4111 69.3016C60.4111 69.5142 60.5546 69.7287 60.8397 69.891C61.4138 70.2195 62.3478 70.2195 62.9258 69.891C63.2149 69.7248 63.3604 69.5084 63.3604 69.292L63.3584 68.8185C63.3584 69.035 63.2129 69.2514 62.9239 69.4156C62.3458 69.7441 61.4119 69.7441 60.8378 69.4156C60.5527 69.2553 60.4091 69.0427 60.4091 68.8282Z" fill="url(#paint26_linear_839_3582)"/>
<path d="M60.8432 68.2315C60.2651 68.56 60.2632 69.0914 60.8353 69.418C61.4094 69.7465 62.3434 69.7465 62.9214 69.418C63.4995 69.0895 63.5014 68.5581 62.9273 68.2315C62.3552 67.903 61.4212 67.903 60.8432 68.2315Z" fill="url(#paint27_linear_839_3582)"/>
<g opacity="0.6">
<g filter="url(#filter9_f_839_3582)">
<path d="M26.0732 49.7576C25.3432 50.1366 25.3407 50.7497 26.0633 51.1264C26.7883 51.5055 27.9677 51.5055 28.6977 51.1264C29.4277 50.7474 29.4302 50.1344 28.7052 49.7576C27.9826 49.3786 26.8032 49.3786 26.0732 49.7576Z" fill="url(#paint28_linear_839_3582)"/>
</g>
<path d="M26.0761 49.8859L26.0781 50.3593C26.0781 50.5719 26.2216 50.7864 26.5067 50.9487C27.0808 51.2772 28.0148 51.2772 28.5928 50.9487C28.8818 50.7825 29.0273 50.5661 29.0273 50.3496L29.0254 49.8762C29.0254 50.0926 28.8799 50.3091 28.5909 50.4733C28.0128 50.8018 27.0789 50.8018 26.5048 50.4733C26.2197 50.3129 26.0761 50.1004 26.0761 49.8859Z" fill="url(#paint29_linear_839_3582)"/>
<path d="M26.5112 49.2893C25.9331 49.6178 25.9311 50.1492 26.5033 50.4757C27.0774 50.8042 28.0113 50.8042 28.5894 50.4757C29.1674 50.1472 29.1694 49.6158 28.5953 49.2893C28.0231 48.9608 27.0892 48.9608 26.5112 49.2893Z" fill="url(#paint30_linear_839_3582)"/>
</g>
<path d="M22.3055 40.8298C20.6453 41.767 20.6453 43.2606 22.2753 44.1979L58.8908 64.8165C60.5209 65.7537 63.2074 65.7537 64.8676 64.8165L101.694 44.1979C103.355 43.2606 103.355 41.767 101.725 40.8298L65.1091 20.2111C63.4791 19.2739 60.7925 19.2739 59.1323 20.2111L22.3055 40.8298Z" stroke="url(#paint31_linear_839_3582)" stroke-opacity="0.4" stroke-width="0.914701"/>
<path d="M22.3055 32.2485C20.6453 33.1857 20.6453 34.6793 22.2753 35.6166L58.8908 56.2352C60.5209 57.1724 63.2074 57.1724 64.8676 56.2352L101.694 35.6166C103.355 34.6793 103.355 33.1857 101.725 32.2485L65.1091 11.6298C63.4791 10.6926 60.7925 10.6926 59.1323 11.6298L22.3055 32.2485Z" stroke="url(#paint32_linear_839_3582)" stroke-opacity="0.12" stroke-width="0.914701"/>
<g filter="url(#filter10_f_839_3582)">
<circle cx="92.676" cy="54.0024" r="1.36645" fill="#BAE7FF"/>
</g>
<circle cx="92.6754" cy="54.0028" r="0.683226" fill="#BAE7FF"/>
<g filter="url(#filter11_f_839_3582)">
<circle cx="86.8372" cy="79.2838" r="1.36645" fill="#BAE7FF"/>
</g>
<circle cx="101.01" cy="67.973" r="0.683226" fill="#BAE7FF"/>
<g filter="url(#filter12_f_839_3582)">
<circle cx="17.1487" cy="38.2908" r="1.36645" fill="#BAE7FF"/>
</g>
<circle cx="17.149" cy="38.291" r="0.683226" fill="#BAE7FF"/>
<g opacity="0.3">
<path d="M79.3768 13.9578L79.3768 13.9579L79.3852 13.9596C79.6899 14.0206 80.0136 14.2296 80.2659 14.536C80.5185 14.8427 80.6582 15.1967 80.6582 15.4971V41.6303C80.6558 41.6358 80.6525 41.643 80.6479 41.6521C80.6254 41.6965 80.5848 41.7611 80.5201 41.8466C80.3911 42.017 80.1959 42.2315 79.9451 42.4782C79.4456 42.9694 78.7629 43.5516 78.0472 44.1063C77.3316 44.6609 76.5949 45.179 75.9898 45.5451C75.6861 45.7288 75.4261 45.8678 75.2244 45.9543C75.1233 45.9977 75.0472 46.0234 74.9943 46.0362C74.9892 46.0375 74.9846 46.0385 74.9804 46.0394L50.0175 36.0335L49.9777 36.0176L49.9358 36.0092C49.631 35.9483 49.3074 35.7392 49.0551 35.4329C48.8025 35.1261 48.6628 34.7722 48.6628 34.4717V34.4192L48.6511 34.3681L43.4688 11.7243C43.4809 11.6715 43.5211 11.5674 43.6367 11.4049C43.7757 11.2098 43.9868 10.9815 44.2613 10.7301C44.8086 10.2287 45.5591 9.67926 46.3486 9.17155C47.1364 8.66488 47.9478 8.20951 48.6097 7.89357C48.9416 7.73516 49.227 7.61605 49.4481 7.54264C49.559 7.50586 49.645 7.48346 49.7073 7.47226C49.7401 7.46635 49.7591 7.46492 49.767 7.46448L79.3768 13.9578Z" fill="black"/>
<path d="M79.3768 13.9578L79.3768 13.9579L79.3852 13.9596C79.6899 14.0206 80.0136 14.2296 80.2659 14.536C80.5185 14.8427 80.6582 15.1967 80.6582 15.4971V41.6303C80.6558 41.6358 80.6525 41.643 80.6479 41.6521C80.6254 41.6965 80.5848 41.7611 80.5201 41.8466C80.3911 42.017 80.1959 42.2315 79.9451 42.4782C79.4456 42.9694 78.7629 43.5516 78.0472 44.1063C77.3316 44.6609 76.5949 45.179 75.9898 45.5451C75.6861 45.7288 75.4261 45.8678 75.2244 45.9543C75.1233 45.9977 75.0472 46.0234 74.9943 46.0362C74.9892 46.0375 74.9846 46.0385 74.9804 46.0394L50.0175 36.0335L49.9777 36.0176L49.9358 36.0092C49.631 35.9483 49.3074 35.7392 49.0551 35.4329C48.8025 35.1261 48.6628 34.7722 48.6628 34.4717V34.4192L48.6511 34.3681L43.4688 11.7243C43.4809 11.6715 43.5211 11.5674 43.6367 11.4049C43.7757 11.2098 43.9868 10.9815 44.2613 10.7301C44.8086 10.2287 45.5591 9.67926 46.3486 9.17155C47.1364 8.66488 47.9478 8.20951 48.6097 7.89357C48.9416 7.73516 49.227 7.61605 49.4481 7.54264C49.559 7.50586 49.645 7.48346 49.7073 7.47226C49.7401 7.46635 49.7591 7.46492 49.767 7.46448L79.3768 13.9578Z" fill="url(#paint33_linear_839_3582)"/>
<path d="M79.3768 13.9578L79.3768 13.9579L79.3852 13.9596C79.6899 14.0206 80.0136 14.2296 80.2659 14.536C80.5185 14.8427 80.6582 15.1967 80.6582 15.4971V41.6303C80.6558 41.6358 80.6525 41.643 80.6479 41.6521C80.6254 41.6965 80.5848 41.7611 80.5201 41.8466C80.3911 42.017 80.1959 42.2315 79.9451 42.4782C79.4456 42.9694 78.7629 43.5516 78.0472 44.1063C77.3316 44.6609 76.5949 45.179 75.9898 45.5451C75.6861 45.7288 75.4261 45.8678 75.2244 45.9543C75.1233 45.9977 75.0472 46.0234 74.9943 46.0362C74.9892 46.0375 74.9846 46.0385 74.9804 46.0394L50.0175 36.0335L49.9777 36.0176L49.9358 36.0092C49.631 35.9483 49.3074 35.7392 49.0551 35.4329C48.8025 35.1261 48.6628 34.7722 48.6628 34.4717V34.4192L48.6511 34.3681L43.4688 11.7243C43.4809 11.6715 43.5211 11.5674 43.6367 11.4049C43.7757 11.2098 43.9868 10.9815 44.2613 10.7301C44.8086 10.2287 45.5591 9.67926 46.3486 9.17155C47.1364 8.66488 47.9478 8.20951 48.6097 7.89357C48.9416 7.73516 49.227 7.61605 49.4481 7.54264C49.559 7.50586 49.645 7.48346 49.7073 7.47226C49.7401 7.46635 49.7591 7.46492 49.767 7.46448L79.3768 13.9578Z" stroke="url(#paint34_linear_839_3582)" stroke-width="0.928537"/>
</g>
<path d="M74.1783 17.4794L74.1783 17.4795L74.1867 17.4811C74.4914 17.5421 74.8151 17.7511 75.0673 18.0575C75.32 18.3642 75.4597 18.7182 75.4597 19.0186V45.1845C75.4597 45.7367 74.97 46.147 74.3726 46.0296L44.7456 39.5325L44.7457 39.5324L44.7372 39.5307C44.4325 39.4698 44.1089 39.2607 43.8566 38.9544C43.6039 38.6476 43.4643 38.2937 43.4643 37.9932V11.8274C43.4643 11.2752 43.9539 10.8649 44.5513 10.9822L74.1783 17.4794ZM50.7667 24.5832L48.0456 23.9387L47.4743 23.8034V24.3904V27.6828V28.0595L47.8429 28.1371L50.7667 28.7527V31.6684V32.0451L51.1353 32.1227L54.4277 32.8158L54.9876 32.9337V32.3615V29.6413L57.7201 30.2166L58.28 30.3344V29.7622V26.4699V26.0833L57.8999 26.0133L54.9876 25.4768V22.571V22.1943L54.619 22.1167L51.3266 21.4235L50.7667 21.3056V21.8778V24.5832ZM61.2076 26.7961L60.6439 26.6725V27.2496V30.542V30.9155L61.0087 30.9955L70.8859 33.1616L71.4496 33.2852V32.7081V29.4157V29.0422L71.0848 28.9622L61.2076 26.7961Z" fill="black"/>
<path d="M74.1783 17.4794L74.1783 17.4795L74.1867 17.4811C74.4914 17.5421 74.8151 17.7511 75.0673 18.0575C75.32 18.3642 75.4597 18.7182 75.4597 19.0186V45.1845C75.4597 45.7367 74.97 46.147 74.3726 46.0296L44.7456 39.5325L44.7457 39.5324L44.7372 39.5307C44.4325 39.4698 44.1089 39.2607 43.8566 38.9544C43.6039 38.6476 43.4643 38.2937 43.4643 37.9932V11.8274C43.4643 11.2752 43.9539 10.8649 44.5513 10.9822L74.1783 17.4794ZM50.7667 24.5832L48.0456 23.9387L47.4743 23.8034V24.3904V27.6828V28.0595L47.8429 28.1371L50.7667 28.7527V31.6684V32.0451L51.1353 32.1227L54.4277 32.8158L54.9876 32.9337V32.3615V29.6413L57.7201 30.2166L58.28 30.3344V29.7622V26.4699V26.0833L57.8999 26.0133L54.9876 25.4768V22.571V22.1943L54.619 22.1167L51.3266 21.4235L50.7667 21.3056V21.8778V24.5832ZM61.2076 26.7961L60.6439 26.6725V27.2496V30.542V30.9155L61.0087 30.9955L70.8859 33.1616L71.4496 33.2852V32.7081V29.4157V29.0422L71.0848 28.9622L61.2076 26.7961Z" fill="url(#paint35_linear_839_3582)"/>
<path d="M74.1783 17.4794L74.1783 17.4795L74.1867 17.4811C74.4914 17.5421 74.8151 17.7511 75.0673 18.0575C75.32 18.3642 75.4597 18.7182 75.4597 19.0186V45.1845C75.4597 45.7367 74.97 46.147 74.3726 46.0296L44.7456 39.5325L44.7457 39.5324L44.7372 39.5307C44.4325 39.4698 44.1089 39.2607 43.8566 38.9544C43.6039 38.6476 43.4643 38.2937 43.4643 37.9932V11.8274C43.4643 11.2752 43.9539 10.8649 44.5513 10.9822L74.1783 17.4794ZM50.7667 24.5832L48.0456 23.9387L47.4743 23.8034V24.3904V27.6828V28.0595L47.8429 28.1371L50.7667 28.7527V31.6684V32.0451L51.1353 32.1227L54.4277 32.8158L54.9876 32.9337V32.3615V29.6413L57.7201 30.2166L58.28 30.3344V29.7622V26.4699V26.0833L57.8999 26.0133L54.9876 25.4768V22.571V22.1943L54.619 22.1167L51.3266 21.4235L50.7667 21.3056V21.8778V24.5832ZM61.2076 26.7961L60.6439 26.6725V27.2496V30.542V30.9155L61.0087 30.9955L70.8859 33.1616L71.4496 33.2852V32.7081V29.4157V29.0422L71.0848 28.9622L61.2076 26.7961Z" stroke="url(#paint36_linear_839_3582)" stroke-width="0.928537"/>
</g>
</g>
<defs>
<filter id="filter0_f_839_3582" x="351.755" y="22.9549" width="39.4886" height="69.9998" filterUnits="userSpaceOnUse" color-interpolation-filters="sRGB">
<feFlood flood-opacity="0" result="BackgroundImageFix"/>
<feBlend mode="normal" in="SourceGraphic" in2="BackgroundImageFix" result="shape"/>
<feGaussianBlur stdDeviation="4.47761" result="effect1_foregroundBlur_839_3582"/>
</filter>
<filter id="filter1_f_839_3582" x="70.0448" y="19.5292" width="314.719" height="76.9104" filterUnits="userSpaceOnUse" color-interpolation-filters="sRGB">
<feFlood flood-opacity="0" result="BackgroundImageFix"/>
<feBlend mode="normal" in="SourceGraphic" in2="BackgroundImageFix" result="shape"/>
<feGaussianBlur stdDeviation="4.47761" result="effect1_foregroundBlur_839_3582"/>
</filter>
<filter id="filter2_f_839_3582" x="151.289" y="45.5801" width="205.922" height="62.3085" filterUnits="userSpaceOnUse" color-interpolation-filters="sRGB">
<feFlood flood-opacity="0" result="BackgroundImageFix"/>
<feBlend mode="normal" in="SourceGraphic" in2="BackgroundImageFix" result="shape"/>
<feGaussianBlur stdDeviation="2.74468" result="effect1_foregroundBlur_839_3582"/>
</filter>
<filter id="filter3_d_839_3582" x="189" y="16.5" width="10" height="10" filterUnits="userSpaceOnUse" color-interpolation-filters="sRGB">
<feFlood flood-opacity="0" result="BackgroundImageFix"/>
<feColorMatrix in="SourceAlpha" type="matrix" values="0 0 0 0 0 0 0 0 0 0 0 0 0 0 0 0 0 0 127 0" result="hardAlpha"/>
<feOffset/>
<feGaussianBlur stdDeviation="2"/>
<feComposite in2="hardAlpha" operator="out"/>
<feColorMatrix type="matrix" values="0 0 0 0 0.645833 0 0 0 0 0.93697 0 0 0 0 1 0 0 0 1 0"/>
<feBlend mode="normal" in2="BackgroundImageFix" result="effect1_dropShadow_839_3582"/>
<feBlend mode="normal" in="SourceGraphic" in2="effect1_dropShadow_839_3582" result="shape"/>
</filter>
<filter id="filter4_f_839_3582" x="-8" y="-4" width="142" height="146" filterUnits="userSpaceOnUse" color-interpolation-filters="sRGB">
<feFlood flood-opacity="0" result="BackgroundImageFix"/>
<feBlend mode="normal" in="SourceGraphic" in2="BackgroundImageFix" result="shape"/>
<feGaussianBlur stdDeviation="20" result="effect1_foregroundBlur_839_3582"/>
</filter>
<filter id="filter5_d_839_3582" x="8.78418" y="30.6993" width="106.434" height="61.967" filterUnits="userSpaceOnUse" color-interpolation-filters="sRGB">
<feFlood flood-opacity="0" result="BackgroundImageFix"/>
<feColorMatrix in="SourceAlpha" type="matrix" values="0 0 0 0 0 0 0 0 0 0 0 0 0 0 0 0 0 0 127 0" result="hardAlpha"/>
<feOffset dy="1.03333"/>
<feComposite in2="hardAlpha" operator="out"/>
<feColorMatrix type="matrix" values="0 0 0 0 0.00798611 0 0 0 0 0.0536667 0 0 0 0 0.0958333 0 0 0 0.25 0"/>
<feBlend mode="normal" in2="BackgroundImageFix" result="effect1_dropShadow_839_3582"/>
<feBlend mode="normal" in="SourceGraphic" in2="effect1_dropShadow_839_3582" result="shape"/>
</filter>
<filter id="filter6_d_839_3582" x="15.9668" y="55.429" width="92.2949" height="30.5646" filterUnits="userSpaceOnUse" color-interpolation-filters="sRGB">
<feFlood flood-opacity="0" result="BackgroundImageFix"/>
<feColorMatrix in="SourceAlpha" type="matrix" values="0 0 0 0 0 0 0 0 0 0 0 0 0 0 0 0 0 0 127 0" result="hardAlpha"/>
<feOffset dy="1.03333"/>
<feComposite in2="hardAlpha" operator="out"/>
<feColorMatrix type="matrix" values="0 0 0 0 0.00798611 0 0 0 0 0.0536667 0 0 0 0 0.0958333 0 0 0 0.25 0"/>
<feBlend mode="normal" in2="BackgroundImageFix" result="effect1_dropShadow_839_3582"/>
<feBlend mode="normal" in="SourceGraphic" in2="effect1_dropShadow_839_3582" result="shape"/>
</filter>
<filter id="filter7_f_839_3582" x="92.9422" y="48.8266" width="5.017" height="3.23074" filterUnits="userSpaceOnUse" color-interpolation-filters="sRGB">
<feFlood flood-opacity="0" result="BackgroundImageFix"/>
<feBlend mode="normal" in="SourceGraphic" in2="BackgroundImageFix" result="shape"/>
<feGaussianBlur stdDeviation="0.323341" result="effect1_foregroundBlur_839_3582"/>
</filter>
<filter id="filter8_f_839_3582" x="59.2117" y="67.7701" width="5.017" height="3.23074" filterUnits="userSpaceOnUse" color-interpolation-filters="sRGB">
<feFlood flood-opacity="0" result="BackgroundImageFix"/>
<feBlend mode="normal" in="SourceGraphic" in2="BackgroundImageFix" result="shape"/>
<feGaussianBlur stdDeviation="0.323341" result="effect1_foregroundBlur_839_3582"/>
</filter>
<filter id="filter9_f_839_3582" x="24.8768" y="48.8266" width="5.017" height="3.23074" filterUnits="userSpaceOnUse" color-interpolation-filters="sRGB">
<feFlood flood-opacity="0" result="BackgroundImageFix"/>
<feBlend mode="normal" in="SourceGraphic" in2="BackgroundImageFix" result="shape"/>
<feGaussianBlur stdDeviation="0.323341" result="effect1_foregroundBlur_839_3582"/>
</filter>
<filter id="filter10_f_839_3582" x="84.228" y="45.5543" width="16.8956" height="16.8961" filterUnits="userSpaceOnUse" color-interpolation-filters="sRGB">
<feFlood flood-opacity="0" result="BackgroundImageFix"/>
<feBlend mode="normal" in="SourceGraphic" in2="BackgroundImageFix" result="shape"/>
<feGaussianBlur stdDeviation="3.54081" result="effect1_foregroundBlur_839_3582"/>
</filter>
<filter id="filter11_f_839_3582" x="78.3891" y="70.8357" width="16.8956" height="16.8961" filterUnits="userSpaceOnUse" color-interpolation-filters="sRGB">
<feFlood flood-opacity="0" result="BackgroundImageFix"/>
<feBlend mode="normal" in="SourceGraphic" in2="BackgroundImageFix" result="shape"/>
<feGaussianBlur stdDeviation="3.54081" result="effect1_foregroundBlur_839_3582"/>
</filter>
<filter id="filter12_f_839_3582" x="8.70062" y="29.8427" width="16.8956" height="16.8961" filterUnits="userSpaceOnUse" color-interpolation-filters="sRGB">
<feFlood flood-opacity="0" result="BackgroundImageFix"/>
<feBlend mode="normal" in="SourceGraphic" in2="BackgroundImageFix" result="shape"/>
<feGaussianBlur stdDeviation="3.54081" result="effect1_foregroundBlur_839_3582"/>
</filter>
<linearGradient id="paint0_linear_839_3582" x1="368.209" y1="92.0464" x2="358.813" y2="91.128" gradientUnits="userSpaceOnUse">
<stop stop-color="#1987D6"/>
<stop offset="0.202101" stop-color="#1A8DDE"/>
<stop offset="0.399258" stop-color="#1A8DDE" stop-opacity="0.716253"/>
<stop offset="1" stop-color="#1A8DDE" stop-opacity="0"/>
</linearGradient>
<linearGradient id="paint1_linear_839_3582" x1="384.5" y1="41.9846" x2="366" y2="43.9846" gradientUnits="userSpaceOnUse">
<stop stop-color="#3378FF"/>
<stop offset="1" stop-color="#2670FF" stop-opacity="0"/>
</linearGradient>
<linearGradient id="paint2_linear_839_3582" x1="361.659" y1="96.7795" x2="335.068" y2="-6.8242" gradientUnits="userSpaceOnUse">
<stop stop-color="#1987D6"/>
<stop offset="0.202101" stop-color="#1A8DDE"/>
<stop offset="0.399258" stop-color="#1A8DDE" stop-opacity="0.716253"/>
<stop offset="1" stop-color="#1A8DDE" stop-opacity="0"/>
</linearGradient>
<linearGradient id="paint3_linear_839_3582" x1="390" y1="48.7289" x2="127.074" y2="48.7289" gradientUnits="userSpaceOnUse">
<stop stop-color="#3378FF"/>
<stop offset="0.202101" stop-color="#3475F3"/>
<stop offset="0.399258" stop-color="#73A2FF" stop-opacity="0.716253"/>
<stop offset="0.499475" stop-color="#266EF9" stop-opacity="0.82"/>
<stop offset="1" stop-color="#2670FF" stop-opacity="0"/>
</linearGradient>
<linearGradient id="paint4_linear_839_3582" x1="331.59" y1="55.1686" x2="292.188" y2="141.571" gradientUnits="userSpaceOnUse">
<stop stop-color="#278EEC"/>
<stop offset="1" stop-color="#0F7BDF" stop-opacity="0"/>
</linearGradient>
<linearGradient id="paint5_linear_839_3582" x1="314.112" y1="81" x2="137.987" y2="80.9996" gradientUnits="userSpaceOnUse">
<stop stop-color="#5CDAF5" stop-opacity="0.06"/>
<stop offset="0.124587" stop-color="#5CDAF5" stop-opacity="0.869206"/>
<stop offset="1" stop-color="#5CDAF5" stop-opacity="0"/>
</linearGradient>
<linearGradient id="paint6_linear_839_3582" x1="377.227" y1="96" x2="201.102" y2="95.9996" gradientUnits="userSpaceOnUse">
<stop stop-color="#5CDAF5" stop-opacity="0.06"/>
<stop offset="0.124587" stop-color="#5CDAF5" stop-opacity="0.869206"/>
<stop offset="1" stop-color="#5CDAF5" stop-opacity="0"/>
</linearGradient>
<linearGradient id="paint7_linear_839_3582" x1="203" y1="22" x2="308.649" y2="21.9998" gradientUnits="userSpaceOnUse">
<stop stop-color="#5CDAF5" stop-opacity="0.06"/>
<stop offset="0.0410701" stop-color="#8FEBFF"/>
<stop offset="0.0762963" stop-color="#5CDAF5" stop-opacity="0.869206"/>
<stop offset="1" stop-color="#5CDAF5" stop-opacity="0"/>
</linearGradient>
<linearGradient id="paint8_linear_839_3582" x1="359" y1="66.8632" x2="364.5" y2="34.0109" gradientUnits="userSpaceOnUse">
<stop stop-color="#5CDAF5" stop-opacity="0.06"/>
<stop offset="0.0611995" stop-color="#9AEDFF"/>
<stop offset="0.121389" stop-color="#5CDAF5" stop-opacity="0.869206"/>
<stop offset="1" stop-color="#5CDAF5" stop-opacity="0"/>
</linearGradient>
<linearGradient id="paint9_linear_839_3582" x1="62" y1="33.3966" x2="60.5945" y2="111.551" gradientUnits="userSpaceOnUse">
<stop offset="0.339927" stop-color="#1A91FF" stop-opacity="0"/>
<stop offset="0.820655" stop-color="#01FFDF"/>
</linearGradient>
<linearGradient id="paint10_linear_839_3582" x1="115.218" y1="44.976" x2="8.90212" y2="44.976" gradientUnits="userSpaceOnUse">
<stop stop-color="#083D6F"/>
<stop offset="0.0634897" stop-color="#174283"/>
<stop offset="0.188353" stop-color="#103875"/>
<stop offset="0.42381" stop-color="#154389"/>
<stop offset="0.500511" stop-color="#1190EC"/>
<stop offset="0.550457" stop-color="#195795"/>
<stop offset="0.591276" stop-color="#1A50A4"/>
<stop offset="0.825156" stop-color="#103875"/>
<stop offset="0.928614" stop-color="#103658"/>
<stop offset="1" stop-color="#0F3671"/>
</linearGradient>
<radialGradient id="paint11_radial_839_3582" cx="0" cy="0" r="1" gradientUnits="userSpaceOnUse" gradientTransform="translate(62.1321 81.6704) rotate(-90) scale(52.4935 261.307)">
<stop stop-color="#317BEB"/>
<stop offset="0.504112" stop-color="#00327C"/>
<stop offset="0.811037" stop-color="#022355"/>
</radialGradient>
<linearGradient id="paint12_linear_839_3582" x1="108.262" y1="62.6291" x2="16.0687" y2="62.6291" gradientUnits="userSpaceOnUse">
<stop stop-color="#083D6F"/>
<stop offset="0.0634897" stop-color="#174283"/>
<stop offset="0.188353" stop-color="#103875"/>
<stop offset="0.42381" stop-color="#154389"/>
<stop offset="0.500511" stop-color="#1190EC"/>
<stop offset="0.550457" stop-color="#195795"/>
<stop offset="0.591276" stop-color="#1A50A4"/>
<stop offset="0.825156" stop-color="#103875"/>
<stop offset="0.928614" stop-color="#103658"/>
<stop offset="1" stop-color="#0F3671"/>
</linearGradient>
<linearGradient id="paint13_linear_839_3582" x1="62.3567" y1="34.8097" x2="61.3257" y2="92.5555" gradientUnits="userSpaceOnUse">
<stop stop-color="#1A91FF" stop-opacity="0"/>
<stop offset="0.820655" stop-color="#01FFDF"/>
</linearGradient>
<linearGradient id="paint14_linear_839_3582" x1="86.1799" y1="71.0935" x2="92.9782" y2="81.1551" gradientUnits="userSpaceOnUse">
<stop stop-color="#27BEFF"/>
<stop offset="1" stop-color="#99C4FF" stop-opacity="0"/>
</linearGradient>
<linearGradient id="paint15_linear_839_3582" x1="89.9756" y1="68.7835" x2="83.7331" y2="73.8649" gradientUnits="userSpaceOnUse">
<stop stop-color="#79DFFF" stop-opacity="0.5"/>
<stop offset="1" stop-color="#79DFFF" stop-opacity="0.5"/>
</linearGradient>
<linearGradient id="paint16_linear_839_3582" x1="38.9119" y1="71.6021" x2="32.1136" y2="81.6637" gradientUnits="userSpaceOnUse">
<stop stop-color="#27BEFF"/>
<stop offset="1" stop-color="#99C4FF" stop-opacity="0"/>
</linearGradient>
<linearGradient id="paint17_linear_839_3582" x1="35.1133" y1="69.2919" x2="41.3558" y2="74.3733" gradientUnits="userSpaceOnUse">
<stop stop-color="#79DFFF" stop-opacity="0.5"/>
<stop offset="1" stop-color="#79DFFF" stop-opacity="0.5"/>
</linearGradient>
<linearGradient id="paint18_linear_839_3582" x1="56.8138" y1="81.5714" x2="56.8138" y2="-15.1933" gradientUnits="userSpaceOnUse">
<stop stop-color="#00D1FF"/>
<stop offset="0.624905" stop-color="#54E0FF" stop-opacity="0"/>
</linearGradient>
<radialGradient id="paint19_radial_839_3582" cx="0" cy="0" r="1" gradientUnits="userSpaceOnUse" gradientTransform="translate(62.0121 73.5422) rotate(-90) scale(47.1327 231.86)">
<stop stop-color="#317BEB"/>
<stop offset="0.668115" stop-color="#00327C"/>
<stop offset="1" stop-color="#022355"/>
</radialGradient>
<linearGradient id="paint20_linear_839_3582" x1="102.943" y1="56.4922" x2="21.1471" y2="56.4922" gradientUnits="userSpaceOnUse">
<stop stop-color="#083D6F"/>
<stop offset="0.0634897" stop-color="#174283"/>
<stop offset="0.188353" stop-color="#103875"/>
<stop offset="0.42381" stop-color="#154389"/>
<stop offset="0.500511" stop-color="#1190EC"/>
<stop offset="0.550457" stop-color="#195795"/>
<stop offset="0.591276" stop-color="#1A50A4"/>
<stop offset="0.825156" stop-color="#103875"/>
<stop offset="0.928614" stop-color="#103658"/>
<stop offset="1" stop-color="#0F3671"/>
</linearGradient>
<linearGradient id="paint21_linear_839_3582" x1="62" y1="31.4671" x2="61.0633" y2="83.3153" gradientUnits="userSpaceOnUse">
<stop stop-color="#1A91FF" stop-opacity="0"/>
<stop offset="0.820655" stop-color="#01FFDF"/>
</linearGradient>
<linearGradient id="paint22_linear_839_3582" x1="96.3848" y1="50.4195" x2="93.8177" y2="50.4195" gradientUnits="userSpaceOnUse">
<stop stop-color="#043971"/>
<stop offset="1" stop-color="#0B3A72"/>
</linearGradient>
<linearGradient id="paint23_linear_839_3582" x1="95.6172" y1="49.8762" x2="95.3044" y2="51.2392" gradientUnits="userSpaceOnUse">
<stop stop-color="#1AFFFF"/>
<stop offset="1" stop-color="#1AFFFF"/>
</linearGradient>
<linearGradient id="paint24_linear_839_3582" x1="95.6156" y1="49.0429" x2="95.1234" y2="50.7258" gradientUnits="userSpaceOnUse">
<stop stop-color="#1AFFFF"/>
<stop offset="1" stop-color="#1AFFFF"/>
</linearGradient>
<linearGradient id="paint25_linear_839_3582" x1="62.6543" y1="69.3629" x2="60.0873" y2="69.3629" gradientUnits="userSpaceOnUse">
<stop stop-color="#1D5B9C"/>
<stop offset="1" stop-color="#1A579F"/>
</linearGradient>
<linearGradient id="paint26_linear_839_3582" x1="61.8847" y1="68.8185" x2="61.572" y2="70.1815" gradientUnits="userSpaceOnUse">
<stop stop-color="#1AFFFF"/>
<stop offset="1" stop-color="#1AFFFF"/>
</linearGradient>
<linearGradient id="paint27_linear_839_3582" x1="61.8822" y1="67.9852" x2="61.39" y2="69.6681" gradientUnits="userSpaceOnUse">
<stop stop-color="#00FFFF"/>
<stop offset="1" stop-color="#00FFFF"/>
</linearGradient>
<linearGradient id="paint28_linear_839_3582" x1="28.3194" y1="50.4195" x2="25.7523" y2="50.4195" gradientUnits="userSpaceOnUse">
<stop stop-color="#032D59"/>
<stop offset="1" stop-color="#063061"/>
</linearGradient>
<linearGradient id="paint29_linear_839_3582" x1="27.5517" y1="49.8762" x2="27.239" y2="51.2392" gradientUnits="userSpaceOnUse">
<stop stop-color="#1AFFFF"/>
<stop offset="1" stop-color="#1AFFFF"/>
</linearGradient>
<linearGradient id="paint30_linear_839_3582" x1="27.5502" y1="49.0429" x2="27.058" y2="50.7258" gradientUnits="userSpaceOnUse">
<stop stop-color="#1AFFFF"/>
<stop offset="1" stop-color="#1AFFFF"/>
</linearGradient>
<linearGradient id="paint31_linear_839_3582" x1="62" y1="24.4425" x2="61.1084" y2="75.0269" gradientUnits="userSpaceOnUse">
<stop stop-color="#1A91FF" stop-opacity="0.8"/>
<stop offset="0.820655" stop-color="#01FFDF"/>
</linearGradient>
<linearGradient id="paint32_linear_839_3582" x1="62" y1="15.8612" x2="61.1084" y2="66.4456" gradientUnits="userSpaceOnUse">
<stop stop-color="#1A91FF" stop-opacity="0.8"/>
<stop offset="0.820655" stop-color="#01FFDF"/>
</linearGradient>
<linearGradient id="paint33_linear_839_3582" x1="63.6921" y1="-1.33479" x2="58.4046" y2="42.3885" gradientUnits="userSpaceOnUse">
<stop offset="0.230509" stop-color="#17F1FF"/>
<stop offset="1" stop-color="#0A98FF"/>
</linearGradient>
<linearGradient id="paint34_linear_839_3582" x1="64.6605" y1="6.97651" x2="64.6605" y2="42.9922" gradientUnits="userSpaceOnUse">
<stop stop-color="#01EFF3" stop-opacity="0.29"/>
<stop offset="1" stop-color="#01EFF3" stop-opacity="0"/>
</linearGradient>
<linearGradient id="paint35_linear_839_3582" x1="58.4936" y1="2.1868" x2="53.2061" y2="45.9101" gradientUnits="userSpaceOnUse">
<stop offset="0.230509" stop-color="#17F1FF"/>
<stop offset="1" stop-color="#0A98FF"/>
</linearGradient>
<linearGradient id="paint36_linear_839_3582" x1="59.462" y1="10.4981" x2="59.462" y2="46.5138" gradientUnits="userSpaceOnUse">
<stop stop-color="#01EFF3" stop-opacity="0.29"/>
<stop offset="1" stop-color="#01EFF3" stop-opacity="0"/>
</linearGradient>
<clipPath id="clip0_839_3582">
<rect width="386" height="102" fill="white"/>
</clipPath>
<clipPath id="clip1_839_3582">
<rect width="124" height="102" fill="white"/>
</clipPath>
</defs>
</svg>
