<svg width="28" height="27" viewBox="0 0 28 27" fill="none" xmlns="http://www.w3.org/2000/svg">
<g filter="url(#filter0_f_759_4411)">
<path d="M10.2136 14.4053C10.2893 14.2455 10.2899 14.0602 10.2152 13.8999L8.53606 10.2964C8.05065 9.25469 9.17934 8.19914 10.1862 8.75315L19.0458 13.628C19.4578 13.8547 19.4558 14.4474 19.0421 14.6712L11.793 18.5934C10.2773 19.4135 8.5957 17.8194 9.33368 16.2621L10.2136 14.4053Z" fill="#0E8BFF"/>
</g>
<path d="M14.999 13.6869C15.1178 13.7661 15.1178 13.9407 14.999 14.0199L8.50512 18.3431C8.34446 18.4501 8.14048 18.2899 8.20627 18.1084L9.72431 13.9216C9.74028 13.8776 9.74028 13.8293 9.72431 13.7853L8.20626 9.59831C8.14047 9.41687 8.34446 9.25671 8.50512 9.36366L14.999 13.6869Z" fill="#EAF8FF"/>
<defs>
<filter id="filter0_f_759_4411" x="0.612114" y="0.792778" width="26.5492" height="25.8313" filterUnits="userSpaceOnUse" color-interpolation-filters="sRGB">
<feFlood flood-opacity="0" result="BackgroundImageFix"/>
<feBlend mode="normal" in="SourceGraphic" in2="BackgroundImageFix" result="shape"/>
<feGaussianBlur stdDeviation="3.9039" result="effect1_foregroundBlur_759_4411"/>
</filter>
</defs>
</svg>
