<svg width="44" height="1004" viewBox="0 0 44 1004" fill="none" xmlns="http://www.w3.org/2000/svg">
<path opacity="0.4" d="M7.5 3H44V1006H2L31 974V30.5L7.5 3Z" fill="url(#paint0_linear_759_4954)"/>
<path opacity="0.5" d="M31.5 290.514L31.5 34.5221C31.5 32.103 30.6231 29.766 29.0319 27.944L5.5 1" stroke="url(#paint1_linear_759_4954)"/>
<path opacity="0.5" d="M31.5 714.486L31.5 970.296C31.5 972.825 30.5424 975.259 28.82 977.109L1 1007" stroke="url(#paint2_linear_759_4954)"/>
<rect opacity="0.2" x="25.5" y="251.111" width="12" height="2" fill="#00B2FF"/>
<rect opacity="0.5" x="29.5" y="251.111" width="3" height="2" fill="#00B2FF"/>
<rect opacity="0.2" x="25.5" y="261.111" width="12" height="2" fill="#00B2FF"/>
<rect opacity="0.5" x="29.5" y="261.111" width="3" height="2" fill="#00B2FF"/>
<rect opacity="0.2" x="25.5" y="271.111" width="12" height="2" fill="#00B2FF"/>
<rect opacity="0.5" x="29.5" y="271.111" width="3" height="2" fill="#00B2FF"/>
<rect opacity="0.2" x="25.5" y="281.111" width="12" height="2" fill="#00B2FF"/>
<rect opacity="0.5" x="29.5" y="281.111" width="3" height="2" fill="#00B2FF"/>
<rect opacity="0.2" x="25.5" y="291.111" width="12" height="2" fill="#00B2FF"/>
<rect opacity="0.5" x="29.5" y="291.111" width="3" height="2" fill="#00B2FF"/>
<rect opacity="0.2" x="25.5" y="301.111" width="12" height="2" fill="#00B2FF"/>
<rect opacity="0.5" x="29.5" y="301.111" width="3" height="2" fill="#00B2FF"/>
<rect opacity="0.2" x="25.5" y="311.111" width="12" height="2" fill="#00B2FF"/>
<rect opacity="0.5" x="29.5" y="311.111" width="3" height="2" fill="#00B2FF"/>
<rect opacity="0.2" x="25.5" y="321.111" width="12" height="2" fill="#00B2FF"/>
<rect opacity="0.5" x="29.5" y="321.111" width="3" height="2" fill="#00B2FF"/>
<rect opacity="0.2" x="25.5" y="331.111" width="12" height="2" fill="#00B2FF"/>
<rect opacity="0.5" x="29.5" y="331.111" width="3" height="2" fill="#00B2FF"/>
<rect opacity="0.2" x="25.5" y="341.111" width="12" height="2" fill="#00B2FF"/>
<rect opacity="0.5" x="29.5" y="341.111" width="3" height="2" fill="#00B2FF"/>
<rect opacity="0.2" x="25.5" y="351.111" width="12" height="2" fill="#00B2FF"/>
<rect opacity="0.5" x="29.5" y="351.111" width="3" height="2" fill="#00B2FF"/>
<rect opacity="0.2" x="25.5" y="361.111" width="12" height="2" fill="#00B2FF"/>
<rect opacity="0.5" x="29.5" y="361.111" width="3" height="2" fill="#00B2FF"/>
<rect opacity="0.2" x="25.5" y="371.111" width="12" height="2" fill="#00B2FF"/>
<rect opacity="0.5" x="29.5" y="371.111" width="3" height="2" fill="#00B2FF"/>
<rect opacity="0.2" x="25.5" y="381.111" width="12" height="2" fill="#00B2FF"/>
<rect opacity="0.5" x="29.5" y="381.111" width="3" height="2" fill="#00B2FF"/>
<rect opacity="0.2" x="25.5" y="391.111" width="12" height="2" fill="#00B2FF"/>
<rect opacity="0.5" x="29.5" y="391.111" width="3" height="2" fill="#00B2FF"/>
<rect opacity="0.2" x="25.5" y="401.111" width="12" height="2" fill="#00B2FF"/>
<rect opacity="0.5" x="29.5" y="401.111" width="3" height="2" fill="#00B2FF"/>
<rect opacity="0.2" x="25.5" y="411.111" width="12" height="2" fill="#00B2FF"/>
<rect opacity="0.5" x="29.5" y="411.111" width="3" height="2" fill="#00B2FF"/>
<rect opacity="0.2" x="25.5" y="421.111" width="12" height="2" fill="#00B2FF"/>
<rect opacity="0.5" x="29.5" y="421.111" width="3" height="2" fill="#00B2FF"/>
<rect opacity="0.2" x="25.5" y="431.111" width="12" height="2" fill="#00B2FF"/>
<rect opacity="0.5" x="29.5" y="431.111" width="3" height="2" fill="#00B2FF"/>
<rect opacity="0.2" x="25.5" y="441.111" width="12" height="2" fill="#00B2FF"/>
<rect opacity="0.5" x="29.5" y="441.111" width="3" height="2" fill="#00B2FF"/>
<rect opacity="0.2" x="25.5" y="451.111" width="12" height="2" fill="#00B2FF"/>
<rect opacity="0.5" x="29.5" y="451.111" width="3" height="2" fill="#00B2FF"/>
<rect opacity="0.2" x="25.5" y="461.111" width="12" height="2" fill="#00B2FF"/>
<rect opacity="0.5" x="29.5" y="461.111" width="3" height="2" fill="#00B2FF"/>
<rect opacity="0.2" x="25.5" y="471.111" width="12" height="2" fill="#00B2FF"/>
<rect opacity="0.5" x="29.5" y="471.111" width="3" height="2" fill="#00B2FF"/>
<rect opacity="0.2" x="25.5" y="481.111" width="12" height="2" fill="#00B2FF"/>
<rect opacity="0.5" x="29.5" y="481.111" width="3" height="2" fill="#00B2FF"/>
<rect opacity="0.2" x="25.5" y="491.111" width="12" height="2" fill="#00B2FF"/>
<rect opacity="0.5" x="29.5" y="491.111" width="3" height="2" fill="#00B2FF"/>
<rect opacity="0.2" x="25.5" y="501.111" width="12" height="2" fill="#00B2FF"/>
<rect opacity="0.5" x="29.5" y="501.111" width="3" height="2" fill="#00B2FF"/>
<rect opacity="0.2" x="25.5" y="511.111" width="12" height="2" fill="#00B2FF"/>
<rect opacity="0.5" x="29.5" y="511.111" width="3" height="2" fill="#00B2FF"/>
<rect opacity="0.2" x="25.5" y="521.111" width="12" height="2" fill="#00B2FF"/>
<rect opacity="0.5" x="29.5" y="521.111" width="3" height="2" fill="#00B2FF"/>
<rect opacity="0.2" x="25.5" y="531.111" width="12" height="2" fill="#00B2FF"/>
<rect opacity="0.5" x="29.5" y="531.111" width="3" height="2" fill="#00B2FF"/>
<rect opacity="0.2" x="25.5" y="541.111" width="12" height="2" fill="#00B2FF"/>
<rect opacity="0.5" x="29.5" y="541.111" width="3" height="2" fill="#00B2FF"/>
<rect opacity="0.2" x="25.5" y="551.111" width="12" height="2" fill="#00B2FF"/>
<rect opacity="0.5" x="29.5" y="551.111" width="3" height="2" fill="#00B2FF"/>
<rect opacity="0.2" x="25.5" y="561.111" width="12" height="2" fill="#00B2FF"/>
<rect opacity="0.5" x="29.5" y="561.111" width="3" height="2" fill="#00B2FF"/>
<rect opacity="0.2" x="25.5" y="571.111" width="12" height="2" fill="#00B2FF"/>
<rect opacity="0.5" x="29.5" y="571.111" width="3" height="2" fill="#00B2FF"/>
<rect opacity="0.2" x="25.5" y="581.111" width="12" height="2" fill="#00B2FF"/>
<rect opacity="0.5" x="29.5" y="581.111" width="3" height="2" fill="#00B2FF"/>
<rect opacity="0.2" x="25.5" y="591.111" width="12" height="2" fill="#00B2FF"/>
<rect opacity="0.5" x="29.5" y="591.111" width="3" height="2" fill="#00B2FF"/>
<rect opacity="0.2" x="25.5" y="601.111" width="12" height="2" fill="#00B2FF"/>
<rect opacity="0.5" x="29.5" y="601.111" width="3" height="2" fill="#00B2FF"/>
<rect opacity="0.2" x="25.5" y="611.111" width="12" height="2" fill="#00B2FF"/>
<rect opacity="0.5" x="29.5" y="611.111" width="3" height="2" fill="#00B2FF"/>
<rect opacity="0.2" x="25.5" y="621.111" width="12" height="2" fill="#00B2FF"/>
<rect opacity="0.5" x="29.5" y="621.111" width="3" height="2" fill="#00B2FF"/>
<rect opacity="0.2" x="25.5" y="631.111" width="12" height="2" fill="#00B2FF"/>
<rect opacity="0.5" x="29.5" y="631.111" width="3" height="2" fill="#00B2FF"/>
<rect opacity="0.2" x="25.5" y="641.111" width="12" height="2" fill="#00B2FF"/>
<rect opacity="0.5" x="29.5" y="641.111" width="3" height="2" fill="#00B2FF"/>
<rect opacity="0.2" x="25.5" y="651.111" width="12" height="2" fill="#00B2FF"/>
<rect opacity="0.5" x="29.5" y="651.111" width="3" height="2" fill="#00B2FF"/>
<rect opacity="0.2" x="25.5" y="661.111" width="12" height="2" fill="#00B2FF"/>
<rect opacity="0.5" x="29.5" y="661.111" width="3" height="2" fill="#00B2FF"/>
<rect opacity="0.2" x="25.5" y="671.111" width="12" height="2" fill="#00B2FF"/>
<rect opacity="0.5" x="29.5" y="671.111" width="3" height="2" fill="#00B2FF"/>
<rect opacity="0.2" x="25.5" y="681.111" width="12" height="2" fill="#00B2FF"/>
<rect opacity="0.5" x="29.5" y="681.111" width="3" height="2" fill="#00B2FF"/>
<rect opacity="0.2" x="25.5" y="691.111" width="12" height="2" fill="#00B2FF"/>
<rect opacity="0.5" x="29.5" y="691.111" width="3" height="2" fill="#00B2FF"/>
<rect opacity="0.2" x="25.5" y="701.111" width="12" height="2" fill="#00B2FF"/>
<rect opacity="0.5" x="29.5" y="701.111" width="3" height="2" fill="#00B2FF"/>
<rect opacity="0.2" x="25.5" y="711.111" width="12" height="2" fill="#00B2FF"/>
<rect opacity="0.5" x="29.5" y="711.111" width="3" height="2" fill="#00B2FF"/>
<rect opacity="0.2" x="25.5" y="721.111" width="12" height="2" fill="#00B2FF"/>
<rect opacity="0.5" x="29.5" y="721.111" width="3" height="2" fill="#00B2FF"/>
<rect opacity="0.2" x="25.5" y="731.111" width="12" height="2" fill="#00B2FF"/>
<rect opacity="0.5" x="29.5" y="731.111" width="3" height="2" fill="#00B2FF"/>
<circle cx="2" cy="2" r="2" transform="matrix(-1 0 0 1 33.5 188)" fill="#3AE7FF"/>
<circle cx="1" cy="1" r="1" transform="matrix(-1 0 0 1 32.5 205)" fill="#3AE7FF"/>
<circle cx="2" cy="2" r="1.75" transform="matrix(-1 0 0 1 33.5 196)" stroke="#006ED3" stroke-width="0.5"/>
<circle cx="2" cy="2" r="1.75" transform="matrix(-1 0 0 1 33.5 204)" stroke="#3AE7FF" stroke-width="0.5"/>
<circle cx="2" cy="2" r="2" transform="matrix(-1 0 0 1 33.5 786)" fill="#3AE7FF"/>
<circle cx="1" cy="1" r="1" transform="matrix(-1 0 0 1 32.5 803)" fill="#3AE7FF"/>
<circle cx="2" cy="2" r="1.75" transform="matrix(-1 0 0 1 33.5 794)" stroke="#006ED3" stroke-width="0.5"/>
<circle cx="2" cy="2" r="1.75" transform="matrix(-1 0 0 1 33.5 802)" stroke="#3AE7FF" stroke-width="0.5"/>
<path d="M44 975.5L16.5 1004H29.5H44V975.5Z" fill="url(#paint3_linear_759_4954)" fill-opacity="0.3"/>
<path d="M29.5 1003.5H17.6772L43.5 976.738V1003.5H29.5Z" stroke="url(#paint4_linear_759_4954)" stroke-opacity="0.5"/>
<defs>
<linearGradient id="paint0_linear_759_4954" x1="73.5" y1="1006" x2="73.5" y2="3" gradientUnits="userSpaceOnUse">
<stop stop-color="#144AD6" stop-opacity="0"/>
<stop offset="0.23485" stop-color="#144AD6" stop-opacity="0.8"/>
<stop offset="0.740669" stop-color="#144AD6" stop-opacity="0.8"/>
<stop offset="1" stop-color="#144AD6" stop-opacity="0"/>
</linearGradient>
<linearGradient id="paint1_linear_759_4954" x1="31.953" y1="290.514" x2="31.9531" y2="4.50001" gradientUnits="userSpaceOnUse">
<stop stop-color="#00B2FF" stop-opacity="0"/>
<stop offset="0.882124" stop-color="#00B2FF"/>
<stop offset="1" stop-color="#00B2FF" stop-opacity="0"/>
</linearGradient>
<linearGradient id="paint2_linear_759_4954" x1="32.0314" y1="714.486" x2="32.0314" y2="1003.46" gradientUnits="userSpaceOnUse">
<stop stop-color="#00B2FF" stop-opacity="0"/>
<stop offset="0.882124" stop-color="#00B2FF"/>
<stop offset="1" stop-color="#00B2FF" stop-opacity="0"/>
</linearGradient>
<linearGradient id="paint3_linear_759_4954" x1="33.5" y1="1029" x2="43.5" y2="977" gradientUnits="userSpaceOnUse">
<stop stop-color="#144AD6"/>
<stop offset="1" stop-color="#144AD6" stop-opacity="0"/>
</linearGradient>
<linearGradient id="paint4_linear_759_4954" x1="26.0185" y1="973.482" x2="39.0188" y2="986.481" gradientUnits="userSpaceOnUse">
<stop stop-color="#0064FA"/>
<stop offset="1" stop-color="#00C7FA" stop-opacity="0"/>
</linearGradient>
</defs>
</svg>
