<svg width="22" height="22" viewBox="0 0 22 22" fill="none" xmlns="http://www.w3.org/2000/svg">
<path d="M10.5317 1.25247C10.6936 0.819299 11.3064 0.819298 11.4683 1.25247L13.8465 7.6126C13.9168 7.80052 14.0926 7.92824 14.293 7.937L21.0768 8.23342C21.5388 8.25361 21.7281 8.83634 21.3662 9.12424L16.0523 13.3514C15.8953 13.4763 15.8281 13.683 15.8817 13.8763L17.6961 20.4197C17.8197 20.8653 17.324 21.2254 16.9384 20.9702L11.276 17.2226C11.1086 17.1119 10.8914 17.1119 10.724 17.2226L5.06165 20.9702C4.676 21.2254 4.1803 20.8653 4.30387 20.4197L6.11825 13.8763C6.17186 13.683 6.10472 13.4763 5.9477 13.3514L0.633772 9.12424C0.271853 8.83634 0.461191 8.25361 0.923216 8.23342L7.70696 7.937C7.9074 7.92824 8.08319 7.80052 8.15346 7.6126L10.5317 1.25247Z" fill="#FF1414"/>
</svg>
