<svg width="110" height="34" viewBox="0 0 110 34" fill="none" xmlns="http://www.w3.org/2000/svg">
<mask id="mask0_1398_7328" style="mask-type:alpha" maskUnits="userSpaceOnUse" x="0" y="0" width="110" height="34">
<rect width="110" height="34" fill="#D9D9D9"/>
</mask>
<g mask="url(#mask0_1398_7328)">
<g filter="url(#filter0_d_1398_7328)">
<path d="M1 28.4828C1 28.3047 1.21543 28.2154 1.34142 28.3414L5.65858 32.6586C5.78457 32.7846 5.69534 33 5.51716 33H1.2C1.08954 33 1 32.9105 1 32.8V28.4828Z" fill="#00F0FF"/>
</g>
<g filter="url(#filter1_d_1398_7328)">
<path d="M1 5.51716C1 5.69534 1.21543 5.78457 1.34142 5.65858L5.65858 1.34142C5.78457 1.21543 5.69534 1 5.51716 1H1.2C1.08954 1 1 1.08954 1 1.2V5.51716Z" fill="#00F0FF"/>
</g>
<g filter="url(#filter2_d_1398_7328)">
<path d="M109 28.4828C109 28.3047 108.785 28.2154 108.659 28.3414L104.341 32.6586C104.215 32.7846 104.305 33 104.483 33H108.8C108.91 33 109 32.9105 109 32.8V28.4828Z" fill="#00F0FF"/>
</g>
<g filter="url(#filter3_d_1398_7328)">
<path d="M109 5.51716C109 5.69534 108.785 5.78457 108.659 5.65858L104.341 1.34142C104.215 1.21543 104.305 1 104.483 1H108.8C108.91 1 109 1.08954 109 1.2V5.51716Z" fill="#00F0FF"/>
</g>
<g filter="url(#filter4_i_1398_7328)">
<path d="M8 0L102 0L110 8V26L102 34H8L0 26V8L8 0Z" fill="url(#paint0_linear_1398_7328)" fill-opacity="0.8"/>
<path d="M8 0L102 0L110 8V26L102 34H8L0 26V8L8 0Z" fill="url(#paint1_linear_1398_7328)"/>
</g>
<path d="M0.5 8.20711L8.20711 0.5H101.793L109.5 8.20711V25.7929L101.793 33.5H8.20711L0.5 25.7929V8.20711Z" stroke="#1D3D6F"/>
<path d="M0.5 8.20711L8.20711 0.5H101.793L109.5 8.20711V25.7929L101.793 33.5H8.20711L0.5 25.7929V8.20711Z" stroke="url(#paint2_linear_1398_7328)"/>
<mask id="mask1_1398_7328" style="mask-type:alpha" maskUnits="userSpaceOnUse" x="0" y="0" width="110" height="34">
<path d="M0.5 8.20711L8.20711 0.5H101.793L109.5 8.20711V25.7929L101.793 33.5H8.20711L0.5 25.7929V8.20711Z" fill="url(#paint3_linear_1398_7328)" stroke="url(#paint4_linear_1398_7328)"/>
</mask>
<g mask="url(#mask1_1398_7328)">
<path fill-rule="evenodd" clip-rule="evenodd" d="M-3 -3H14L-10 56H-27L-3 -3ZM62 -3H45L21 56H38L62 -3ZM93 -3H110L86 56H69L93 -3ZM141 -3H158L134 56H117L141 -3ZM165 -3H182L158 56H141L165 -3ZM206 -3H189L165 56H182L206 -3ZM134 -3H117L93 56H110L134 -3ZM69 -3H86L62 56H45L69 -3ZM38 -3H21L-3 56H14L38 -3Z" fill="url(#paint5_linear_1398_7328)" fill-opacity="0.7"/>
</g>
</g>
<defs>
<filter id="filter0_d_1398_7328" x="-5" y="22.2822" width="16.7178" height="16.7178" filterUnits="userSpaceOnUse" color-interpolation-filters="sRGB">
<feFlood flood-opacity="0" result="BackgroundImageFix"/>
<feColorMatrix in="SourceAlpha" type="matrix" values="0 0 0 0 0 0 0 0 0 0 0 0 0 0 0 0 0 0 127 0" result="hardAlpha"/>
<feOffset/>
<feGaussianBlur stdDeviation="3"/>
<feComposite in2="hardAlpha" operator="out"/>
<feColorMatrix type="matrix" values="0 0 0 0 0 0 0 0 0 0.941176 0 0 0 0 1 0 0 0 0.8 0"/>
<feBlend mode="normal" in2="BackgroundImageFix" result="effect1_dropShadow_1398_7328"/>
<feBlend mode="normal" in="SourceGraphic" in2="effect1_dropShadow_1398_7328" result="shape"/>
</filter>
<filter id="filter1_d_1398_7328" x="-5" y="-5" width="16.7178" height="16.7178" filterUnits="userSpaceOnUse" color-interpolation-filters="sRGB">
<feFlood flood-opacity="0" result="BackgroundImageFix"/>
<feColorMatrix in="SourceAlpha" type="matrix" values="0 0 0 0 0 0 0 0 0 0 0 0 0 0 0 0 0 0 127 0" result="hardAlpha"/>
<feOffset/>
<feGaussianBlur stdDeviation="3"/>
<feComposite in2="hardAlpha" operator="out"/>
<feColorMatrix type="matrix" values="0 0 0 0 0 0 0 0 0 0.941176 0 0 0 0 1 0 0 0 0.8 0"/>
<feBlend mode="normal" in2="BackgroundImageFix" result="effect1_dropShadow_1398_7328"/>
<feBlend mode="normal" in="SourceGraphic" in2="effect1_dropShadow_1398_7328" result="shape"/>
</filter>
<filter id="filter2_d_1398_7328" x="98.2822" y="22.2822" width="16.7178" height="16.7178" filterUnits="userSpaceOnUse" color-interpolation-filters="sRGB">
<feFlood flood-opacity="0" result="BackgroundImageFix"/>
<feColorMatrix in="SourceAlpha" type="matrix" values="0 0 0 0 0 0 0 0 0 0 0 0 0 0 0 0 0 0 127 0" result="hardAlpha"/>
<feOffset/>
<feGaussianBlur stdDeviation="3"/>
<feComposite in2="hardAlpha" operator="out"/>
<feColorMatrix type="matrix" values="0 0 0 0 0 0 0 0 0 0.941176 0 0 0 0 1 0 0 0 0.8 0"/>
<feBlend mode="normal" in2="BackgroundImageFix" result="effect1_dropShadow_1398_7328"/>
<feBlend mode="normal" in="SourceGraphic" in2="effect1_dropShadow_1398_7328" result="shape"/>
</filter>
<filter id="filter3_d_1398_7328" x="98.2822" y="-5" width="16.7178" height="16.7178" filterUnits="userSpaceOnUse" color-interpolation-filters="sRGB">
<feFlood flood-opacity="0" result="BackgroundImageFix"/>
<feColorMatrix in="SourceAlpha" type="matrix" values="0 0 0 0 0 0 0 0 0 0 0 0 0 0 0 0 0 0 127 0" result="hardAlpha"/>
<feOffset/>
<feGaussianBlur stdDeviation="3"/>
<feComposite in2="hardAlpha" operator="out"/>
<feColorMatrix type="matrix" values="0 0 0 0 0 0 0 0 0 0.941176 0 0 0 0 1 0 0 0 0.8 0"/>
<feBlend mode="normal" in2="BackgroundImageFix" result="effect1_dropShadow_1398_7328"/>
<feBlend mode="normal" in="SourceGraphic" in2="effect1_dropShadow_1398_7328" result="shape"/>
</filter>
<filter id="filter4_i_1398_7328" x="0" y="0" width="110" height="34" filterUnits="userSpaceOnUse" color-interpolation-filters="sRGB">
<feFlood flood-opacity="0" result="BackgroundImageFix"/>
<feBlend mode="normal" in="SourceGraphic" in2="BackgroundImageFix" result="shape"/>
<feColorMatrix in="SourceAlpha" type="matrix" values="0 0 0 0 0 0 0 0 0 0 0 0 0 0 0 0 0 0 127 0" result="hardAlpha"/>
<feOffset dy="-1"/>
<feComposite in2="hardAlpha" operator="arithmetic" k2="-1" k3="1"/>
<feColorMatrix type="matrix" values="0 0 0 0 0.101961 0 0 0 0 0.384314 0 0 0 0 0.701961 0 0 0 0.2 0"/>
<feBlend mode="normal" in2="shape" result="effect1_innerShadow_1398_7328"/>
</filter>
<linearGradient id="paint0_linear_1398_7328" x1="199.752" y1="0" x2="199.752" y2="110" gradientUnits="userSpaceOnUse">
<stop stop-color="#001A41" stop-opacity="0.63"/>
<stop offset="1" stop-color="#00132E"/>
</linearGradient>
<linearGradient id="paint1_linear_1398_7328" x1="111.5" y1="0" x2="111.5" y2="41" gradientUnits="userSpaceOnUse">
<stop stop-color="#01204F" stop-opacity="0"/>
<stop offset="1" stop-color="#092856"/>
</linearGradient>
<linearGradient id="paint2_linear_1398_7328" x1="102.5" y1="36" x2="9.5" y2="36" gradientUnits="userSpaceOnUse">
<stop stop-color="#00F0FF" stop-opacity="0"/>
<stop offset="0.512465" stop-color="#00F0FF"/>
<stop offset="1" stop-color="#00F0FF" stop-opacity="0"/>
</linearGradient>
<linearGradient id="paint3_linear_1398_7328" x1="111.5" y1="0" x2="111.5" y2="41" gradientUnits="userSpaceOnUse">
<stop stop-color="#01204F" stop-opacity="0"/>
<stop offset="1" stop-color="#092856"/>
</linearGradient>
<linearGradient id="paint4_linear_1398_7328" x1="111.5" y1="0" x2="111.5" y2="30.5" gradientUnits="userSpaceOnUse">
<stop stop-color="#00F0FF" stop-opacity="0.17"/>
<stop offset="1" stop-color="#00F0FF" stop-opacity="0"/>
</linearGradient>
<linearGradient id="paint5_linear_1398_7328" x1="136" y1="12" x2="136" y2="42.5" gradientUnits="userSpaceOnUse">
<stop stop-color="#0A4299"/>
<stop offset="1" stop-color="#07244F" stop-opacity="0"/>
</linearGradient>
</defs>
</svg>
