<svg width="814" height="56" viewBox="0 0 814 56" fill="none" xmlns="http://www.w3.org/2000/svg">
<g opacity="0.5" filter="url(#filter0_f_364_2432)">
<rect x="20" y="20" width="774" height="16" fill="url(#paint0_linear_364_2432)"/>
</g>
<path d="M343.698 36H469.306" stroke="url(#paint1_linear_364_2432)" stroke-width="2"/>
<g filter="url(#filter1_f_364_2432)">
<path d="M232.047 36H581.953" stroke="url(#paint2_linear_364_2432)" stroke-width="2"/>
</g>
<path d="M84.5078 36L729.492 36.0001" stroke="url(#paint3_linear_364_2432)" stroke-width="2"/>
<path d="M339.948 23.508H329.616V20.764H339.948V17.432H333.648H330.848H329.644L332.164 9.984H329.616V7.24H333.088L333.536 5.868H337.54L337.092 7.24H354.116V9.984H336.168L334.572 14.716H335.384H339.948V11.944H343.784V14.716H353.332V17.432H343.784V20.764H354.116V23.508H343.784V25.944H339.948V23.508ZM359.294 26.028V23.732L355.318 24.236V21.828L359.294 21.296V18.328H358.146H356.466H355.29L356.382 9.564H355.514V7.128H356.69L356.83 5.812H359.686L359.518 7.128H364.586V9.564H359.21L358.426 15.92H359.294V10.348H362.458V15.92H364.558V18.328H362.458V20.876L364.81 20.568V23.004L362.458 23.312V26.028H359.294ZM379.986 23.396C379.986 23.7693 379.911 24.1147 379.762 24.432C379.631 24.7493 379.444 25.0293 379.202 25.272C378.978 25.496 378.698 25.6827 378.362 25.832C378.044 25.9627 377.708 26.028 377.354 26.028H374.834L375.87 24.124H376.374C376.635 24.124 376.784 23.9933 376.822 23.732H375.142L374.722 18.776L374.358 23.732H372.874H372.51H371.054L370.634 18.776L370.27 23.732H368.506V26.028H365.342V10.488H366.098H368.506H369.402L369.57 8.22H365.342V5.812H379.93V8.22H375.506L375.338 10.488H376.822H379.986V12.924V23.396ZM371.25 10.488H373.49L373.658 8.22H371.418L371.25 10.488ZM368.506 22.528L369.206 12.924H368.506V22.528ZM373.294 12.924H371.082L370.858 15.92H372.23L372.678 21.408L373.294 12.924ZM376.318 15.92L376.822 21.996V12.924H375.17L374.946 15.92H376.318ZM383.904 25.972C383.157 25.972 382.522 25.7107 382 25.188C381.477 24.6653 381.216 24.0307 381.216 23.284V8.584V6.148V5.868H405.576V8.584H385.22V22.612C385.22 22.7987 385.276 22.9573 385.388 23.088C385.518 23.2 385.668 23.256 385.836 23.256H405.576L404.596 25.972H383.904ZM386.424 19.14C387.525 18.916 388.533 18.664 389.448 18.384C390.381 18.104 391.258 17.7773 392.08 17.404C391.016 16.396 390.054 15.2573 389.196 13.988C388.337 12.7187 387.516 11.2813 386.732 9.676H390.848C391.613 10.8893 392.36 11.9533 393.088 12.868C393.834 13.7827 394.628 14.5853 395.468 15.276C396.289 14.5853 397.073 13.7827 397.82 12.868C398.566 11.9533 399.322 10.8893 400.088 9.676H404.204C403.42 11.2813 402.589 12.7187 401.712 13.988C400.853 15.2573 399.892 16.396 398.828 17.404C399.649 17.7773 400.526 18.104 401.46 18.384C402.393 18.664 403.41 18.916 404.512 19.14V22.528C402.645 22.2853 400.974 21.94 399.5 21.492C398.025 21.044 396.681 20.4933 395.468 19.84C394.254 20.4933 392.91 21.044 391.436 21.492C389.961 21.94 388.29 22.2853 386.424 22.528V19.14ZM426.797 10.264L428.029 14.968L428.701 13.484H431.501L429.037 18.916L430.885 26H427.133L426.657 24.152L425.957 25.692H423.129L423.801 24.236H414.981V22.276H423.857V24.124L425.649 20.204L423.577 12.224V13.96V18.86C423.577 19.4573 423.363 19.9707 422.933 20.4C422.523 20.8107 422.019 21.016 421.421 21.016H415.513V20.708V13.96V11.72H418.705H420.385H423.437L423.073 10.264H414.981V7.856H422.457L421.925 5.812H425.649L426.181 7.856H427.945L427.469 5.924H430.465L431.501 10.264H430.269H428.505H426.797ZM420.665 13.96H418.453V18.748H419.993C420.18 18.748 420.339 18.6827 420.469 18.552C420.6 18.4213 420.665 18.2627 420.665 18.076V13.96ZM408.709 23.228V12.252H406.777V9.48H408.709V5.812H412.573V9.48H414.505V12.252H412.573V23.228H414.505V26H406.777V23.228H408.709ZM434.551 25.86L438.443 16.816H435.083V13.96H456.783V23.48C456.783 24.1707 456.541 24.7587 456.055 25.244C455.57 25.7107 454.982 25.944 454.291 25.944H448.103L449.027 23.368H452.415C452.602 23.368 452.751 23.3027 452.863 23.172C452.994 23.06 453.059 22.9107 453.059 22.724V16.816H442.587L438.667 25.86H434.551ZM454.375 5.896L458.239 12.672H454.095L450.231 5.896H454.375ZM437.659 5.896L433.823 12.672H437.939L441.803 5.896H437.659ZM464.707 10.124H460.619V7.38H466.555L467.619 5.784H471.399L470.335 7.38H485.203V10.124H468.487L466.779 12.672H471.511V11.496H474.983V12.672H478.819H481.619C482.198 12.672 482.683 12.8773 483.075 13.288C483.486 13.68 483.691 14.1747 483.691 14.772V23.144C483.691 23.7413 483.486 24.2453 483.075 24.656C482.683 25.048 482.198 25.244 481.619 25.244H477.447L478.259 22.5H479.631C479.799 22.5 479.939 22.444 480.051 22.332C480.163 22.22 480.219 22.08 480.219 21.912V16.004C480.219 15.836 480.163 15.696 480.051 15.584C479.939 15.472 479.799 15.416 479.631 15.416H478.819H474.983V26.028H471.511V15.416H466.863V25.244H463.391V16.2H460.647L464.707 10.124Z" fill="url(#paint4_linear_364_2432)"/>
<defs>
<filter id="filter0_f_364_2432" x="0" y="0" width="814" height="56" filterUnits="userSpaceOnUse" color-interpolation-filters="sRGB">
<feFlood flood-opacity="0" result="BackgroundImageFix"/>
<feBlend mode="normal" in="SourceGraphic" in2="BackgroundImageFix" result="shape"/>
<feGaussianBlur stdDeviation="10" result="effect1_foregroundBlur_364_2432"/>
</filter>
<filter id="filter1_f_364_2432" x="228.047" y="31" width="357.906" height="10" filterUnits="userSpaceOnUse" color-interpolation-filters="sRGB">
<feFlood flood-opacity="0" result="BackgroundImageFix"/>
<feBlend mode="normal" in="SourceGraphic" in2="BackgroundImageFix" result="shape"/>
<feGaussianBlur stdDeviation="2" result="effect1_foregroundBlur_364_2432"/>
</filter>
<linearGradient id="paint0_linear_364_2432" x1="20" y1="28.2578" x2="794" y2="28.2579" gradientUnits="userSpaceOnUse">
<stop stop-color="#4EABD0" stop-opacity="0"/>
<stop offset="0.502765" stop-color="#4EABD0"/>
<stop offset="1" stop-color="#4EABD0" stop-opacity="0"/>
</linearGradient>
<linearGradient id="paint1_linear_364_2432" x1="343.698" y1="36" x2="469.306" y2="36" gradientUnits="userSpaceOnUse">
<stop stop-color="white" stop-opacity="0"/>
<stop offset="0.513267" stop-color="#C5EAFF"/>
<stop offset="1" stop-color="white" stop-opacity="0"/>
</linearGradient>
<linearGradient id="paint2_linear_364_2432" x1="232.047" y1="36" x2="582.962" y2="36" gradientUnits="userSpaceOnUse">
<stop stop-color="#9ADEF9" stop-opacity="0"/>
<stop offset="0.507734" stop-color="#BEEDFF"/>
<stop offset="1" stop-color="#9ADEF9" stop-opacity="0"/>
</linearGradient>
<linearGradient id="paint3_linear_364_2432" x1="84.6794" y1="36" x2="737.202" y2="22.8471" gradientUnits="userSpaceOnUse">
<stop stop-color="#4EABD0" stop-opacity="0"/>
<stop offset="0.260417" stop-color="#4EABD0"/>
<stop offset="0.4899" stop-color="white"/>
<stop offset="0.723958" stop-color="#4EABD0"/>
<stop offset="1" stop-color="#4EABD0" stop-opacity="0"/>
</linearGradient>
<linearGradient id="paint4_linear_364_2432" x1="407.5" y1="0" x2="407.5" y2="32" gradientUnits="userSpaceOnUse">
<stop offset="0.466956" stop-color="#EAF8FF"/>
<stop offset="1" stop-color="#AEDEF4"/>
</linearGradient>
</defs>
</svg>
