<svg width="814" height="56" viewBox="0 0 814 56" fill="none" xmlns="http://www.w3.org/2000/svg">
<g opacity="0.5" filter="url(#filter0_f_321_2148)">
<rect x="20" y="20" width="774" height="16" fill="url(#paint0_linear_321_2148)"/>
</g>
<path d="M343.698 36H469.305" stroke="url(#paint1_linear_321_2148)" stroke-width="2"/>
<g filter="url(#filter1_f_321_2148)">
<path d="M232.047 36H581.953" stroke="url(#paint2_linear_321_2148)" stroke-width="2"/>
</g>
<path d="M84.5078 36L729.492 36.0001" stroke="url(#paint3_linear_321_2148)" stroke-width="2"/>
<path d="M246.948 23.508H236.616V20.764H246.948V17.432H240.648H237.848H236.644L239.164 9.984H236.616V7.24H240.088L240.536 5.868H244.54L244.092 7.24H261.116V9.984H243.168L241.572 14.716H242.384H246.948V11.944H250.784V14.716H260.332V17.432H250.784V20.764H261.116V23.508H250.784V25.944H246.948V23.508ZM266.294 26.028V23.732L262.318 24.236V21.828L266.294 21.296V18.328H265.146H263.466H262.29L263.382 9.564H262.514V7.128H263.69L263.83 5.812H266.686L266.518 7.128H271.586V9.564H266.21L265.426 15.92H266.294V10.348H269.458V15.92H271.558V18.328H269.458V20.876L271.81 20.568V23.004L269.458 23.312V26.028H266.294ZM286.986 23.396C286.986 23.7693 286.911 24.1147 286.762 24.432C286.631 24.7493 286.444 25.0293 286.202 25.272C285.978 25.496 285.698 25.6827 285.362 25.832C285.044 25.9627 284.708 26.028 284.354 26.028H281.834L282.87 24.124H283.374C283.635 24.124 283.784 23.9933 283.822 23.732H282.142L281.722 18.776L281.358 23.732H279.874H279.51H278.054L277.634 18.776L277.27 23.732H275.506V26.028H272.342V10.488H273.098H275.506H276.402L276.57 8.22H272.342V5.812H286.93V8.22H282.506L282.338 10.488H283.822H286.986V12.924V23.396ZM278.25 10.488H280.49L280.658 8.22H278.418L278.25 10.488ZM275.506 22.528L276.206 12.924H275.506V22.528ZM280.294 12.924H278.082L277.858 15.92H279.23L279.678 21.408L280.294 12.924ZM283.318 15.92L283.822 21.996V12.924H282.17L281.946 15.92H283.318ZM290.904 25.972C290.157 25.972 289.522 25.7107 289 25.188C288.477 24.6653 288.216 24.0307 288.216 23.284V8.584V6.148V5.868H312.576V8.584H292.22V22.612C292.22 22.7987 292.276 22.9573 292.388 23.088C292.518 23.2 292.668 23.256 292.836 23.256H312.576L311.596 25.972H290.904ZM293.424 19.14C294.525 18.916 295.533 18.664 296.448 18.384C297.381 18.104 298.258 17.7773 299.08 17.404C298.016 16.396 297.054 15.2573 296.196 13.988C295.337 12.7187 294.516 11.2813 293.732 9.676H297.848C298.613 10.8893 299.36 11.9533 300.088 12.868C300.834 13.7827 301.628 14.5853 302.468 15.276C303.289 14.5853 304.073 13.7827 304.82 12.868C305.566 11.9533 306.322 10.8893 307.088 9.676H311.204C310.42 11.2813 309.589 12.7187 308.712 13.988C307.853 15.2573 306.892 16.396 305.828 17.404C306.649 17.7773 307.526 18.104 308.46 18.384C309.393 18.664 310.41 18.916 311.512 19.14V22.528C309.645 22.2853 307.974 21.94 306.5 21.492C305.025 21.044 303.681 20.4933 302.468 19.84C301.254 20.4933 299.91 21.044 298.436 21.492C296.961 21.94 295.29 22.2853 293.424 22.528V19.14ZM333.797 10.264L335.029 14.968L335.701 13.484H338.501L336.037 18.916L337.885 26H334.133L333.657 24.152L332.957 25.692H330.129L330.801 24.236H321.981V22.276H330.857V24.124L332.649 20.204L330.577 12.224V13.96V18.86C330.577 19.4573 330.363 19.9707 329.933 20.4C329.523 20.8107 329.019 21.016 328.421 21.016H322.513V20.708V13.96V11.72H325.705H327.385H330.437L330.073 10.264H321.981V7.856H329.457L328.925 5.812H332.649L333.181 7.856H334.945L334.469 5.924H337.465L338.501 10.264H337.269H335.505H333.797ZM327.665 13.96H325.453V18.748H326.993C327.18 18.748 327.339 18.6827 327.469 18.552C327.6 18.4213 327.665 18.2627 327.665 18.076V13.96ZM315.709 23.228V12.252H313.777V9.48H315.709V5.812H319.573V9.48H321.505V12.252H319.573V23.228H321.505V26H313.777V23.228H315.709ZM341.551 25.86L345.443 16.816H342.083V13.96H363.783V23.48C363.783 24.1707 363.541 24.7587 363.055 25.244C362.57 25.7107 361.982 25.944 361.291 25.944H355.103L356.027 23.368H359.415C359.602 23.368 359.751 23.3027 359.863 23.172C359.994 23.06 360.059 22.9107 360.059 22.724V16.816H349.587L345.667 25.86H341.551ZM361.375 5.896L365.239 12.672H361.095L357.231 5.896H361.375ZM344.659 5.896L340.823 12.672H344.939L348.803 5.896H344.659ZM371.707 10.124H367.619V7.38H373.555L374.619 5.784H378.399L377.335 7.38H392.203V10.124H375.487L373.779 12.672H378.511V11.496H381.983V12.672H385.819H388.619C389.198 12.672 389.683 12.8773 390.075 13.288C390.486 13.68 390.691 14.1747 390.691 14.772V23.144C390.691 23.7413 390.486 24.2453 390.075 24.656C389.683 25.048 389.198 25.244 388.619 25.244H384.447L385.259 22.5H386.631C386.799 22.5 386.939 22.444 387.051 22.332C387.163 22.22 387.219 22.08 387.219 21.912V16.004C387.219 15.836 387.163 15.696 387.051 15.584C386.939 15.472 386.799 15.416 386.631 15.416H385.819H381.983V26.028H378.511V15.416H373.863V25.244H370.391V16.2H367.647L371.707 10.124ZM393.573 11.664L404.437 11.048V5.84H408.469V10.824L417.737 10.32V13.008L393.573 14.352V11.664ZM417.485 23.368C417.485 23.7413 417.41 24.0867 417.261 24.404C417.13 24.7213 416.944 25.0013 416.701 25.244C416.477 25.468 416.197 25.6547 415.861 25.804C415.544 25.9347 415.208 26 414.853 26H394.329V14.716H417.485V23.368ZM413.929 19.98H398.193V20.848H413.929V19.98ZM398.193 16.872V17.852H413.929V16.872H398.193ZM413.481 23.872C413.78 23.872 413.929 23.7227 413.929 23.424V22.976H398.193V23.872H413.481ZM399.733 5.812L398.921 10.768H394.917L395.701 5.812H399.733ZM417.289 9.844H413.565L413.089 5.812H416.813L417.289 9.844ZM430.643 5.868L426.807 12.392H430.895L434.787 5.896V5.868H430.643ZM441.059 5.868L444.895 12.392H440.751L436.887 5.896V5.868H441.059ZM422.551 13.4H420.171L423.279 5.784H427.087L425.155 10.516H426.163V26.056H422.551V13.4ZM427.675 26.056L431.371 16.648H427.675V13.848H443.971V22.948C443.971 23.3773 443.887 23.7787 443.719 24.152C443.588 24.5253 443.374 24.8613 443.075 25.16C442.814 25.4213 442.478 25.6453 442.067 25.832C441.675 25.9813 441.274 26.056 440.863 26.056H435.039L436.299 23.284H439.155C439.398 23.284 439.612 23.1907 439.799 23.004C439.967 22.8733 440.051 22.6773 440.051 22.416V16.648H435.431L431.763 26.056H427.675ZM460.911 9.816L460.659 10.488H467.407C467.836 10.488 468.238 10.572 468.611 10.74C468.984 10.8893 469.311 11.104 469.591 11.384C469.871 11.664 470.086 11.9907 470.235 12.364C470.403 12.7373 470.487 13.1387 470.487 13.568V23.256H471.719V26.028H447.135V23.256H448.367V10.488H456.599L456.851 9.816H447.135V7.044H457.859L458.307 5.784H462.367L461.919 7.044H471.719V9.816H460.911ZM466.595 19.42H452.259V20.344H466.595V19.42ZM466.595 16.34H452.259V17.264H466.595V16.34ZM466.595 23.256V22.5H452.259V23.256H466.595ZM466.595 14.128C466.595 13.8853 466.511 13.68 466.343 13.512C466.175 13.344 465.97 13.26 465.727 13.26H452.259V14.184H466.595V14.128ZM483.757 7.1H488.797L488.265 5.812H491.737L492.269 7.1H495.741C496.226 7.1 496.637 7.27733 496.973 7.632C497.327 7.98667 497.505 8.40667 497.505 8.892V10.572H494.089V9.648C494.089 9.46133 494.023 9.312 493.893 9.2C493.781 9.06933 493.631 9.004 493.445 9.004H487.173V10.572H483.757V7.1ZM492.185 13.26V14.212H497.505V16.172H492.185V17.124H497.505V19.084H492.185V19.952H497.505V20.792V21.968V23.76C497.505 24.3947 497.281 24.9267 496.833 25.356C496.403 25.7853 495.871 26 495.237 26H494.313H487.369H485.325H483.757V21.968V19.952H487.369H489.105V19.084H483.757V17.124H489.105V16.172H483.757V14.212H489.105V13.26H483.757V11.272H489.105V9.928H492.185V11.272H497.505V13.26H492.185ZM493.949 21.968H487.369V23.984H493.305C493.491 23.984 493.641 23.928 493.753 23.816C493.883 23.6853 493.949 23.5267 493.949 23.34V21.968ZM477.401 7.548H483.197V9.48H477.149L476.281 15.416H477.401V11.468H480.565V15.416H483.197V17.74H480.565V20.204H483.197V22.5H480.565V26.028H477.401V22.5H472.865V20.204H477.401V17.74H475.945H472.865L474.041 9.48H472.865V7.548H474.321L474.573 5.784H474.657H477.653L477.401 7.548ZM512.343 10.628V13.176H519.315H520.155C520.509 13.176 520.845 13.2507 521.163 13.4C521.499 13.5307 521.779 13.7173 522.003 13.96C522.245 14.184 522.432 14.464 522.563 14.8C522.712 15.1173 522.787 15.4533 522.787 15.808V22.192V22.836C522.787 23.4147 522.581 23.9093 522.171 24.32C521.779 24.7307 521.293 24.936 520.715 24.936H516.683L517.943 22.192H518.727C518.895 22.192 519.035 22.136 519.147 22.024C519.259 21.8933 519.315 21.7533 519.315 21.604V16.788C519.315 16.5267 519.231 16.312 519.063 16.144C518.895 15.976 518.689 15.892 518.447 15.892H512.343V26H508.871V15.892H502.963V24.936H499.491V13.176H502.515H502.963H508.871V10.628H498.959V7.884H508.843L508.199 5.812H511.671L512.315 7.884H522.927V10.628H512.343ZM526.34 25.86L530.232 16.816H526.872V13.96H548.572V23.48C548.572 24.1707 548.33 24.7587 547.844 25.244C547.359 25.7107 546.771 25.944 546.08 25.944H539.892L540.816 23.368H544.204C544.391 23.368 544.54 23.3027 544.652 23.172C544.783 23.06 544.848 22.9107 544.848 22.724V16.816H534.376L530.456 25.86H526.34ZM546.164 5.896L550.028 12.672H545.884L542.02 5.896H546.164ZM529.448 5.896L525.612 12.672H529.728L533.592 5.896H529.448ZM556.496 10.124H552.408V7.38H558.344L559.408 5.784H563.188L562.124 7.38H576.992V10.124H560.276L558.568 12.672H563.3V11.496H566.772V12.672H570.608H573.408C573.987 12.672 574.472 12.8773 574.864 13.288C575.275 13.68 575.48 14.1747 575.48 14.772V23.144C575.48 23.7413 575.275 24.2453 574.864 24.656C574.472 25.048 573.987 25.244 573.408 25.244H569.236L570.048 22.5H571.42C571.588 22.5 571.728 22.444 571.84 22.332C571.952 22.22 572.008 22.08 572.008 21.912V16.004C572.008 15.836 571.952 15.696 571.84 15.584C571.728 15.472 571.588 15.416 571.42 15.416H570.608H566.772V26.028H563.3V15.416H558.652V25.244H555.18V16.2H552.436L556.496 10.124Z" fill="url(#paint4_linear_321_2148)"/>
<defs>
<filter id="filter0_f_321_2148" x="0" y="0" width="814" height="56" filterUnits="userSpaceOnUse" color-interpolation-filters="sRGB">
<feFlood flood-opacity="0" result="BackgroundImageFix"/>
<feBlend mode="normal" in="SourceGraphic" in2="BackgroundImageFix" result="shape"/>
<feGaussianBlur stdDeviation="10" result="effect1_foregroundBlur_321_2148"/>
</filter>
<filter id="filter1_f_321_2148" x="228.047" y="31" width="357.907" height="10" filterUnits="userSpaceOnUse" color-interpolation-filters="sRGB">
<feFlood flood-opacity="0" result="BackgroundImageFix"/>
<feBlend mode="normal" in="SourceGraphic" in2="BackgroundImageFix" result="shape"/>
<feGaussianBlur stdDeviation="2" result="effect1_foregroundBlur_321_2148"/>
</filter>
<linearGradient id="paint0_linear_321_2148" x1="20" y1="28.2578" x2="794" y2="28.2579" gradientUnits="userSpaceOnUse">
<stop stop-color="#4EABD0" stop-opacity="0"/>
<stop offset="0.502765" stop-color="#4EABD0"/>
<stop offset="1" stop-color="#4EABD0" stop-opacity="0"/>
</linearGradient>
<linearGradient id="paint1_linear_321_2148" x1="343.698" y1="36" x2="469.305" y2="36" gradientUnits="userSpaceOnUse">
<stop stop-color="white" stop-opacity="0"/>
<stop offset="0.513267" stop-color="#C5EAFF"/>
<stop offset="1" stop-color="white" stop-opacity="0"/>
</linearGradient>
<linearGradient id="paint2_linear_321_2148" x1="232.047" y1="36" x2="582.962" y2="36" gradientUnits="userSpaceOnUse">
<stop stop-color="#9ADEF9" stop-opacity="0"/>
<stop offset="0.507734" stop-color="#BEEDFF"/>
<stop offset="1" stop-color="#9ADEF9" stop-opacity="0"/>
</linearGradient>
<linearGradient id="paint3_linear_321_2148" x1="84.6794" y1="36" x2="737.202" y2="22.8471" gradientUnits="userSpaceOnUse">
<stop stop-color="#4EABD0" stop-opacity="0"/>
<stop offset="0.260417" stop-color="#4EABD0"/>
<stop offset="0.4899" stop-color="white"/>
<stop offset="0.723958" stop-color="#4EABD0"/>
<stop offset="1" stop-color="#4EABD0" stop-opacity="0"/>
</linearGradient>
<linearGradient id="paint4_linear_321_2148" x1="407" y1="0" x2="407" y2="32" gradientUnits="userSpaceOnUse">
<stop offset="0.466956" stop-color="#EAF8FF"/>
<stop offset="1" stop-color="#AEDEF4"/>
</linearGradient>
</defs>
</svg>
