<svg width="96" height="111" viewBox="0 0 96 111" fill="none" xmlns="http://www.w3.org/2000/svg">
<g filter="url(#filter0_f_321_1843)">
<ellipse cx="48.1077" cy="65.1851" rx="12.1594" ry="13.0948" fill="#53B7FF" fill-opacity="0.3"/>
</g>
<g filter="url(#filter1_f_321_1843)">
<ellipse cx="48.1074" cy="65.1851" rx="11.2241" ry="12.1594" fill="#53B7FF" fill-opacity="0.4"/>
</g>
<g filter="url(#filter2_d_321_1843)">
<g filter="url(#filter3_f_321_1843)">
<path d="M32.8479 72.3163C32.1258 72 32.0456 71.0075 32.7075 70.5793L46.7654 61.485C47.4195 61.0619 48.261 61.0619 48.9151 61.485L62.973 70.5793C63.6349 71.0075 63.5547 72 62.8326 72.3163L49.031 78.361C48.272 78.6934 47.4085 78.6934 46.6495 78.361L32.8479 72.3163Z" fill="#0A6BDD"/>
</g>
<g filter="url(#filter4_di_321_1843)">
<path d="M21.8049 61.7759C21.0713 61.4 21.0921 60.3444 21.84 59.9977L47.2275 48.2287C47.7553 47.984 48.3641 47.984 48.8919 48.2287L74.2794 59.9977C75.0273 60.3444 75.0481 61.4 74.3144 61.7759L49.8643 74.3027C48.7312 74.8832 47.3881 74.8832 46.2551 74.3027L21.8049 61.7759Z" fill="url(#paint0_radial_321_1843)" shape-rendering="crispEdges"/>
<path d="M22.0329 61.3309C21.67 61.145 21.6803 60.6228 22.0503 60.4513L47.4377 48.6823C47.8322 48.4995 48.2872 48.4995 48.6816 48.6823L74.0691 60.4513C74.4391 60.6228 74.4493 61.1449 74.0865 61.3309L49.6363 73.8577C48.6464 74.3648 47.473 74.3648 46.4831 73.8577L22.0329 61.3309Z" stroke="url(#paint1_linear_321_1843)" shape-rendering="crispEdges"/>
</g>
<g filter="url(#filter5_di_321_1843)">
<path d="M21.8049 55.7345C21.0713 55.3586 21.0921 54.303 21.84 53.9563L47.2275 42.1873C47.7553 41.9426 48.3641 41.9426 48.8919 42.1873L74.2794 53.9563C75.0273 54.303 75.0481 55.3586 74.3145 55.7345L49.8643 68.2613C48.7312 68.8418 47.3882 68.8418 46.2551 68.2613L21.8049 55.7345Z" fill="url(#paint2_radial_321_1843)" fill-opacity="0.2" shape-rendering="crispEdges"/>
<path d="M22.0329 55.2895C21.67 55.1036 21.6803 54.5814 22.0503 54.4099L47.4378 42.6409C47.8322 42.4581 48.2872 42.4581 48.6816 42.6409L74.0691 54.4099C74.4391 54.5814 74.4494 55.1036 74.0865 55.2895L49.6363 67.8163C48.6464 68.3235 47.473 68.3235 46.4831 67.8163L22.0329 55.2895Z" stroke="url(#paint3_linear_321_1843)" shape-rendering="crispEdges"/>
</g>
<path opacity="0.5" d="M22.0329 48.7403C21.67 48.5544 21.6803 48.0322 22.0503 47.8607L47.4377 36.0918C47.8322 35.9089 48.2872 35.9089 48.6816 36.0918L74.0691 47.8607C74.4391 48.0322 74.4493 48.5544 74.0865 48.7403L49.6363 61.2671C48.6464 61.7743 47.473 61.7743 46.4831 61.2671L22.0329 48.7403Z" stroke="url(#paint4_linear_321_1843)"/>
<path d="M22.2803 67.7647L47.648 56.0049C47.9091 55.8838 48.2103 55.8838 48.4714 56.0049L73.8391 67.7647L49.4083 80.2816C48.5616 80.7154 47.5578 80.7154 46.7111 80.2816L22.2803 67.7647Z" stroke="url(#paint5_linear_321_1843)" stroke-width="2"/>
<path d="M75.1646 16.5455L75.1846 54.1632C75.1846 54.5326 74.9046 54.902 74.3647 55.1835L49.9694 67.567C48.8696 68.1299 47.1099 68.1299 46.0101 67.567L21.7747 55.1835C21.2348 54.902 20.9549 54.5502 20.9549 54.1808L20.9349 16.5631C20.9349 18.3346 75.1646 18.3916 75.1646 16.5455Z" fill="url(#paint6_linear_321_1843)" fill-opacity="0.3"/>
<path d="M51.0432 34.3991L35.041 24.4617L34.8793 38.7352C34.878 38.8539 34.9408 38.9641 35.0436 39.0236L50.645 48.0399C50.8465 48.1563 51.0945 48.1576 51.2971 48.0432L60.9011 42.6214C61.003 42.5638 61.0667 42.4564 61.0682 42.3393L61.2438 28.6394L51.0432 34.3991Z" fill="url(#paint7_linear_321_1843)"/>
<path d="M35.1545 24.9634C34.8708 24.7915 34.8876 24.3744 35.1843 24.226L45.0244 19.3041C45.1512 19.2407 45.3015 19.2453 45.4242 19.3163L61.171 28.4373C61.456 28.6024 61.45 29.0159 61.1604 29.1727L51.3082 34.5073C51.1766 34.5785 51.0171 34.5746 50.8891 34.4971L35.1545 24.9634Z" fill="url(#paint8_linear_321_1843)"/>
<path d="M36.9282 38.0877V27.692L48.8619 35.0888L48.8619 45.3307L36.9282 38.0877Z" fill="#2397DE"/>
<path d="M39.396 31.8131L46.3966 36.3982V39.7085L39.396 35.2288L39.396 31.8131Z" fill="#7ABFFB"/>
<path fill-rule="evenodd" clip-rule="evenodd" d="M46.3953 36.3985L42.895 34.106L42.895 37.469L46.3953 39.7088V36.3985Z" fill="#00FF47"/>
<path fill-rule="evenodd" clip-rule="evenodd" d="M40.4591 37.2404L39.6274 36.6957L39.6274 37.4948L40.4591 38.027V37.2404Z" fill="#60ECFF"/>
<path fill-rule="evenodd" clip-rule="evenodd" d="M41.8986 38.1552L41.0669 37.6105L41.0669 38.4095L41.8986 38.9417V38.1552Z" fill="#60ECFF"/>
<path fill-rule="evenodd" clip-rule="evenodd" d="M43.2795 39.0225L42.4478 38.4778L42.4478 39.2769L43.2795 39.8091V39.0225Z" fill="#60ECFF"/>
<path fill-rule="evenodd" clip-rule="evenodd" d="M44.7355 40.0148L43.9038 39.4701L43.9038 40.2692L44.7355 40.8014V40.0148Z" fill="#60ECFF"/>
<path fill-rule="evenodd" clip-rule="evenodd" d="M46.1613 40.9142L45.3296 40.3695L45.3296 41.1686L46.1613 41.7008V40.9142Z" fill="#60ECFF"/>
<path d="M36.9282 27.6959L37.2962 27.9381V37.8709L36.9282 38.076V27.6959Z" fill="#0086C9"/>
<path d="M36.9214 38.0824L37.2882 37.8796L48.863 44.7916V45.3321L36.9214 38.0824Z" fill="#46AFDB"/>
</g>
<g opacity="0.7">
<g filter="url(#filter6_f_321_1843)">
<circle cx="40.8232" cy="11.1338" r="1.1338" fill="#BAE7FF"/>
</g>
<circle cx="40.8232" cy="11.1338" r="1.1338" fill="#BAE7FF"/>
</g>
<g filter="url(#filter7_f_321_1843)">
<circle cx="29.9688" cy="38.3442" r="1.1338" fill="#BAE7FF"/>
</g>
<circle cx="29.9688" cy="38.3442" r="1.1338" fill="#BAE7FF"/>
<g filter="url(#filter8_f_321_1843)">
<circle cx="63.2715" cy="27.9699" r="1.1338" fill="#BAE7FF"/>
</g>
<circle cx="63.271" cy="27.9695" r="0.566898" fill="#BAE7FF"/>
<g filter="url(#filter9_f_321_1843)">
<circle cx="63.2715" cy="57.9011" r="1.1338" fill="#BAE7FF"/>
</g>
<circle cx="63.272" cy="57.9015" r="0.566898" fill="#BAE7FF"/>
<g filter="url(#filter10_f_321_1843)">
<circle cx="76.3662" cy="66.3193" r="1.1338" fill="#BAE7FF"/>
</g>
<circle cx="76.9028" cy="65.7524" r="0.566898" fill="#BAE7FF"/>
<g filter="url(#filter11_f_321_1843)">
<circle cx="14.6338" cy="55.0947" r="1.1338" fill="#BAE7FF"/>
</g>
<circle cx="14.6333" cy="55.0951" r="0.566898" fill="#BAE7FF"/>
<defs>
<filter id="filter0_f_321_1843" x="5.94824" y="22.0903" width="84.3188" height="86.1895" filterUnits="userSpaceOnUse" color-interpolation-filters="sRGB">
<feFlood flood-opacity="0" result="BackgroundImageFix"/>
<feBlend mode="normal" in="SourceGraphic" in2="BackgroundImageFix" result="shape"/>
<feGaussianBlur stdDeviation="15" result="effect1_foregroundBlur_321_1843"/>
</filter>
<filter id="filter1_f_321_1843" x="6.8833" y="23.0256" width="82.4482" height="84.3188" filterUnits="userSpaceOnUse" color-interpolation-filters="sRGB">
<feFlood flood-opacity="0" result="BackgroundImageFix"/>
<feBlend mode="normal" in="SourceGraphic" in2="BackgroundImageFix" result="shape"/>
<feGaussianBlur stdDeviation="15" result="effect1_foregroundBlur_321_1843"/>
</filter>
<filter id="filter2_d_321_1843" x="16.9351" y="16.5455" width="62.2495" height="73.0614" filterUnits="userSpaceOnUse" color-interpolation-filters="sRGB">
<feFlood flood-opacity="0" result="BackgroundImageFix"/>
<feColorMatrix in="SourceAlpha" type="matrix" values="0 0 0 0 0 0 0 0 0 0 0 0 0 0 0 0 0 0 127 0" result="hardAlpha"/>
<feOffset dy="4"/>
<feGaussianBlur stdDeviation="2"/>
<feComposite in2="hardAlpha" operator="out"/>
<feColorMatrix type="matrix" values="0 0 0 0 0 0 0 0 0 0 0 0 0 0 0 0 0 0 0.25 0"/>
<feBlend mode="normal" in2="BackgroundImageFix" result="effect1_dropShadow_321_1843"/>
<feBlend mode="normal" in="SourceGraphic" in2="effect1_dropShadow_321_1843" result="shape"/>
</filter>
<filter id="filter3_f_321_1843" x="0.59482" y="29.5071" width="94.491" height="80.7637" filterUnits="userSpaceOnUse" color-interpolation-filters="sRGB">
<feFlood flood-opacity="0" result="BackgroundImageFix"/>
<feBlend mode="normal" in="SourceGraphic" in2="BackgroundImageFix" result="shape"/>
<feGaussianBlur stdDeviation="15.8303" result="effect1_foregroundBlur_321_1843"/>
</filter>
<filter id="filter4_di_321_1843" x="15.3302" y="44.0876" width="65.4586" height="38.5656" filterUnits="userSpaceOnUse" color-interpolation-filters="sRGB">
<feFlood flood-opacity="0" result="BackgroundImageFix"/>
<feColorMatrix in="SourceAlpha" type="matrix" values="0 0 0 0 0 0 0 0 0 0 0 0 0 0 0 0 0 0 127 0" result="hardAlpha"/>
<feOffset dy="1.97878"/>
<feGaussianBlur stdDeviation="2.96818"/>
<feComposite in2="hardAlpha" operator="out"/>
<feColorMatrix type="matrix" values="0 0 0 0 0.0178646 0 0 0 0 0.12592 0 0 0 0 0.204167 0 0 0 0.1 0"/>
<feBlend mode="normal" in2="BackgroundImageFix" result="effect1_dropShadow_321_1843"/>
<feBlend mode="normal" in="SourceGraphic" in2="effect1_dropShadow_321_1843" result="shape"/>
<feColorMatrix in="SourceAlpha" type="matrix" values="0 0 0 0 0 0 0 0 0 0 0 0 0 0 0 0 0 0 127 0" result="hardAlpha"/>
<feOffset dy="-1.97878"/>
<feGaussianBlur stdDeviation="2.96818"/>
<feComposite in2="hardAlpha" operator="arithmetic" k2="-1" k3="1"/>
<feColorMatrix type="matrix" values="0 0 0 0 0.383333 0 0 0 0 0.68172 0 0 0 0 1 0 0 0 0.2 0"/>
<feBlend mode="normal" in2="shape" result="effect2_innerShadow_321_1843"/>
</filter>
<filter id="filter5_di_321_1843" x="15.3302" y="38.0462" width="65.4586" height="38.5656" filterUnits="userSpaceOnUse" color-interpolation-filters="sRGB">
<feFlood flood-opacity="0" result="BackgroundImageFix"/>
<feColorMatrix in="SourceAlpha" type="matrix" values="0 0 0 0 0 0 0 0 0 0 0 0 0 0 0 0 0 0 127 0" result="hardAlpha"/>
<feOffset dy="1.97878"/>
<feGaussianBlur stdDeviation="2.96818"/>
<feComposite in2="hardAlpha" operator="out"/>
<feColorMatrix type="matrix" values="0 0 0 0 0.0178646 0 0 0 0 0.12592 0 0 0 0 0.204167 0 0 0 0.1 0"/>
<feBlend mode="normal" in2="BackgroundImageFix" result="effect1_dropShadow_321_1843"/>
<feBlend mode="normal" in="SourceGraphic" in2="effect1_dropShadow_321_1843" result="shape"/>
<feColorMatrix in="SourceAlpha" type="matrix" values="0 0 0 0 0 0 0 0 0 0 0 0 0 0 0 0 0 0 127 0" result="hardAlpha"/>
<feOffset dy="-1.97878"/>
<feGaussianBlur stdDeviation="2.96818"/>
<feComposite in2="hardAlpha" operator="arithmetic" k2="-1" k3="1"/>
<feColorMatrix type="matrix" values="0 0 0 0 0.383333 0 0 0 0 0.68172 0 0 0 0 1 0 0 0 0.2 0"/>
<feBlend mode="normal" in2="shape" result="effect2_innerShadow_321_1843"/>
</filter>
<filter id="filter6_f_321_1843" x="30.2663" y="0.576888" width="21.1138" height="21.1138" filterUnits="userSpaceOnUse" color-interpolation-filters="sRGB">
<feFlood flood-opacity="0" result="BackgroundImageFix"/>
<feBlend mode="normal" in="SourceGraphic" in2="BackgroundImageFix" result="shape"/>
<feGaussianBlur stdDeviation="4.71156" result="effect1_foregroundBlur_321_1843"/>
</filter>
<filter id="filter7_f_321_1843" x="19.4118" y="27.7873" width="21.1138" height="21.1138" filterUnits="userSpaceOnUse" color-interpolation-filters="sRGB">
<feFlood flood-opacity="0" result="BackgroundImageFix"/>
<feBlend mode="normal" in="SourceGraphic" in2="BackgroundImageFix" result="shape"/>
<feGaussianBlur stdDeviation="4.71156" result="effect1_foregroundBlur_321_1843"/>
</filter>
<filter id="filter8_f_321_1843" x="55.8556" y="20.554" width="14.8317" height="14.8317" filterUnits="userSpaceOnUse" color-interpolation-filters="sRGB">
<feFlood flood-opacity="0" result="BackgroundImageFix"/>
<feBlend mode="normal" in="SourceGraphic" in2="BackgroundImageFix" result="shape"/>
<feGaussianBlur stdDeviation="3.14104" result="effect1_foregroundBlur_321_1843"/>
</filter>
<filter id="filter9_f_321_1843" x="55.8556" y="50.4853" width="14.8317" height="14.8317" filterUnits="userSpaceOnUse" color-interpolation-filters="sRGB">
<feFlood flood-opacity="0" result="BackgroundImageFix"/>
<feBlend mode="normal" in="SourceGraphic" in2="BackgroundImageFix" result="shape"/>
<feGaussianBlur stdDeviation="3.14104" result="effect1_foregroundBlur_321_1843"/>
</filter>
<filter id="filter10_f_321_1843" x="68.9503" y="58.9035" width="14.8317" height="14.8317" filterUnits="userSpaceOnUse" color-interpolation-filters="sRGB">
<feFlood flood-opacity="0" result="BackgroundImageFix"/>
<feBlend mode="normal" in="SourceGraphic" in2="BackgroundImageFix" result="shape"/>
<feGaussianBlur stdDeviation="3.14104" result="effect1_foregroundBlur_321_1843"/>
</filter>
<filter id="filter11_f_321_1843" x="7.21793" y="47.6789" width="14.8317" height="14.8317" filterUnits="userSpaceOnUse" color-interpolation-filters="sRGB">
<feFlood flood-opacity="0" result="BackgroundImageFix"/>
<feBlend mode="normal" in="SourceGraphic" in2="BackgroundImageFix" result="shape"/>
<feGaussianBlur stdDeviation="3.14104" result="effect1_foregroundBlur_321_1843"/>
</filter>
<radialGradient id="paint0_radial_321_1843" cx="0" cy="0" r="1" gradientUnits="userSpaceOnUse" gradientTransform="translate(48.0514 75.2105) rotate(-90) scale(27.3677 158.903)">
<stop stop-color="#007CFF"/>
<stop offset="0.584565" stop-color="#007CFF" stop-opacity="0.5"/>
<stop offset="1" stop-color="#007CFF" stop-opacity="0.2"/>
</radialGradient>
<linearGradient id="paint1_linear_321_1843" x1="48.0514" y1="75.2105" x2="48.0514" y2="51.2639" gradientUnits="userSpaceOnUse">
<stop stop-color="#00FFFF"/>
<stop offset="0.356732" stop-color="#00FFFF" stop-opacity="0.3"/>
<stop offset="0.496982" stop-color="#00FFFF" stop-opacity="0"/>
</linearGradient>
<radialGradient id="paint2_radial_321_1843" cx="0" cy="0" r="1" gradientUnits="userSpaceOnUse" gradientTransform="translate(48.0514 69.1692) rotate(-90) scale(27.3677 158.903)">
<stop stop-color="#007CFF"/>
<stop offset="0.584565" stop-color="#007CFF" stop-opacity="0.5"/>
<stop offset="1" stop-color="#007CFF" stop-opacity="0.2"/>
</radialGradient>
<linearGradient id="paint3_linear_321_1843" x1="48.0514" y1="69.1692" x2="48.0514" y2="45.2225" gradientUnits="userSpaceOnUse">
<stop stop-color="#00FFFF"/>
<stop offset="0.356732" stop-color="#00FFFF" stop-opacity="0.3"/>
<stop offset="0.496982" stop-color="#00FFFF" stop-opacity="0"/>
</linearGradient>
<linearGradient id="paint4_linear_321_1843" x1="48.0514" y1="62.62" x2="48.0514" y2="38.6733" gradientUnits="userSpaceOnUse">
<stop stop-color="#00FFFF"/>
<stop offset="0.356732" stop-color="#00FFFF" stop-opacity="0.3"/>
<stop offset="0.899806" stop-color="#00FFFF" stop-opacity="0"/>
</linearGradient>
<linearGradient id="paint5_linear_321_1843" x1="48.0514" y1="82.0794" x2="48.4247" y2="55.5749" gradientUnits="userSpaceOnUse">
<stop stop-color="#4ABEFF"/>
<stop offset="0.230969" stop-color="#8BD5FF" stop-opacity="0.3"/>
<stop offset="0.403068" stop-color="#6AC9FF" stop-opacity="0"/>
</linearGradient>
<linearGradient id="paint6_linear_321_1843" x1="45.0145" y1="67.9893" x2="45.0145" y2="17.0273" gradientUnits="userSpaceOnUse">
<stop stop-color="#00D1FF"/>
<stop offset="0.624905" stop-color="#54E0FF" stop-opacity="0"/>
</linearGradient>
<linearGradient id="paint7_linear_321_1843" x1="34.7074" y1="38.5191" x2="64.9513" y2="38.6701" gradientUnits="userSpaceOnUse">
<stop offset="0.184309" stop-color="#33B5E8"/>
<stop offset="0.53361" stop-color="#3DD0FF"/>
<stop offset="0.56866" stop-color="#31AEE2"/>
</linearGradient>
<linearGradient id="paint8_linear_321_1843" x1="58.8643" y1="48.3763" x2="67.2775" y2="23.1462" gradientUnits="userSpaceOnUse">
<stop stop-color="#60ECFF"/>
<stop offset="1" stop-color="#20AFFF"/>
</linearGradient>
</defs>
</svg>
