<svg width="32" height="30" viewBox="0 0 32 30" fill="none" xmlns="http://www.w3.org/2000/svg">
<g filter="url(#filter0_di_321_1159)">
<path d="M29.3333 16V26C29.3333 26.7364 28.7364 27.3334 28 27.3334H26.6667C25.9303 27.3334 25.3333 26.7364 25.3333 26V24.6667H6.66667V26C6.66667 26.7364 6.06971 27.3334 5.33333 27.3334H4C3.26363 27.3334 2.66667 26.7364 2.66667 26V16L1.00995 15.5859C0.416396 15.4375 0 14.9042 0 14.2923V13.3334C0 12.9652 0.298477 12.6667 0.666667 12.6667H3.16667L6.01779 5.06371C6.40809 4.02291 7.40308 3.33337 8.51467 3.33337H23.4853C24.5969 3.33337 25.5919 4.02291 25.9823 5.06371L28.8333 12.6667H31.3333C31.7015 12.6667 32 12.9652 32 13.3334V14.2923C32 14.9042 31.5836 15.4375 30.99 15.5859L29.3333 16ZM5.33333 18V20.6667C5.33333 21.4031 5.93029 22 6.66667 22H10.9933C11.1029 22 11.2109 21.973 11.3076 21.9212C11.6322 21.7476 11.7547 21.3438 11.5811 21.0191C10.5048 19.0064 8.42229 18 5.33333 18ZM26.6667 18C23.5777 18 21.4951 19.0064 20.4188 21.0191C20.2452 21.3438 20.3677 21.7476 20.6924 21.9212C20.7891 21.973 20.8971 22 21.0067 22H25.3333C26.0697 22 26.6667 21.4031 26.6667 20.6667V18ZM8 6.00004L5.91832 12.2451C5.873 12.381 5.84991 12.5234 5.84991 12.6667C5.84991 13.4031 6.44685 14 7.18324 14H24.8168C24.9601 14 25.1024 13.977 25.2384 13.9316C25.9369 13.6987 26.3145 12.9436 26.0817 12.2451L24 6.00004H8Z" fill="url(#paint0_linear_321_1159)"/>
</g>
<defs>
<filter id="filter0_di_321_1159" x="-4" y="0.333374" width="40" height="32" filterUnits="userSpaceOnUse" color-interpolation-filters="sRGB">
<feFlood flood-opacity="0" result="BackgroundImageFix"/>
<feColorMatrix in="SourceAlpha" type="matrix" values="0 0 0 0 0 0 0 0 0 0 0 0 0 0 0 0 0 0 127 0" result="hardAlpha"/>
<feOffset dy="1"/>
<feGaussianBlur stdDeviation="2"/>
<feComposite in2="hardAlpha" operator="out"/>
<feColorMatrix type="matrix" values="0 0 0 0 0 0 0 0 0 0.46 0 0 0 0 1 0 0 0 0.2 0"/>
<feBlend mode="normal" in2="BackgroundImageFix" result="effect1_dropShadow_321_1159"/>
<feBlend mode="normal" in="SourceGraphic" in2="effect1_dropShadow_321_1159" result="shape"/>
<feColorMatrix in="SourceAlpha" type="matrix" values="0 0 0 0 0 0 0 0 0 0 0 0 0 0 0 0 0 0 127 0" result="hardAlpha"/>
<feOffset dx="0.1" dy="0.1"/>
<feComposite in2="hardAlpha" operator="arithmetic" k2="-1" k3="1"/>
<feColorMatrix type="matrix" values="0 0 0 0 1 0 0 0 0 1 0 0 0 0 1 0 0 0 0.5 0"/>
<feBlend mode="normal" in2="shape" result="effect2_innerShadow_321_1159"/>
</filter>
<linearGradient id="paint0_linear_321_1159" x1="9.0625" y1="2.73337" x2="15.7101" y2="26.7913" gradientUnits="userSpaceOnUse">
<stop stop-color="#43BBFF"/>
<stop offset="1" stop-color="#0076FF"/>
</linearGradient>
</defs>
</svg>
