<svg width="96" height="111" viewBox="0 0 96 111" fill="none" xmlns="http://www.w3.org/2000/svg">
<g filter="url(#filter0_f_364_2015)">
<ellipse cx="48.1077" cy="65.185" rx="12.1594" ry="13.0948" fill="#53B7FF" fill-opacity="0.3"/>
</g>
<g filter="url(#filter1_f_364_2015)">
<ellipse cx="48.1079" cy="65.185" rx="11.2241" ry="12.1594" fill="#53B7FF" fill-opacity="0.4"/>
</g>
<g filter="url(#filter2_d_364_2015)">
<g filter="url(#filter3_f_364_2015)">
<path d="M32.8948 72.3162C32.1727 71.9999 32.0924 71.0074 32.7543 70.5792L46.8123 61.4849C47.4664 61.0618 48.3079 61.0618 48.9619 61.4849L63.0199 70.5792C63.6818 71.0074 63.6015 71.9999 62.8794 72.3162L49.0779 78.3609C48.3189 78.6933 47.4554 78.6933 46.6963 78.3609L32.8948 72.3162Z" fill="#0A6BDD"/>
</g>
<g filter="url(#filter4_di_364_2015)">
<path d="M21.8513 61.7758C21.1177 61.3999 21.1385 60.3443 21.8864 59.9976L47.2738 48.2286C47.8017 47.9839 48.4105 47.9839 48.9383 48.2286L74.3258 59.9976C75.0737 60.3443 75.0945 61.3999 74.3608 61.7758L49.9106 74.3026C48.7776 74.8831 47.4345 74.8831 46.3015 74.3026L21.8513 61.7758Z" fill="url(#paint0_radial_364_2015)" shape-rendering="crispEdges"/>
<path d="M22.0793 61.3308C21.7164 61.1449 21.7267 60.6227 22.0966 60.4512L47.4841 48.6822C47.8786 48.4994 48.3336 48.4994 48.728 48.6822L74.1155 60.4512C74.4855 60.6227 74.4957 61.1449 74.1328 61.3308L49.6827 73.8576C48.6928 74.3647 47.5194 74.3647 46.5295 73.8576L22.0793 61.3308Z" stroke="url(#paint1_linear_364_2015)" shape-rendering="crispEdges"/>
</g>
<g filter="url(#filter5_di_364_2015)">
<path d="M21.8513 55.7344C21.1177 55.3586 21.1385 54.3029 21.8864 53.9562L47.2738 42.1873C47.8017 41.9426 48.4105 41.9426 48.9383 42.1873L74.3258 53.9562C75.0737 54.3029 75.0945 55.3586 74.3608 55.7344L49.9106 68.2612C48.7776 68.8417 47.4345 68.8417 46.3015 68.2612L21.8513 55.7344Z" fill="url(#paint2_radial_364_2015)" fill-opacity="0.2" shape-rendering="crispEdges"/>
<path d="M22.0793 55.2894C21.7164 55.1035 21.7267 54.5814 22.0966 54.4099L47.4841 42.6409C47.8786 42.458 48.3336 42.458 48.728 42.6409L74.1155 54.4099C74.4855 54.5814 74.4957 55.1035 74.1329 55.2894L49.6827 67.8162C48.6928 68.3234 47.5194 68.3234 46.5295 67.8162L22.0793 55.2894Z" stroke="url(#paint3_linear_364_2015)" shape-rendering="crispEdges"/>
</g>
<path opacity="0.5" d="M22.0793 48.7402C21.7164 48.5543 21.7267 48.0322 22.0966 47.8607L47.4841 36.0917C47.8786 35.9088 48.3336 35.9088 48.728 36.0917L74.1155 47.8607C74.4855 48.0322 74.4957 48.5543 74.1328 48.7402L49.6827 61.267C48.6928 61.7742 47.5194 61.7742 46.5295 61.267L22.0793 48.7402Z" stroke="url(#paint4_linear_364_2015)"/>
<path d="M22.3267 67.7646L47.6944 56.0048C47.9555 55.8837 48.2566 55.8837 48.5177 56.0048L73.8855 67.7646L49.4547 80.2815C48.6079 80.7153 47.6042 80.7153 46.7575 80.2815L22.3267 67.7646Z" stroke="url(#paint5_linear_364_2015)" stroke-width="2"/>
<path d="M75.2105 16.5455L75.2305 54.1632C75.2305 54.5326 74.9505 54.902 74.4106 55.1834L50.0153 67.567C48.9155 68.1299 47.1558 68.1299 46.056 67.567L21.8206 55.1834C21.2807 54.902 21.0008 54.5502 21.0008 54.1808L20.9808 16.5631C20.9808 18.3346 75.2105 18.3915 75.2105 16.5455Z" fill="url(#paint6_linear_364_2015)" fill-opacity="0.3"/>
<path fill-rule="evenodd" clip-rule="evenodd" d="M45.2904 27.0669V25.1344L41.4254 24.4902L40.4099 24.88V22.4644L56.2412 26.2133L56.5633 30.6098L43.68 28.0331L45.2904 27.0669ZM40.4099 36.7294V38.7295L41.9853 37.9975L45.6125 38.984V40.5944L43.3579 41.8827L56.8854 44.7814V40.2723L40.4099 36.7294ZM43.3579 35.119L56.5633 38.0177V33.1058L40.4099 29.6436L41.7475 31.254L45.6125 31.8981V34.1527L43.3579 35.119ZM35.6279 22.5578C35.6279 21.5915 38.7688 19.861 39.4648 20.0089L58.3673 24.0268C59.0633 24.1747 59.6275 24.8715 59.6275 25.583V46.1963C59.6275 46.9078 56.5633 49.2906 55.597 48.6464L39.4648 43.1988C38.7688 43.0509 36.5942 43.2384 36.5942 42.5269L35.6279 22.5578Z" fill="url(#paint7_linear_364_2015)" fill-opacity="0.3"/>
<path fill-rule="evenodd" clip-rule="evenodd" d="M38.0733 28.9823V24.3966L54.6056 27.9106V32.4963L38.0733 28.9823ZM38.0733 38.0006V42.5865L54.6056 46.1005V41.5146L38.0733 38.0006ZM38.0733 36.0681L54.6056 39.5821V34.4288L38.0733 30.9148V36.0681ZM35.6279 22.3768C35.6279 21.8245 36.0659 21.4699 36.6061 21.5847L56.0728 25.7225C56.613 25.8373 57.0509 26.3781 57.0509 26.9304V48.1203C57.0509 48.6726 56.613 49.0272 56.0728 48.9124L36.6061 44.7746C36.0659 44.6598 35.6279 44.119 35.6279 43.5667V22.3768ZM39.4084 25.9165L42.5588 26.5862V28.5187L39.4084 27.849V25.9165ZM39.4084 32.8091L42.5588 33.4787V35.4112L39.4084 34.7416V32.8091ZM42.5588 40.3713L39.4084 39.7017V41.6341L42.5588 42.3038V40.3713Z" fill="url(#paint8_linear_364_2015)"/>
</g>
<g opacity="0.7">
<g filter="url(#filter6_f_364_2015)">
<circle cx="40.8232" cy="11.1338" r="1.1338" fill="#BAE7FF"/>
</g>
<circle cx="40.8232" cy="11.1338" r="1.1338" fill="#BAE7FF"/>
</g>
<g filter="url(#filter7_f_364_2015)">
<circle cx="29.9688" cy="38.3443" r="1.1338" fill="#BAE7FF"/>
</g>
<circle cx="29.9688" cy="38.3443" r="1.1338" fill="#BAE7FF"/>
<g filter="url(#filter8_f_364_2015)">
<circle cx="63.2715" cy="27.9699" r="1.1338" fill="#BAE7FF"/>
</g>
<circle cx="63.271" cy="27.9695" r="0.566898" fill="#BAE7FF"/>
<g filter="url(#filter9_f_364_2015)">
<circle cx="63.2715" cy="57.9011" r="1.1338" fill="#BAE7FF"/>
</g>
<circle cx="63.272" cy="57.9015" r="0.566898" fill="#BAE7FF"/>
<g filter="url(#filter10_f_364_2015)">
<circle cx="76.3662" cy="66.3193" r="1.1338" fill="#BAE7FF"/>
</g>
<circle cx="76.9028" cy="65.7524" r="0.566898" fill="#BAE7FF"/>
<g filter="url(#filter11_f_364_2015)">
<circle cx="14.6338" cy="55.0948" r="1.1338" fill="#BAE7FF"/>
</g>
<circle cx="14.6333" cy="55.0951" r="0.566898" fill="#BAE7FF"/>
<defs>
<filter id="filter0_f_364_2015" x="5.94824" y="22.0903" width="84.3184" height="86.1895" filterUnits="userSpaceOnUse" color-interpolation-filters="sRGB">
<feFlood flood-opacity="0" result="BackgroundImageFix"/>
<feBlend mode="normal" in="SourceGraphic" in2="BackgroundImageFix" result="shape"/>
<feGaussianBlur stdDeviation="15" result="effect1_foregroundBlur_364_2015"/>
</filter>
<filter id="filter1_f_364_2015" x="6.88379" y="23.0256" width="82.4482" height="84.3188" filterUnits="userSpaceOnUse" color-interpolation-filters="sRGB">
<feFlood flood-opacity="0" result="BackgroundImageFix"/>
<feBlend mode="normal" in="SourceGraphic" in2="BackgroundImageFix" result="shape"/>
<feGaussianBlur stdDeviation="15" result="effect1_foregroundBlur_364_2015"/>
</filter>
<filter id="filter2_d_364_2015" x="16.9805" y="16.5455" width="62.25" height="73.0614" filterUnits="userSpaceOnUse" color-interpolation-filters="sRGB">
<feFlood flood-opacity="0" result="BackgroundImageFix"/>
<feColorMatrix in="SourceAlpha" type="matrix" values="0 0 0 0 0 0 0 0 0 0 0 0 0 0 0 0 0 0 127 0" result="hardAlpha"/>
<feOffset dy="4"/>
<feGaussianBlur stdDeviation="2"/>
<feComposite in2="hardAlpha" operator="out"/>
<feColorMatrix type="matrix" values="0 0 0 0 0 0 0 0 0 0 0 0 0 0 0 0 0 0 0.25 0"/>
<feBlend mode="normal" in2="BackgroundImageFix" result="effect1_dropShadow_364_2015"/>
<feBlend mode="normal" in="SourceGraphic" in2="effect1_dropShadow_364_2015" result="shape"/>
</filter>
<filter id="filter3_f_364_2015" x="0.642183" y="29.507" width="94.49" height="80.7638" filterUnits="userSpaceOnUse" color-interpolation-filters="sRGB">
<feFlood flood-opacity="0" result="BackgroundImageFix"/>
<feBlend mode="normal" in="SourceGraphic" in2="BackgroundImageFix" result="shape"/>
<feGaussianBlur stdDeviation="15.8303" result="effect1_foregroundBlur_364_2015"/>
</filter>
<filter id="filter4_di_364_2015" x="15.3771" y="44.0875" width="65.4586" height="38.5656" filterUnits="userSpaceOnUse" color-interpolation-filters="sRGB">
<feFlood flood-opacity="0" result="BackgroundImageFix"/>
<feColorMatrix in="SourceAlpha" type="matrix" values="0 0 0 0 0 0 0 0 0 0 0 0 0 0 0 0 0 0 127 0" result="hardAlpha"/>
<feOffset dy="1.97878"/>
<feGaussianBlur stdDeviation="2.96818"/>
<feComposite in2="hardAlpha" operator="out"/>
<feColorMatrix type="matrix" values="0 0 0 0 0.0178646 0 0 0 0 0.12592 0 0 0 0 0.204167 0 0 0 0.1 0"/>
<feBlend mode="normal" in2="BackgroundImageFix" result="effect1_dropShadow_364_2015"/>
<feBlend mode="normal" in="SourceGraphic" in2="effect1_dropShadow_364_2015" result="shape"/>
<feColorMatrix in="SourceAlpha" type="matrix" values="0 0 0 0 0 0 0 0 0 0 0 0 0 0 0 0 0 0 127 0" result="hardAlpha"/>
<feOffset dy="-1.97878"/>
<feGaussianBlur stdDeviation="2.96818"/>
<feComposite in2="hardAlpha" operator="arithmetic" k2="-1" k3="1"/>
<feColorMatrix type="matrix" values="0 0 0 0 0.383333 0 0 0 0 0.68172 0 0 0 0 1 0 0 0 0.2 0"/>
<feBlend mode="normal" in2="shape" result="effect2_innerShadow_364_2015"/>
</filter>
<filter id="filter5_di_364_2015" x="15.3771" y="38.0462" width="65.4586" height="38.5656" filterUnits="userSpaceOnUse" color-interpolation-filters="sRGB">
<feFlood flood-opacity="0" result="BackgroundImageFix"/>
<feColorMatrix in="SourceAlpha" type="matrix" values="0 0 0 0 0 0 0 0 0 0 0 0 0 0 0 0 0 0 127 0" result="hardAlpha"/>
<feOffset dy="1.97878"/>
<feGaussianBlur stdDeviation="2.96818"/>
<feComposite in2="hardAlpha" operator="out"/>
<feColorMatrix type="matrix" values="0 0 0 0 0.0178646 0 0 0 0 0.12592 0 0 0 0 0.204167 0 0 0 0.1 0"/>
<feBlend mode="normal" in2="BackgroundImageFix" result="effect1_dropShadow_364_2015"/>
<feBlend mode="normal" in="SourceGraphic" in2="effect1_dropShadow_364_2015" result="shape"/>
<feColorMatrix in="SourceAlpha" type="matrix" values="0 0 0 0 0 0 0 0 0 0 0 0 0 0 0 0 0 0 127 0" result="hardAlpha"/>
<feOffset dy="-1.97878"/>
<feGaussianBlur stdDeviation="2.96818"/>
<feComposite in2="hardAlpha" operator="arithmetic" k2="-1" k3="1"/>
<feColorMatrix type="matrix" values="0 0 0 0 0.383333 0 0 0 0 0.68172 0 0 0 0 1 0 0 0 0.2 0"/>
<feBlend mode="normal" in2="shape" result="effect2_innerShadow_364_2015"/>
</filter>
<filter id="filter6_f_364_2015" x="30.2663" y="0.576888" width="21.1138" height="21.1138" filterUnits="userSpaceOnUse" color-interpolation-filters="sRGB">
<feFlood flood-opacity="0" result="BackgroundImageFix"/>
<feBlend mode="normal" in="SourceGraphic" in2="BackgroundImageFix" result="shape"/>
<feGaussianBlur stdDeviation="4.71156" result="effect1_foregroundBlur_364_2015"/>
</filter>
<filter id="filter7_f_364_2015" x="19.4118" y="27.7874" width="21.1138" height="21.1138" filterUnits="userSpaceOnUse" color-interpolation-filters="sRGB">
<feFlood flood-opacity="0" result="BackgroundImageFix"/>
<feBlend mode="normal" in="SourceGraphic" in2="BackgroundImageFix" result="shape"/>
<feGaussianBlur stdDeviation="4.71156" result="effect1_foregroundBlur_364_2015"/>
</filter>
<filter id="filter8_f_364_2015" x="55.8556" y="20.554" width="14.8317" height="14.8317" filterUnits="userSpaceOnUse" color-interpolation-filters="sRGB">
<feFlood flood-opacity="0" result="BackgroundImageFix"/>
<feBlend mode="normal" in="SourceGraphic" in2="BackgroundImageFix" result="shape"/>
<feGaussianBlur stdDeviation="3.14104" result="effect1_foregroundBlur_364_2015"/>
</filter>
<filter id="filter9_f_364_2015" x="55.8556" y="50.4853" width="14.8317" height="14.8317" filterUnits="userSpaceOnUse" color-interpolation-filters="sRGB">
<feFlood flood-opacity="0" result="BackgroundImageFix"/>
<feBlend mode="normal" in="SourceGraphic" in2="BackgroundImageFix" result="shape"/>
<feGaussianBlur stdDeviation="3.14104" result="effect1_foregroundBlur_364_2015"/>
</filter>
<filter id="filter10_f_364_2015" x="68.9503" y="58.9034" width="14.8317" height="14.8317" filterUnits="userSpaceOnUse" color-interpolation-filters="sRGB">
<feFlood flood-opacity="0" result="BackgroundImageFix"/>
<feBlend mode="normal" in="SourceGraphic" in2="BackgroundImageFix" result="shape"/>
<feGaussianBlur stdDeviation="3.14104" result="effect1_foregroundBlur_364_2015"/>
</filter>
<filter id="filter11_f_364_2015" x="7.21793" y="47.6789" width="14.8317" height="14.8317" filterUnits="userSpaceOnUse" color-interpolation-filters="sRGB">
<feFlood flood-opacity="0" result="BackgroundImageFix"/>
<feBlend mode="normal" in="SourceGraphic" in2="BackgroundImageFix" result="shape"/>
<feGaussianBlur stdDeviation="3.14104" result="effect1_foregroundBlur_364_2015"/>
</filter>
<radialGradient id="paint0_radial_364_2015" cx="0" cy="0" r="1" gradientUnits="userSpaceOnUse" gradientTransform="translate(48.0977 75.2105) rotate(-90) scale(27.3677 158.903)">
<stop stop-color="#007CFF"/>
<stop offset="0.584565" stop-color="#007CFF" stop-opacity="0.5"/>
<stop offset="1" stop-color="#007CFF" stop-opacity="0.2"/>
</radialGradient>
<linearGradient id="paint1_linear_364_2015" x1="48.0977" y1="75.2105" x2="48.0977" y2="51.2638" gradientUnits="userSpaceOnUse">
<stop stop-color="#00FFFF"/>
<stop offset="0.356732" stop-color="#00FFFF" stop-opacity="0.3"/>
<stop offset="0.496982" stop-color="#00FFFF" stop-opacity="0"/>
</linearGradient>
<radialGradient id="paint2_radial_364_2015" cx="0" cy="0" r="1" gradientUnits="userSpaceOnUse" gradientTransform="translate(48.0977 69.1691) rotate(-90) scale(27.3677 158.903)">
<stop stop-color="#007CFF"/>
<stop offset="0.584565" stop-color="#007CFF" stop-opacity="0.5"/>
<stop offset="1" stop-color="#007CFF" stop-opacity="0.2"/>
</radialGradient>
<linearGradient id="paint3_linear_364_2015" x1="48.0977" y1="69.1691" x2="48.0977" y2="45.2224" gradientUnits="userSpaceOnUse">
<stop stop-color="#00FFFF"/>
<stop offset="0.356732" stop-color="#00FFFF" stop-opacity="0.3"/>
<stop offset="0.496982" stop-color="#00FFFF" stop-opacity="0"/>
</linearGradient>
<linearGradient id="paint4_linear_364_2015" x1="48.0977" y1="62.6199" x2="48.0977" y2="38.6732" gradientUnits="userSpaceOnUse">
<stop stop-color="#00FFFF"/>
<stop offset="0.356732" stop-color="#00FFFF" stop-opacity="0.3"/>
<stop offset="0.899806" stop-color="#00FFFF" stop-opacity="0"/>
</linearGradient>
<linearGradient id="paint5_linear_364_2015" x1="48.0977" y1="82.0794" x2="48.4711" y2="55.5748" gradientUnits="userSpaceOnUse">
<stop stop-color="#4ABEFF"/>
<stop offset="0.230969" stop-color="#8BD5FF" stop-opacity="0.3"/>
<stop offset="0.403068" stop-color="#6AC9FF" stop-opacity="0"/>
</linearGradient>
<linearGradient id="paint6_linear_364_2015" x1="45.0604" y1="67.9893" x2="45.0604" y2="17.0272" gradientUnits="userSpaceOnUse">
<stop stop-color="#00D1FF"/>
<stop offset="0.624905" stop-color="#54E0FF" stop-opacity="0"/>
</linearGradient>
<linearGradient id="paint7_linear_364_2015" x1="34.3685" y1="48.8957" x2="63.1435" y2="22.2059" gradientUnits="userSpaceOnUse">
<stop offset="0.261281" stop-color="#1A91FF"/>
<stop offset="1" stop-color="#01FFDF"/>
</linearGradient>
<linearGradient id="paint8_linear_364_2015" x1="31.7918" y1="50.3827" x2="60.3065" y2="23.6745" gradientUnits="userSpaceOnUse">
<stop offset="0.261281" stop-color="#1A91FF"/>
<stop offset="1" stop-color="#01FFDF"/>
</linearGradient>
</defs>
</svg>
