<svg width="32" height="32" viewBox="0 0 32 32" fill="none" xmlns="http://www.w3.org/2000/svg">
<path d="M29.3333 17.9999V27.9999C29.3333 28.7363 28.7364 29.3333 28 29.3333H26.6667C25.9303 29.3333 25.3333 28.7363 25.3333 27.9999V26.6666H6.66667V27.9999C6.66667 28.7363 6.06971 29.3333 5.33333 29.3333H4C3.26363 29.3333 2.66667 28.7363 2.66667 27.9999V17.9999L1.00995 17.5858C0.416396 17.4374 0 16.9041 0 16.2922V15.3333C0 14.9651 0.298477 14.6666 0.666667 14.6666H3.16667L6.01779 7.06359C6.40809 6.02279 7.40308 5.33325 8.51467 5.33325H23.4853C24.5969 5.33325 25.5919 6.02279 25.9823 7.06359L28.8333 14.6666H31.3333C31.7015 14.6666 32 14.9651 32 15.3333V16.2922C32 16.9041 31.5836 17.4374 30.99 17.5858L29.3333 17.9999ZM5.33333 19.9999V22.6666C5.33333 23.403 5.93029 23.9999 6.66667 23.9999H10.9933C11.1029 23.9999 11.2109 23.9729 11.3076 23.9211C11.6322 23.7475 11.7547 23.3437 11.5811 23.019C10.5048 21.0063 8.42229 19.9999 5.33333 19.9999ZM26.6667 19.9999C23.5777 19.9999 21.4951 21.0063 20.4188 23.019C20.2452 23.3437 20.3677 23.7475 20.6924 23.9211C20.7891 23.9729 20.8971 23.9999 21.0067 23.9999H25.3333C26.0697 23.9999 26.6667 23.403 26.6667 22.6666V19.9999ZM8 7.99992L5.91832 14.245C5.873 14.3809 5.84991 14.5233 5.84991 14.6666C5.84991 15.403 6.44685 15.9999 7.18324 15.9999H24.8168C24.9601 15.9999 25.1024 15.9769 25.2384 15.9315C25.9369 15.6986 26.3145 14.9435 26.0817 14.245L24 7.99992H8Z" fill="url(#paint0_linear_530_3464)"/>
<defs>
<linearGradient id="paint0_linear_530_3464" x1="8.24242" y1="8.34624" x2="11.6524" y2="30.3027" gradientUnits="userSpaceOnUse">
<stop stop-color="#A9D6FF" stop-opacity="0.7"/>
<stop offset="1" stop-color="#B6D7FF" stop-opacity="0.4"/>
</linearGradient>
</defs>
</svg>
