<svg width="96" height="111" viewBox="0 0 96 111" fill="none" xmlns="http://www.w3.org/2000/svg">
<g filter="url(#filter0_f_321_1898)">
<ellipse cx="48.1077" cy="65.1851" rx="12.1594" ry="13.0948" fill="#53B7FF" fill-opacity="0.3"/>
</g>
<g filter="url(#filter1_f_321_1898)">
<ellipse cx="48.1074" cy="65.1851" rx="11.2241" ry="12.1594" fill="#53B7FF" fill-opacity="0.4"/>
</g>
<g filter="url(#filter2_d_321_1898)">
<g filter="url(#filter3_f_321_1898)">
<path d="M32.8479 72.3163C32.1258 72 32.0456 71.0075 32.7075 70.5793L46.7654 61.485C47.4195 61.0619 48.261 61.0619 48.9151 61.485L62.973 70.5793C63.6349 71.0075 63.5547 72 62.8326 72.3163L49.031 78.361C48.272 78.6934 47.4085 78.6934 46.6495 78.361L32.8479 72.3163Z" fill="#0A6BDD"/>
</g>
<g filter="url(#filter4_di_321_1898)">
<path d="M21.8049 61.7759C21.0713 61.4 21.0921 60.3444 21.84 59.9977L47.2275 48.2287C47.7553 47.984 48.3641 47.984 48.8919 48.2287L74.2794 59.9977C75.0273 60.3444 75.0481 61.4 74.3144 61.7759L49.8643 74.3027C48.7312 74.8832 47.3881 74.8832 46.2551 74.3027L21.8049 61.7759Z" fill="url(#paint0_radial_321_1898)" shape-rendering="crispEdges"/>
<path d="M22.0329 61.3309C21.67 61.145 21.6803 60.6228 22.0503 60.4513L47.4377 48.6823C47.8322 48.4995 48.2872 48.4995 48.6816 48.6823L74.0691 60.4513C74.4391 60.6228 74.4493 61.1449 74.0865 61.3309L49.6363 73.8577C48.6464 74.3648 47.473 74.3648 46.4831 73.8577L22.0329 61.3309Z" stroke="url(#paint1_linear_321_1898)" shape-rendering="crispEdges"/>
</g>
<g filter="url(#filter5_di_321_1898)">
<path d="M21.8049 55.7345C21.0713 55.3586 21.0921 54.303 21.84 53.9563L47.2275 42.1873C47.7553 41.9426 48.3641 41.9426 48.8919 42.1873L74.2794 53.9563C75.0273 54.303 75.0481 55.3586 74.3145 55.7345L49.8643 68.2613C48.7312 68.8418 47.3882 68.8418 46.2551 68.2613L21.8049 55.7345Z" fill="url(#paint2_radial_321_1898)" fill-opacity="0.2" shape-rendering="crispEdges"/>
<path d="M22.0329 55.2895C21.67 55.1036 21.6803 54.5814 22.0503 54.4099L47.4378 42.6409C47.8322 42.4581 48.2872 42.4581 48.6816 42.6409L74.0691 54.4099C74.4391 54.5814 74.4494 55.1036 74.0865 55.2895L49.6363 67.8163C48.6464 68.3235 47.473 68.3235 46.4831 67.8163L22.0329 55.2895Z" stroke="url(#paint3_linear_321_1898)" shape-rendering="crispEdges"/>
</g>
<path opacity="0.5" d="M22.0329 48.7403C21.67 48.5544 21.6803 48.0322 22.0503 47.8607L47.4377 36.0918C47.8322 35.9089 48.2872 35.9089 48.6816 36.0918L74.0691 47.8607C74.4391 48.0322 74.4493 48.5544 74.0865 48.7403L49.6363 61.2671C48.6464 61.7743 47.473 61.7743 46.4831 61.2671L22.0329 48.7403Z" stroke="url(#paint4_linear_321_1898)"/>
<path d="M22.2803 67.7647L47.648 56.0049C47.9091 55.8838 48.2103 55.8838 48.4714 56.0049L73.8391 67.7647L49.4083 80.2816C48.5616 80.7154 47.5578 80.7154 46.7111 80.2816L22.2803 67.7647Z" stroke="url(#paint5_linear_321_1898)" stroke-width="2"/>
<path d="M75.1646 16.5455L75.1846 54.1632C75.1846 54.5326 74.9046 54.902 74.3647 55.1835L49.9694 67.567C48.8696 68.1299 47.1099 68.1299 46.0101 67.567L21.7747 55.1835C21.2348 54.902 20.9549 54.5502 20.9549 54.1808L20.9349 16.5631C20.9349 18.3346 75.1646 18.3916 75.1646 16.5455Z" fill="url(#paint6_linear_321_1898)" fill-opacity="0.3"/>
<g clip-path="url(#clip0_321_1898)">
<path d="M44.7188 34.4796L53.78 29.2408L60.5342 33.1235L51.4794 38.3623L44.7188 34.4796Z" fill="url(#paint7_linear_321_1898)"/>
<path fill-rule="evenodd" clip-rule="evenodd" d="M48.1888 19.1087L55.5281 23.4776C56.107 23.7657 55.9037 24.3133 55.7776 24.6529C55.7637 24.6903 55.7507 24.7251 55.7399 24.7569L55.6926 24.784L55.7406 24.7568L53.7805 29.2408L44.7192 34.4795L46.4995 30L46.7424 29.8622C46.7533 29.8328 46.7621 29.8025 46.7686 29.7717C46.7772 29.6995 46.7772 29.6265 46.7686 29.5543C46.7629 29.4744 46.75 29.3952 46.73 29.3176C46.7083 29.2346 46.6804 29.1533 46.6465 29.0745C46.6134 28.9931 46.5748 28.914 46.5308 28.8378C46.4846 28.7618 46.4331 28.6891 46.3766 28.6204C46.3198 28.5514 46.2575 28.4872 46.1902 28.4285C46.1249 28.3702 46.0539 28.3188 45.9781 28.275L39.1404 24.3475L38.9669 24.2707L38.8191 24.2387C38.7301 24.2284 38.6401 24.2463 38.562 24.2899L47.6233 19H47.8163L48.0026 19.0544L48.1888 19.1087Z" fill="url(#paint8_linear_321_1898)"/>
<mask id="mask0_321_1898" style="mask-type:luminance" maskUnits="userSpaceOnUse" x="51" y="33" width="11" height="9">
<path d="M51.4795 38.3623L60.5408 33.1235C61.8261 33.8655 62.4687 36.0212 61.5883 36.5713L52.527 41.81C53.4267 41.2599 52.7712 39.1043 51.4795 38.3623Z" fill="white"/>
</mask>
<g mask="url(#mask0_321_1898)">
<path d="M51.4795 38.3623L60.5472 33.1235C60.5472 33.1235 61.3763 33.712 61.6654 34.3517C61.9545 34.9913 61.9237 35.8207 61.6333 36.3346C61.5708 36.4308 61.4873 36.5117 61.3891 36.5713L52.6361 41.7077C52.9574 41.3878 52.9574 40.4284 52.662 39.7567C52.3665 39.0851 51.4795 38.3623 51.4795 38.3623Z" fill="url(#paint9_linear_321_1898)"/>
</g>
<path d="M45.9719 28.2814C46.5632 28.6204 46.9423 29.5607 46.6853 29.9957L44.7252 34.4733L51.4794 38.3623C52.7647 39.1043 53.4073 41.26 52.5269 41.8101L39.7833 49.6266C39.6631 49.689 39.5278 49.7167 39.3927 49.7065C39.2575 49.6963 39.1279 49.6487 39.0185 49.569C38.6532 49.3434 38.3611 49.0175 38.1775 48.6305C37.994 48.2435 37.9267 47.812 37.9839 47.3878L40.7023 38.4327L35.2012 35.2792C34.3015 34.7611 33.7231 33.3603 34.1344 32.6694L38.4209 24.4371C38.5558 24.2068 38.8322 24.1749 39.1342 24.3476L45.9719 28.2814Z" fill="url(#paint10_linear_321_1898)"/>
</g>
</g>
<g opacity="0.7">
<g filter="url(#filter6_f_321_1898)">
<circle cx="40.8232" cy="11.1338" r="1.1338" fill="#BAE7FF"/>
</g>
<circle cx="40.8232" cy="11.1338" r="1.1338" fill="#BAE7FF"/>
</g>
<g filter="url(#filter7_f_321_1898)">
<circle cx="29.9688" cy="38.3442" r="1.1338" fill="#BAE7FF"/>
</g>
<circle cx="29.9688" cy="38.3442" r="1.1338" fill="#BAE7FF"/>
<g filter="url(#filter8_f_321_1898)">
<circle cx="63.2715" cy="27.9699" r="1.1338" fill="#BAE7FF"/>
</g>
<circle cx="63.271" cy="27.9695" r="0.566898" fill="#BAE7FF"/>
<g filter="url(#filter9_f_321_1898)">
<circle cx="63.2715" cy="57.9011" r="1.1338" fill="#BAE7FF"/>
</g>
<circle cx="63.272" cy="57.9015" r="0.566898" fill="#BAE7FF"/>
<g filter="url(#filter10_f_321_1898)">
<circle cx="76.3662" cy="66.3193" r="1.1338" fill="#BAE7FF"/>
</g>
<circle cx="76.9028" cy="65.7524" r="0.566898" fill="#BAE7FF"/>
<g filter="url(#filter11_f_321_1898)">
<circle cx="14.6338" cy="55.0947" r="1.1338" fill="#BAE7FF"/>
</g>
<circle cx="14.6333" cy="55.0951" r="0.566898" fill="#BAE7FF"/>
<defs>
<filter id="filter0_f_321_1898" x="5.94824" y="22.0903" width="84.3188" height="86.1895" filterUnits="userSpaceOnUse" color-interpolation-filters="sRGB">
<feFlood flood-opacity="0" result="BackgroundImageFix"/>
<feBlend mode="normal" in="SourceGraphic" in2="BackgroundImageFix" result="shape"/>
<feGaussianBlur stdDeviation="15" result="effect1_foregroundBlur_321_1898"/>
</filter>
<filter id="filter1_f_321_1898" x="6.8833" y="23.0256" width="82.4482" height="84.3188" filterUnits="userSpaceOnUse" color-interpolation-filters="sRGB">
<feFlood flood-opacity="0" result="BackgroundImageFix"/>
<feBlend mode="normal" in="SourceGraphic" in2="BackgroundImageFix" result="shape"/>
<feGaussianBlur stdDeviation="15" result="effect1_foregroundBlur_321_1898"/>
</filter>
<filter id="filter2_d_321_1898" x="16.9351" y="16.5455" width="62.2495" height="73.0614" filterUnits="userSpaceOnUse" color-interpolation-filters="sRGB">
<feFlood flood-opacity="0" result="BackgroundImageFix"/>
<feColorMatrix in="SourceAlpha" type="matrix" values="0 0 0 0 0 0 0 0 0 0 0 0 0 0 0 0 0 0 127 0" result="hardAlpha"/>
<feOffset dy="4"/>
<feGaussianBlur stdDeviation="2"/>
<feComposite in2="hardAlpha" operator="out"/>
<feColorMatrix type="matrix" values="0 0 0 0 0 0 0 0 0 0 0 0 0 0 0 0 0 0 0.25 0"/>
<feBlend mode="normal" in2="BackgroundImageFix" result="effect1_dropShadow_321_1898"/>
<feBlend mode="normal" in="SourceGraphic" in2="effect1_dropShadow_321_1898" result="shape"/>
</filter>
<filter id="filter3_f_321_1898" x="0.59482" y="29.5071" width="94.491" height="80.7637" filterUnits="userSpaceOnUse" color-interpolation-filters="sRGB">
<feFlood flood-opacity="0" result="BackgroundImageFix"/>
<feBlend mode="normal" in="SourceGraphic" in2="BackgroundImageFix" result="shape"/>
<feGaussianBlur stdDeviation="15.8303" result="effect1_foregroundBlur_321_1898"/>
</filter>
<filter id="filter4_di_321_1898" x="15.3302" y="44.0876" width="65.4586" height="38.5656" filterUnits="userSpaceOnUse" color-interpolation-filters="sRGB">
<feFlood flood-opacity="0" result="BackgroundImageFix"/>
<feColorMatrix in="SourceAlpha" type="matrix" values="0 0 0 0 0 0 0 0 0 0 0 0 0 0 0 0 0 0 127 0" result="hardAlpha"/>
<feOffset dy="1.97878"/>
<feGaussianBlur stdDeviation="2.96818"/>
<feComposite in2="hardAlpha" operator="out"/>
<feColorMatrix type="matrix" values="0 0 0 0 0.0178646 0 0 0 0 0.12592 0 0 0 0 0.204167 0 0 0 0.1 0"/>
<feBlend mode="normal" in2="BackgroundImageFix" result="effect1_dropShadow_321_1898"/>
<feBlend mode="normal" in="SourceGraphic" in2="effect1_dropShadow_321_1898" result="shape"/>
<feColorMatrix in="SourceAlpha" type="matrix" values="0 0 0 0 0 0 0 0 0 0 0 0 0 0 0 0 0 0 127 0" result="hardAlpha"/>
<feOffset dy="-1.97878"/>
<feGaussianBlur stdDeviation="2.96818"/>
<feComposite in2="hardAlpha" operator="arithmetic" k2="-1" k3="1"/>
<feColorMatrix type="matrix" values="0 0 0 0 0.383333 0 0 0 0 0.68172 0 0 0 0 1 0 0 0 0.2 0"/>
<feBlend mode="normal" in2="shape" result="effect2_innerShadow_321_1898"/>
</filter>
<filter id="filter5_di_321_1898" x="15.3302" y="38.0462" width="65.4586" height="38.5656" filterUnits="userSpaceOnUse" color-interpolation-filters="sRGB">
<feFlood flood-opacity="0" result="BackgroundImageFix"/>
<feColorMatrix in="SourceAlpha" type="matrix" values="0 0 0 0 0 0 0 0 0 0 0 0 0 0 0 0 0 0 127 0" result="hardAlpha"/>
<feOffset dy="1.97878"/>
<feGaussianBlur stdDeviation="2.96818"/>
<feComposite in2="hardAlpha" operator="out"/>
<feColorMatrix type="matrix" values="0 0 0 0 0.0178646 0 0 0 0 0.12592 0 0 0 0 0.204167 0 0 0 0.1 0"/>
<feBlend mode="normal" in2="BackgroundImageFix" result="effect1_dropShadow_321_1898"/>
<feBlend mode="normal" in="SourceGraphic" in2="effect1_dropShadow_321_1898" result="shape"/>
<feColorMatrix in="SourceAlpha" type="matrix" values="0 0 0 0 0 0 0 0 0 0 0 0 0 0 0 0 0 0 127 0" result="hardAlpha"/>
<feOffset dy="-1.97878"/>
<feGaussianBlur stdDeviation="2.96818"/>
<feComposite in2="hardAlpha" operator="arithmetic" k2="-1" k3="1"/>
<feColorMatrix type="matrix" values="0 0 0 0 0.383333 0 0 0 0 0.68172 0 0 0 0 1 0 0 0 0.2 0"/>
<feBlend mode="normal" in2="shape" result="effect2_innerShadow_321_1898"/>
</filter>
<filter id="filter6_f_321_1898" x="30.2663" y="0.576888" width="21.1138" height="21.1138" filterUnits="userSpaceOnUse" color-interpolation-filters="sRGB">
<feFlood flood-opacity="0" result="BackgroundImageFix"/>
<feBlend mode="normal" in="SourceGraphic" in2="BackgroundImageFix" result="shape"/>
<feGaussianBlur stdDeviation="4.71156" result="effect1_foregroundBlur_321_1898"/>
</filter>
<filter id="filter7_f_321_1898" x="19.4118" y="27.7873" width="21.1138" height="21.1138" filterUnits="userSpaceOnUse" color-interpolation-filters="sRGB">
<feFlood flood-opacity="0" result="BackgroundImageFix"/>
<feBlend mode="normal" in="SourceGraphic" in2="BackgroundImageFix" result="shape"/>
<feGaussianBlur stdDeviation="4.71156" result="effect1_foregroundBlur_321_1898"/>
</filter>
<filter id="filter8_f_321_1898" x="55.8556" y="20.554" width="14.8317" height="14.8317" filterUnits="userSpaceOnUse" color-interpolation-filters="sRGB">
<feFlood flood-opacity="0" result="BackgroundImageFix"/>
<feBlend mode="normal" in="SourceGraphic" in2="BackgroundImageFix" result="shape"/>
<feGaussianBlur stdDeviation="3.14104" result="effect1_foregroundBlur_321_1898"/>
</filter>
<filter id="filter9_f_321_1898" x="55.8556" y="50.4853" width="14.8317" height="14.8317" filterUnits="userSpaceOnUse" color-interpolation-filters="sRGB">
<feFlood flood-opacity="0" result="BackgroundImageFix"/>
<feBlend mode="normal" in="SourceGraphic" in2="BackgroundImageFix" result="shape"/>
<feGaussianBlur stdDeviation="3.14104" result="effect1_foregroundBlur_321_1898"/>
</filter>
<filter id="filter10_f_321_1898" x="68.9503" y="58.9035" width="14.8317" height="14.8317" filterUnits="userSpaceOnUse" color-interpolation-filters="sRGB">
<feFlood flood-opacity="0" result="BackgroundImageFix"/>
<feBlend mode="normal" in="SourceGraphic" in2="BackgroundImageFix" result="shape"/>
<feGaussianBlur stdDeviation="3.14104" result="effect1_foregroundBlur_321_1898"/>
</filter>
<filter id="filter11_f_321_1898" x="7.21793" y="47.6789" width="14.8317" height="14.8317" filterUnits="userSpaceOnUse" color-interpolation-filters="sRGB">
<feFlood flood-opacity="0" result="BackgroundImageFix"/>
<feBlend mode="normal" in="SourceGraphic" in2="BackgroundImageFix" result="shape"/>
<feGaussianBlur stdDeviation="3.14104" result="effect1_foregroundBlur_321_1898"/>
</filter>
<radialGradient id="paint0_radial_321_1898" cx="0" cy="0" r="1" gradientUnits="userSpaceOnUse" gradientTransform="translate(48.0514 75.2105) rotate(-90) scale(27.3677 158.903)">
<stop stop-color="#007CFF"/>
<stop offset="0.584565" stop-color="#007CFF" stop-opacity="0.5"/>
<stop offset="1" stop-color="#007CFF" stop-opacity="0.2"/>
</radialGradient>
<linearGradient id="paint1_linear_321_1898" x1="48.0514" y1="75.2105" x2="48.0514" y2="51.2639" gradientUnits="userSpaceOnUse">
<stop stop-color="#00FFFF"/>
<stop offset="0.356732" stop-color="#00FFFF" stop-opacity="0.3"/>
<stop offset="0.496982" stop-color="#00FFFF" stop-opacity="0"/>
</linearGradient>
<radialGradient id="paint2_radial_321_1898" cx="0" cy="0" r="1" gradientUnits="userSpaceOnUse" gradientTransform="translate(48.0514 69.1692) rotate(-90) scale(27.3677 158.903)">
<stop stop-color="#007CFF"/>
<stop offset="0.584565" stop-color="#007CFF" stop-opacity="0.5"/>
<stop offset="1" stop-color="#007CFF" stop-opacity="0.2"/>
</radialGradient>
<linearGradient id="paint3_linear_321_1898" x1="48.0514" y1="69.1692" x2="48.0514" y2="45.2225" gradientUnits="userSpaceOnUse">
<stop stop-color="#00FFFF"/>
<stop offset="0.356732" stop-color="#00FFFF" stop-opacity="0.3"/>
<stop offset="0.496982" stop-color="#00FFFF" stop-opacity="0"/>
</linearGradient>
<linearGradient id="paint4_linear_321_1898" x1="48.0514" y1="62.62" x2="48.0514" y2="38.6733" gradientUnits="userSpaceOnUse">
<stop stop-color="#00FFFF"/>
<stop offset="0.356732" stop-color="#00FFFF" stop-opacity="0.3"/>
<stop offset="0.899806" stop-color="#00FFFF" stop-opacity="0"/>
</linearGradient>
<linearGradient id="paint5_linear_321_1898" x1="48.0514" y1="82.0794" x2="48.4247" y2="55.5749" gradientUnits="userSpaceOnUse">
<stop stop-color="#4ABEFF"/>
<stop offset="0.230969" stop-color="#8BD5FF" stop-opacity="0.3"/>
<stop offset="0.403068" stop-color="#6AC9FF" stop-opacity="0"/>
</linearGradient>
<linearGradient id="paint6_linear_321_1898" x1="45.0145" y1="67.9893" x2="45.0145" y2="17.0273" gradientUnits="userSpaceOnUse">
<stop stop-color="#00D1FF"/>
<stop offset="0.624905" stop-color="#54E0FF" stop-opacity="0"/>
</linearGradient>
<linearGradient id="paint7_linear_321_1898" x1="58.499" y1="36" x2="55.6788" y2="28.5414" gradientUnits="userSpaceOnUse">
<stop stop-color="#278EC0"/>
<stop offset="1" stop-color="#249CD3"/>
</linearGradient>
<linearGradient id="paint8_linear_321_1898" x1="43.4995" y1="21" x2="49.4837" y2="32.0086" gradientUnits="userSpaceOnUse">
<stop stop-color="#1E91BE"/>
<stop offset="0.126102" stop-color="#38C2EE"/>
<stop offset="0.580499" stop-color="#2A9ACF"/>
<stop offset="0.699617" stop-color="#30AADB"/>
<stop offset="0.782604" stop-color="#268EC6"/>
<stop offset="0.841701" stop-color="#2384BE"/>
</linearGradient>
<linearGradient id="paint9_linear_321_1898" x1="53.5" y1="33.5" x2="57.0167" y2="39.4902" gradientUnits="userSpaceOnUse">
<stop offset="0.302171" stop-color="#2FA5DA"/>
<stop offset="1" stop-color="#115279"/>
</linearGradient>
<linearGradient id="paint10_linear_321_1898" x1="29.9995" y1="28.0001" x2="53.6702" y2="43.2349" gradientUnits="userSpaceOnUse">
<stop stop-color="#60ECFF"/>
<stop offset="0.481579" stop-color="#3DD0FF"/>
<stop offset="0.994155" stop-color="#3C9CD5"/>
</linearGradient>
<clipPath id="clip0_321_1898">
<rect width="28" height="30.7097" fill="white" transform="translate(33.9995 19)"/>
</clipPath>
</defs>
</svg>
