<svg width="32" height="32" viewBox="0 0 32 32" fill="none" xmlns="http://www.w3.org/2000/svg">
<g clip-path="url(#clip0_530_3482)">
<g filter="url(#filter0_di_530_3482)">
<path d="M16.0002 18.6666V29.3333H5.3335C5.3335 23.4422 10.1091 18.6666 16.0002 18.6666ZM16.0002 17.3333C11.5802 17.3333 8.00016 13.7533 8.00016 9.33325C8.00016 4.91325 11.5802 1.33325 16.0002 1.33325C20.4202 1.33325 24.0002 4.91325 24.0002 9.33325C24.0002 13.7533 20.4202 17.3333 16.0002 17.3333ZM27.7714 27.7711L24.0002 31.5424L20.229 27.7711C18.1462 25.6883 18.1462 22.3115 20.229 20.2287C22.3118 18.1459 25.6886 18.1459 27.7714 20.2287C29.8542 22.3115 29.8542 25.6883 27.7714 27.7711ZM24.0002 22.6666C23.2638 22.6666 22.6668 23.2635 22.6668 23.9999C22.6668 24.7363 23.2638 25.3333 24.0002 25.3333C24.7366 25.3333 25.3335 24.7363 25.3335 23.9999C25.3335 23.2635 24.7366 22.6666 24.0002 22.6666Z" fill="url(#paint0_linear_530_3482)"/>
</g>
</g>
<defs>
<filter id="filter0_di_530_3482" x="1.3335" y="-1.66675" width="32" height="38.2092" filterUnits="userSpaceOnUse" color-interpolation-filters="sRGB">
<feFlood flood-opacity="0" result="BackgroundImageFix"/>
<feColorMatrix in="SourceAlpha" type="matrix" values="0 0 0 0 0 0 0 0 0 0 0 0 0 0 0 0 0 0 127 0" result="hardAlpha"/>
<feOffset dy="1"/>
<feGaussianBlur stdDeviation="2"/>
<feComposite in2="hardAlpha" operator="out"/>
<feColorMatrix type="matrix" values="0 0 0 0 0 0 0 0 0 0.46 0 0 0 0 1 0 0 0 0.2 0"/>
<feBlend mode="normal" in2="BackgroundImageFix" result="effect1_dropShadow_530_3482"/>
<feBlend mode="normal" in="SourceGraphic" in2="effect1_dropShadow_530_3482" result="shape"/>
<feColorMatrix in="SourceAlpha" type="matrix" values="0 0 0 0 0 0 0 0 0 0 0 0 0 0 0 0 0 0 127 0" result="hardAlpha"/>
<feOffset dx="0.1" dy="0.1"/>
<feComposite in2="hardAlpha" operator="arithmetic" k2="-1" k3="1"/>
<feColorMatrix type="matrix" values="0 0 0 0 1 0 0 0 0 1 0 0 0 0 1 0 0 0 0.5 0"/>
<feBlend mode="normal" in2="shape" result="effect2_innerShadow_530_3482"/>
</filter>
<linearGradient id="paint0_linear_530_3482" x1="12.1304" y1="0.578022" x2="24.5703" y2="27.4033" gradientUnits="userSpaceOnUse">
<stop stop-color="#43BBFF"/>
<stop offset="1" stop-color="#0076FF"/>
</linearGradient>
<clipPath id="clip0_530_3482">
<rect width="32" height="32" fill="white"/>
</clipPath>
</defs>
</svg>
