<svg width="96" height="111" viewBox="0 0 96 111" fill="none" xmlns="http://www.w3.org/2000/svg">
<g filter="url(#filter0_f_364_2145)">
<ellipse cx="48.1077" cy="65.185" rx="12.1594" ry="13.0948" fill="#53B7FF" fill-opacity="0.3"/>
</g>
<g filter="url(#filter1_f_364_2145)">
<ellipse cx="48.1079" cy="65.185" rx="11.2241" ry="12.1594" fill="#53B7FF" fill-opacity="0.4"/>
</g>
<g filter="url(#filter2_d_364_2145)">
<g filter="url(#filter3_f_364_2145)">
<path d="M32.8489 72.3162C32.1268 71.9999 32.0465 71.0074 32.7084 70.5792L46.7664 61.4849C47.4205 61.0618 48.262 61.0618 48.916 61.4849L62.974 70.5792C63.6359 71.0074 63.5556 71.9999 62.8335 72.3162L49.032 78.3609C48.273 78.6933 47.4095 78.6933 46.6504 78.3609L32.8489 72.3162Z" fill="#0A6BDD"/>
</g>
<g filter="url(#filter4_di_364_2145)">
<path d="M21.8054 61.7758C21.0718 61.3999 21.0926 60.3443 21.8405 59.9976L47.2279 48.2286C47.7558 47.9839 48.3646 47.9839 48.8924 48.2286L74.2799 59.9976C75.0278 60.3443 75.0486 61.3999 74.3149 61.7758L49.8647 74.3026C48.7317 74.8831 47.3886 74.8831 46.2556 74.3026L21.8054 61.7758Z" fill="url(#paint0_radial_364_2145)" shape-rendering="crispEdges"/>
<path d="M22.0334 61.3308C21.6705 61.1449 21.6808 60.6227 22.0507 60.4512L47.4382 48.6822C47.8327 48.4994 48.2877 48.4994 48.6821 48.6822L74.0696 60.4512C74.4396 60.6227 74.4498 61.1449 74.0869 61.3308L49.6368 73.8576C48.6469 74.3647 47.4735 74.3647 46.4836 73.8576L22.0334 61.3308Z" stroke="url(#paint1_linear_364_2145)" shape-rendering="crispEdges"/>
</g>
<g filter="url(#filter5_di_364_2145)">
<path d="M21.8054 55.7344C21.0718 55.3586 21.0926 54.3029 21.8405 53.9562L47.2279 42.1873C47.7558 41.9426 48.3646 41.9426 48.8924 42.1873L74.2799 53.9562C75.0278 54.3029 75.0486 55.3586 74.3149 55.7344L49.8647 68.2612C48.7317 68.8417 47.3886 68.8417 46.2556 68.2612L21.8054 55.7344Z" fill="url(#paint2_radial_364_2145)" fill-opacity="0.2" shape-rendering="crispEdges"/>
<path d="M22.0334 55.2894C21.6705 55.1035 21.6808 54.5814 22.0507 54.4099L47.4382 42.6409C47.8327 42.458 48.2877 42.458 48.6821 42.6409L74.0696 54.4099C74.4396 54.5814 74.4498 55.1035 74.087 55.2894L49.6368 67.8162C48.6469 68.3234 47.4735 68.3234 46.4836 67.8162L22.0334 55.2894Z" stroke="url(#paint3_linear_364_2145)" shape-rendering="crispEdges"/>
</g>
<path opacity="0.5" d="M22.0334 48.7402C21.6705 48.5543 21.6808 48.0322 22.0507 47.8607L47.4382 36.0917C47.8327 35.9088 48.2877 35.9088 48.6821 36.0917L74.0696 47.8607C74.4396 48.0322 74.4498 48.5543 74.0869 48.7402L49.6368 61.267C48.6469 61.7742 47.4735 61.7742 46.4836 61.267L22.0334 48.7402Z" stroke="url(#paint4_linear_364_2145)"/>
<path d="M22.2808 67.7646L47.6485 56.0048C47.9096 55.8837 48.2107 55.8837 48.4718 56.0048L73.8396 67.7646L49.4088 80.2815C48.562 80.7153 47.5583 80.7153 46.7116 80.2815L22.2808 67.7646Z" stroke="url(#paint5_linear_364_2145)" stroke-width="2"/>
<path d="M75.1646 16.5455L75.1846 54.1632C75.1846 54.5326 74.9046 54.902 74.3647 55.1834L49.9694 67.567C48.8696 68.1299 47.1099 68.1299 46.0101 67.567L21.7747 55.1834C21.2348 54.902 20.9549 54.5502 20.9549 54.1808L20.9349 16.5631C20.9349 18.3346 75.1646 18.3915 75.1646 16.5455Z" fill="url(#paint6_linear_364_2145)" fill-opacity="0.3"/>
<path d="M50.9648 33.9239L54.9826 34.7779L47.3501 44.1639L45.9302 43.8836L48.2862 36.1234L44.2683 35.2694L48.131 28.5937L50.9648 27.0018V33.9239ZM48.2862 25.048L45.4332 26.5348L42.9291 23.9093V43.2912L55.5146 45.7754V26.6768L50.5449 25.6119L50.1899 22.772L48.2862 22.2792V25.048ZM45.6076 21.7098L43.0447 21.1651C43.0447 20.4005 46.2073 19.0685 46.9469 19.2257L52.3041 20.3644C53.0437 20.5216 53.6433 21.2689 53.6433 22.0335V23.4179L57.6612 24.2719C58.4009 24.4291 59.0005 25.1764 59.0005 25.941V48.0917C59.0005 48.8563 55.8993 50.9726 55.1596 50.8154L41.5898 45.7754C40.8501 45.6182 39.1855 45.1904 39.1855 44.4258L37.7656 22.8485C37.7656 22.084 40.8501 20.6986 41.5898 20.8558L45.6076 21.7098Z" fill="url(#paint7_linear_364_2145)" fill-opacity="0.3"/>
<path d="M48.1244 35.4621L52.1423 36.3162L45.4459 44.5837V37.6616L41.428 36.8076L48.1244 28.54V35.4621ZM45.4459 26.5863L40.0887 25.4476V44.8295L53.4816 47.6762V28.2943L48.1244 27.1556V24.3868L45.4459 23.8174V26.5863ZM42.7673 23.2481V21.8637C42.7673 21.0991 43.3669 20.6067 44.1066 20.7639L49.4637 21.9026C50.2034 22.0598 50.803 22.8071 50.803 23.5717V24.9561L54.8209 25.8101C55.5606 25.9674 56.1602 26.7147 56.1602 27.4792V49.63C56.1602 50.3946 55.5606 50.8869 54.8209 50.7297L38.7494 47.3136C38.0098 47.1564 37.4102 46.4091 37.4102 45.6445V23.4938C37.4102 22.7292 38.0098 22.2368 38.7494 22.3941L42.7673 23.2481Z" fill="url(#paint8_linear_364_2145)"/>
</g>
<g opacity="0.7">
<g filter="url(#filter6_f_364_2145)">
<circle cx="40.8232" cy="11.1338" r="1.1338" fill="#BAE7FF"/>
</g>
<circle cx="40.8232" cy="11.1338" r="1.1338" fill="#BAE7FF"/>
</g>
<g filter="url(#filter7_f_364_2145)">
<circle cx="29.9688" cy="38.3443" r="1.1338" fill="#BAE7FF"/>
</g>
<circle cx="29.9688" cy="38.3443" r="1.1338" fill="#BAE7FF"/>
<g filter="url(#filter8_f_364_2145)">
<circle cx="63.2715" cy="27.9699" r="1.1338" fill="#BAE7FF"/>
</g>
<circle cx="63.271" cy="27.9695" r="0.566898" fill="#BAE7FF"/>
<g filter="url(#filter9_f_364_2145)">
<circle cx="63.2715" cy="57.9011" r="1.1338" fill="#BAE7FF"/>
</g>
<circle cx="63.272" cy="57.9015" r="0.566898" fill="#BAE7FF"/>
<g filter="url(#filter10_f_364_2145)">
<circle cx="76.3662" cy="66.3193" r="1.1338" fill="#BAE7FF"/>
</g>
<circle cx="76.9028" cy="65.7524" r="0.566898" fill="#BAE7FF"/>
<g filter="url(#filter11_f_364_2145)">
<circle cx="14.6338" cy="55.0948" r="1.1338" fill="#BAE7FF"/>
</g>
<circle cx="14.6333" cy="55.0951" r="0.566898" fill="#BAE7FF"/>
<defs>
<filter id="filter0_f_364_2145" x="5.94824" y="22.0903" width="84.3184" height="86.1895" filterUnits="userSpaceOnUse" color-interpolation-filters="sRGB">
<feFlood flood-opacity="0" result="BackgroundImageFix"/>
<feBlend mode="normal" in="SourceGraphic" in2="BackgroundImageFix" result="shape"/>
<feGaussianBlur stdDeviation="15" result="effect1_foregroundBlur_364_2145"/>
</filter>
<filter id="filter1_f_364_2145" x="6.88379" y="23.0256" width="82.4482" height="84.3188" filterUnits="userSpaceOnUse" color-interpolation-filters="sRGB">
<feFlood flood-opacity="0" result="BackgroundImageFix"/>
<feBlend mode="normal" in="SourceGraphic" in2="BackgroundImageFix" result="shape"/>
<feGaussianBlur stdDeviation="15" result="effect1_foregroundBlur_364_2145"/>
</filter>
<filter id="filter2_d_364_2145" x="16.9346" y="16.5455" width="62.25" height="73.0614" filterUnits="userSpaceOnUse" color-interpolation-filters="sRGB">
<feFlood flood-opacity="0" result="BackgroundImageFix"/>
<feColorMatrix in="SourceAlpha" type="matrix" values="0 0 0 0 0 0 0 0 0 0 0 0 0 0 0 0 0 0 127 0" result="hardAlpha"/>
<feOffset dy="4"/>
<feGaussianBlur stdDeviation="2"/>
<feComposite in2="hardAlpha" operator="out"/>
<feColorMatrix type="matrix" values="0 0 0 0 0 0 0 0 0 0 0 0 0 0 0 0 0 0 0.25 0"/>
<feBlend mode="normal" in2="BackgroundImageFix" result="effect1_dropShadow_364_2145"/>
<feBlend mode="normal" in="SourceGraphic" in2="effect1_dropShadow_364_2145" result="shape"/>
</filter>
<filter id="filter3_f_364_2145" x="0.596285" y="29.507" width="94.49" height="80.7638" filterUnits="userSpaceOnUse" color-interpolation-filters="sRGB">
<feFlood flood-opacity="0" result="BackgroundImageFix"/>
<feBlend mode="normal" in="SourceGraphic" in2="BackgroundImageFix" result="shape"/>
<feGaussianBlur stdDeviation="15.8303" result="effect1_foregroundBlur_364_2145"/>
</filter>
<filter id="filter4_di_364_2145" x="15.3312" y="44.0875" width="65.4586" height="38.5656" filterUnits="userSpaceOnUse" color-interpolation-filters="sRGB">
<feFlood flood-opacity="0" result="BackgroundImageFix"/>
<feColorMatrix in="SourceAlpha" type="matrix" values="0 0 0 0 0 0 0 0 0 0 0 0 0 0 0 0 0 0 127 0" result="hardAlpha"/>
<feOffset dy="1.97878"/>
<feGaussianBlur stdDeviation="2.96818"/>
<feComposite in2="hardAlpha" operator="out"/>
<feColorMatrix type="matrix" values="0 0 0 0 0.0178646 0 0 0 0 0.12592 0 0 0 0 0.204167 0 0 0 0.1 0"/>
<feBlend mode="normal" in2="BackgroundImageFix" result="effect1_dropShadow_364_2145"/>
<feBlend mode="normal" in="SourceGraphic" in2="effect1_dropShadow_364_2145" result="shape"/>
<feColorMatrix in="SourceAlpha" type="matrix" values="0 0 0 0 0 0 0 0 0 0 0 0 0 0 0 0 0 0 127 0" result="hardAlpha"/>
<feOffset dy="-1.97878"/>
<feGaussianBlur stdDeviation="2.96818"/>
<feComposite in2="hardAlpha" operator="arithmetic" k2="-1" k3="1"/>
<feColorMatrix type="matrix" values="0 0 0 0 0.383333 0 0 0 0 0.68172 0 0 0 0 1 0 0 0 0.2 0"/>
<feBlend mode="normal" in2="shape" result="effect2_innerShadow_364_2145"/>
</filter>
<filter id="filter5_di_364_2145" x="15.3312" y="38.0462" width="65.4586" height="38.5656" filterUnits="userSpaceOnUse" color-interpolation-filters="sRGB">
<feFlood flood-opacity="0" result="BackgroundImageFix"/>
<feColorMatrix in="SourceAlpha" type="matrix" values="0 0 0 0 0 0 0 0 0 0 0 0 0 0 0 0 0 0 127 0" result="hardAlpha"/>
<feOffset dy="1.97878"/>
<feGaussianBlur stdDeviation="2.96818"/>
<feComposite in2="hardAlpha" operator="out"/>
<feColorMatrix type="matrix" values="0 0 0 0 0.0178646 0 0 0 0 0.12592 0 0 0 0 0.204167 0 0 0 0.1 0"/>
<feBlend mode="normal" in2="BackgroundImageFix" result="effect1_dropShadow_364_2145"/>
<feBlend mode="normal" in="SourceGraphic" in2="effect1_dropShadow_364_2145" result="shape"/>
<feColorMatrix in="SourceAlpha" type="matrix" values="0 0 0 0 0 0 0 0 0 0 0 0 0 0 0 0 0 0 127 0" result="hardAlpha"/>
<feOffset dy="-1.97878"/>
<feGaussianBlur stdDeviation="2.96818"/>
<feComposite in2="hardAlpha" operator="arithmetic" k2="-1" k3="1"/>
<feColorMatrix type="matrix" values="0 0 0 0 0.383333 0 0 0 0 0.68172 0 0 0 0 1 0 0 0 0.2 0"/>
<feBlend mode="normal" in2="shape" result="effect2_innerShadow_364_2145"/>
</filter>
<filter id="filter6_f_364_2145" x="30.2663" y="0.576888" width="21.1138" height="21.1138" filterUnits="userSpaceOnUse" color-interpolation-filters="sRGB">
<feFlood flood-opacity="0" result="BackgroundImageFix"/>
<feBlend mode="normal" in="SourceGraphic" in2="BackgroundImageFix" result="shape"/>
<feGaussianBlur stdDeviation="4.71156" result="effect1_foregroundBlur_364_2145"/>
</filter>
<filter id="filter7_f_364_2145" x="19.4118" y="27.7874" width="21.1138" height="21.1138" filterUnits="userSpaceOnUse" color-interpolation-filters="sRGB">
<feFlood flood-opacity="0" result="BackgroundImageFix"/>
<feBlend mode="normal" in="SourceGraphic" in2="BackgroundImageFix" result="shape"/>
<feGaussianBlur stdDeviation="4.71156" result="effect1_foregroundBlur_364_2145"/>
</filter>
<filter id="filter8_f_364_2145" x="55.8556" y="20.554" width="14.8317" height="14.8317" filterUnits="userSpaceOnUse" color-interpolation-filters="sRGB">
<feFlood flood-opacity="0" result="BackgroundImageFix"/>
<feBlend mode="normal" in="SourceGraphic" in2="BackgroundImageFix" result="shape"/>
<feGaussianBlur stdDeviation="3.14104" result="effect1_foregroundBlur_364_2145"/>
</filter>
<filter id="filter9_f_364_2145" x="55.8556" y="50.4853" width="14.8317" height="14.8317" filterUnits="userSpaceOnUse" color-interpolation-filters="sRGB">
<feFlood flood-opacity="0" result="BackgroundImageFix"/>
<feBlend mode="normal" in="SourceGraphic" in2="BackgroundImageFix" result="shape"/>
<feGaussianBlur stdDeviation="3.14104" result="effect1_foregroundBlur_364_2145"/>
</filter>
<filter id="filter10_f_364_2145" x="68.9503" y="58.9034" width="14.8317" height="14.8317" filterUnits="userSpaceOnUse" color-interpolation-filters="sRGB">
<feFlood flood-opacity="0" result="BackgroundImageFix"/>
<feBlend mode="normal" in="SourceGraphic" in2="BackgroundImageFix" result="shape"/>
<feGaussianBlur stdDeviation="3.14104" result="effect1_foregroundBlur_364_2145"/>
</filter>
<filter id="filter11_f_364_2145" x="7.21793" y="47.6789" width="14.8317" height="14.8317" filterUnits="userSpaceOnUse" color-interpolation-filters="sRGB">
<feFlood flood-opacity="0" result="BackgroundImageFix"/>
<feBlend mode="normal" in="SourceGraphic" in2="BackgroundImageFix" result="shape"/>
<feGaussianBlur stdDeviation="3.14104" result="effect1_foregroundBlur_364_2145"/>
</filter>
<radialGradient id="paint0_radial_364_2145" cx="0" cy="0" r="1" gradientUnits="userSpaceOnUse" gradientTransform="translate(48.0518 75.2105) rotate(-90) scale(27.3677 158.903)">
<stop stop-color="#007CFF"/>
<stop offset="0.584565" stop-color="#007CFF" stop-opacity="0.5"/>
<stop offset="1" stop-color="#007CFF" stop-opacity="0.2"/>
</radialGradient>
<linearGradient id="paint1_linear_364_2145" x1="48.0518" y1="75.2105" x2="48.0518" y2="51.2638" gradientUnits="userSpaceOnUse">
<stop stop-color="#00FFFF"/>
<stop offset="0.356732" stop-color="#00FFFF" stop-opacity="0.3"/>
<stop offset="0.496982" stop-color="#00FFFF" stop-opacity="0"/>
</linearGradient>
<radialGradient id="paint2_radial_364_2145" cx="0" cy="0" r="1" gradientUnits="userSpaceOnUse" gradientTransform="translate(48.0518 69.1691) rotate(-90) scale(27.3677 158.903)">
<stop stop-color="#007CFF"/>
<stop offset="0.584565" stop-color="#007CFF" stop-opacity="0.5"/>
<stop offset="1" stop-color="#007CFF" stop-opacity="0.2"/>
</radialGradient>
<linearGradient id="paint3_linear_364_2145" x1="48.0518" y1="69.1691" x2="48.0518" y2="45.2224" gradientUnits="userSpaceOnUse">
<stop stop-color="#00FFFF"/>
<stop offset="0.356732" stop-color="#00FFFF" stop-opacity="0.3"/>
<stop offset="0.496982" stop-color="#00FFFF" stop-opacity="0"/>
</linearGradient>
<linearGradient id="paint4_linear_364_2145" x1="48.0518" y1="62.6199" x2="48.0518" y2="38.6732" gradientUnits="userSpaceOnUse">
<stop stop-color="#00FFFF"/>
<stop offset="0.356732" stop-color="#00FFFF" stop-opacity="0.3"/>
<stop offset="0.899806" stop-color="#00FFFF" stop-opacity="0"/>
</linearGradient>
<linearGradient id="paint5_linear_364_2145" x1="48.0518" y1="82.0794" x2="48.4252" y2="55.5748" gradientUnits="userSpaceOnUse">
<stop stop-color="#4ABEFF"/>
<stop offset="0.230969" stop-color="#8BD5FF" stop-opacity="0.3"/>
<stop offset="0.403068" stop-color="#6AC9FF" stop-opacity="0"/>
</linearGradient>
<linearGradient id="paint6_linear_364_2145" x1="45.0145" y1="67.9893" x2="45.0145" y2="17.0272" gradientUnits="userSpaceOnUse">
<stop stop-color="#00D1FF"/>
<stop offset="0.624905" stop-color="#54E0FF" stop-opacity="0"/>
</linearGradient>
<linearGradient id="paint7_linear_364_2145" x1="36.893" y1="46.4539" x2="64.1948" y2="27.7997" gradientUnits="userSpaceOnUse">
<stop offset="0.261281" stop-color="#1A91FF"/>
<stop offset="1" stop-color="#01FFDF"/>
</linearGradient>
<linearGradient id="paint8_linear_364_2145" x1="34.0527" y1="47.9922" x2="61.3545" y2="29.338" gradientUnits="userSpaceOnUse">
<stop offset="0.261281" stop-color="#1A91FF"/>
<stop offset="1" stop-color="#01FFDF"/>
</linearGradient>
</defs>
</svg>
