<svg width="96" height="111" viewBox="0 0 96 111" fill="none" xmlns="http://www.w3.org/2000/svg">
<g filter="url(#filter0_f_364_2090)">
<ellipse cx="48.1077" cy="65.185" rx="12.1594" ry="13.0948" fill="#53B7FF" fill-opacity="0.3"/>
</g>
<g filter="url(#filter1_f_364_2090)">
<ellipse cx="48.1079" cy="65.185" rx="11.2241" ry="12.1594" fill="#53B7FF" fill-opacity="0.4"/>
</g>
<g filter="url(#filter2_d_364_2090)">
<g filter="url(#filter3_f_364_2090)">
<path d="M32.8489 72.3162C32.1268 71.9999 32.0465 71.0074 32.7084 70.5792L46.7664 61.4849C47.4205 61.0618 48.262 61.0618 48.916 61.4849L62.974 70.5792C63.6359 71.0074 63.5556 71.9999 62.8335 72.3162L49.032 78.3609C48.273 78.6933 47.4095 78.6933 46.6504 78.3609L32.8489 72.3162Z" fill="#0A6BDD"/>
</g>
<g filter="url(#filter4_di_364_2090)">
<path d="M21.8054 61.7758C21.0718 61.3999 21.0926 60.3443 21.8405 59.9976L47.2279 48.2286C47.7558 47.9839 48.3646 47.9839 48.8924 48.2286L74.2799 59.9976C75.0278 60.3443 75.0486 61.3999 74.3149 61.7758L49.8647 74.3026C48.7317 74.8831 47.3886 74.8831 46.2556 74.3026L21.8054 61.7758Z" fill="url(#paint0_radial_364_2090)" shape-rendering="crispEdges"/>
<path d="M22.0334 61.3308C21.6705 61.1449 21.6808 60.6227 22.0507 60.4512L47.4382 48.6822C47.8327 48.4994 48.2877 48.4994 48.6821 48.6822L74.0696 60.4512C74.4396 60.6227 74.4498 61.1449 74.0869 61.3308L49.6368 73.8576C48.6469 74.3647 47.4735 74.3647 46.4836 73.8576L22.0334 61.3308Z" stroke="url(#paint1_linear_364_2090)" shape-rendering="crispEdges"/>
</g>
<g filter="url(#filter5_di_364_2090)">
<path d="M21.8054 55.7344C21.0718 55.3586 21.0926 54.3029 21.8405 53.9562L47.2279 42.1873C47.7558 41.9426 48.3646 41.9426 48.8924 42.1873L74.2799 53.9562C75.0278 54.3029 75.0486 55.3586 74.3149 55.7344L49.8647 68.2612C48.7317 68.8417 47.3886 68.8417 46.2556 68.2612L21.8054 55.7344Z" fill="url(#paint2_radial_364_2090)" fill-opacity="0.2" shape-rendering="crispEdges"/>
<path d="M22.0334 55.2894C21.6705 55.1035 21.6808 54.5814 22.0507 54.4099L47.4382 42.6409C47.8327 42.458 48.2877 42.458 48.6821 42.6409L74.0696 54.4099C74.4396 54.5814 74.4498 55.1035 74.087 55.2894L49.6368 67.8162C48.6469 68.3234 47.4735 68.3234 46.4836 67.8162L22.0334 55.2894Z" stroke="url(#paint3_linear_364_2090)" shape-rendering="crispEdges"/>
</g>
<path opacity="0.5" d="M22.0334 48.7402C21.6705 48.5543 21.6808 48.0322 22.0507 47.8607L47.4382 36.0917C47.8327 35.9088 48.2877 35.9088 48.6821 36.0917L74.0696 47.8607C74.4396 48.0322 74.4498 48.5543 74.0869 48.7402L49.6368 61.267C48.6469 61.7742 47.4735 61.7742 46.4836 61.267L22.0334 48.7402Z" stroke="url(#paint4_linear_364_2090)"/>
<path d="M22.2808 67.7646L47.6485 56.0048C47.9096 55.8837 48.2107 55.8837 48.4718 56.0048L73.8396 67.7646L49.4088 80.2815C48.562 80.7153 47.5583 80.7153 46.7116 80.2815L22.2808 67.7646Z" stroke="url(#paint5_linear_364_2090)" stroke-width="2"/>
<path d="M75.1646 16.5455L75.1846 54.1632C75.1846 54.5326 74.9046 54.902 74.3647 55.1834L49.9694 67.567C48.8696 68.1299 47.1099 68.1299 46.0101 67.567L21.7747 55.1834C21.2348 54.902 20.9549 54.5502 20.9549 54.1808L20.9349 16.5631C20.9349 18.3346 75.1646 18.3915 75.1646 16.5455Z" fill="url(#paint6_linear_364_2090)" fill-opacity="0.3"/>
<path fill-rule="evenodd" clip-rule="evenodd" d="M60.5549 25.0506L55.917 24.0012V21.6236L53.5981 21.0989L50.9967 22.8878L46.6413 21.9023V19.5247L44.3224 19L41.7789 20.802L39.6845 20.3281C39.0441 20.1832 35.9316 22.234 35.9316 22.8905L37.3659 40.8921C37.3659 41.5487 37.885 42.1984 38.5253 42.3433L57.9781 48.5033C58.6185 48.6482 61.7143 46.1788 61.7143 45.5222V26.5017C61.7143 25.8452 61.1953 25.1955 60.5549 25.0506ZM40.844 36.915V26.4263L58.3023 30.4555V43.6401L42.5235 39.9986L45.6581 37.8043L47.6034 40.398H47.9277L51.5351 37.53L53.1145 39.4254L55.8674 37.5385L57.5798 31.5859L51.2719 31.3639L48.7438 33.2267L47.9934 32.1914L40.844 36.915ZM40.844 39.445V39.6109L41.8249 39.8373L40.844 39.445Z" fill="url(#paint7_linear_364_2090)" fill-opacity="0.3"/>
<path fill-rule="evenodd" clip-rule="evenodd" d="M53.1078 25.9614L57.7457 27.0108C58.386 27.1557 58.9051 27.8054 58.9051 28.462V47.4824C58.9051 48.139 58.386 48.5538 57.7457 48.4088L36.8753 43.6864C36.2349 43.5415 35.7158 42.8918 35.7158 42.2352V23.2148C35.7158 22.5582 36.2349 22.1435 36.8753 22.2884L41.5131 23.3378V20.9602L43.8321 21.485V23.8625L50.7889 25.4367V23.0591L53.1078 23.5838V25.9614ZM38.0348 28.3865V41.5712L56.5862 45.7689V32.5843L38.0348 28.3865ZM51.7906 37.796L48.6589 40.2831L47.5617 41.1544L46.5334 39.7355L44.9635 37.5695L41.312 39.9879L39.3956 37.2872L44.1389 34.1457L45.2307 33.4226L46.1905 34.747L47.6919 36.8184L49.8107 35.1357L48.4625 33.3241L54.7704 33.5462L53.058 39.4988L51.7906 37.796Z" fill="url(#paint8_linear_364_2090)"/>
</g>
<g opacity="0.7">
<g filter="url(#filter6_f_364_2090)">
<circle cx="40.8232" cy="11.1338" r="1.1338" fill="#BAE7FF"/>
</g>
<circle cx="40.8232" cy="11.1338" r="1.1338" fill="#BAE7FF"/>
</g>
<g filter="url(#filter7_f_364_2090)">
<circle cx="29.9688" cy="38.3443" r="1.1338" fill="#BAE7FF"/>
</g>
<circle cx="29.9688" cy="38.3443" r="1.1338" fill="#BAE7FF"/>
<g filter="url(#filter8_f_364_2090)">
<circle cx="63.2715" cy="27.9699" r="1.1338" fill="#BAE7FF"/>
</g>
<circle cx="63.271" cy="27.9695" r="0.566898" fill="#BAE7FF"/>
<g filter="url(#filter9_f_364_2090)">
<circle cx="63.2715" cy="57.9011" r="1.1338" fill="#BAE7FF"/>
</g>
<circle cx="63.272" cy="57.9015" r="0.566898" fill="#BAE7FF"/>
<g filter="url(#filter10_f_364_2090)">
<circle cx="76.3662" cy="66.3193" r="1.1338" fill="#BAE7FF"/>
</g>
<circle cx="76.9028" cy="65.7524" r="0.566898" fill="#BAE7FF"/>
<g filter="url(#filter11_f_364_2090)">
<circle cx="14.6338" cy="55.0948" r="1.1338" fill="#BAE7FF"/>
</g>
<circle cx="14.6333" cy="55.0951" r="0.566898" fill="#BAE7FF"/>
<defs>
<filter id="filter0_f_364_2090" x="5.94824" y="22.0903" width="84.3184" height="86.1895" filterUnits="userSpaceOnUse" color-interpolation-filters="sRGB">
<feFlood flood-opacity="0" result="BackgroundImageFix"/>
<feBlend mode="normal" in="SourceGraphic" in2="BackgroundImageFix" result="shape"/>
<feGaussianBlur stdDeviation="15" result="effect1_foregroundBlur_364_2090"/>
</filter>
<filter id="filter1_f_364_2090" x="6.88379" y="23.0256" width="82.4482" height="84.3188" filterUnits="userSpaceOnUse" color-interpolation-filters="sRGB">
<feFlood flood-opacity="0" result="BackgroundImageFix"/>
<feBlend mode="normal" in="SourceGraphic" in2="BackgroundImageFix" result="shape"/>
<feGaussianBlur stdDeviation="15" result="effect1_foregroundBlur_364_2090"/>
</filter>
<filter id="filter2_d_364_2090" x="16.9346" y="16.5455" width="62.25" height="73.0614" filterUnits="userSpaceOnUse" color-interpolation-filters="sRGB">
<feFlood flood-opacity="0" result="BackgroundImageFix"/>
<feColorMatrix in="SourceAlpha" type="matrix" values="0 0 0 0 0 0 0 0 0 0 0 0 0 0 0 0 0 0 127 0" result="hardAlpha"/>
<feOffset dy="4"/>
<feGaussianBlur stdDeviation="2"/>
<feComposite in2="hardAlpha" operator="out"/>
<feColorMatrix type="matrix" values="0 0 0 0 0 0 0 0 0 0 0 0 0 0 0 0 0 0 0.25 0"/>
<feBlend mode="normal" in2="BackgroundImageFix" result="effect1_dropShadow_364_2090"/>
<feBlend mode="normal" in="SourceGraphic" in2="effect1_dropShadow_364_2090" result="shape"/>
</filter>
<filter id="filter3_f_364_2090" x="0.596285" y="29.507" width="94.49" height="80.7638" filterUnits="userSpaceOnUse" color-interpolation-filters="sRGB">
<feFlood flood-opacity="0" result="BackgroundImageFix"/>
<feBlend mode="normal" in="SourceGraphic" in2="BackgroundImageFix" result="shape"/>
<feGaussianBlur stdDeviation="15.8303" result="effect1_foregroundBlur_364_2090"/>
</filter>
<filter id="filter4_di_364_2090" x="15.3312" y="44.0875" width="65.4586" height="38.5656" filterUnits="userSpaceOnUse" color-interpolation-filters="sRGB">
<feFlood flood-opacity="0" result="BackgroundImageFix"/>
<feColorMatrix in="SourceAlpha" type="matrix" values="0 0 0 0 0 0 0 0 0 0 0 0 0 0 0 0 0 0 127 0" result="hardAlpha"/>
<feOffset dy="1.97878"/>
<feGaussianBlur stdDeviation="2.96818"/>
<feComposite in2="hardAlpha" operator="out"/>
<feColorMatrix type="matrix" values="0 0 0 0 0.0178646 0 0 0 0 0.12592 0 0 0 0 0.204167 0 0 0 0.1 0"/>
<feBlend mode="normal" in2="BackgroundImageFix" result="effect1_dropShadow_364_2090"/>
<feBlend mode="normal" in="SourceGraphic" in2="effect1_dropShadow_364_2090" result="shape"/>
<feColorMatrix in="SourceAlpha" type="matrix" values="0 0 0 0 0 0 0 0 0 0 0 0 0 0 0 0 0 0 127 0" result="hardAlpha"/>
<feOffset dy="-1.97878"/>
<feGaussianBlur stdDeviation="2.96818"/>
<feComposite in2="hardAlpha" operator="arithmetic" k2="-1" k3="1"/>
<feColorMatrix type="matrix" values="0 0 0 0 0.383333 0 0 0 0 0.68172 0 0 0 0 1 0 0 0 0.2 0"/>
<feBlend mode="normal" in2="shape" result="effect2_innerShadow_364_2090"/>
</filter>
<filter id="filter5_di_364_2090" x="15.3312" y="38.0462" width="65.4586" height="38.5656" filterUnits="userSpaceOnUse" color-interpolation-filters="sRGB">
<feFlood flood-opacity="0" result="BackgroundImageFix"/>
<feColorMatrix in="SourceAlpha" type="matrix" values="0 0 0 0 0 0 0 0 0 0 0 0 0 0 0 0 0 0 127 0" result="hardAlpha"/>
<feOffset dy="1.97878"/>
<feGaussianBlur stdDeviation="2.96818"/>
<feComposite in2="hardAlpha" operator="out"/>
<feColorMatrix type="matrix" values="0 0 0 0 0.0178646 0 0 0 0 0.12592 0 0 0 0 0.204167 0 0 0 0.1 0"/>
<feBlend mode="normal" in2="BackgroundImageFix" result="effect1_dropShadow_364_2090"/>
<feBlend mode="normal" in="SourceGraphic" in2="effect1_dropShadow_364_2090" result="shape"/>
<feColorMatrix in="SourceAlpha" type="matrix" values="0 0 0 0 0 0 0 0 0 0 0 0 0 0 0 0 0 0 127 0" result="hardAlpha"/>
<feOffset dy="-1.97878"/>
<feGaussianBlur stdDeviation="2.96818"/>
<feComposite in2="hardAlpha" operator="arithmetic" k2="-1" k3="1"/>
<feColorMatrix type="matrix" values="0 0 0 0 0.383333 0 0 0 0 0.68172 0 0 0 0 1 0 0 0 0.2 0"/>
<feBlend mode="normal" in2="shape" result="effect2_innerShadow_364_2090"/>
</filter>
<filter id="filter6_f_364_2090" x="30.2663" y="0.576888" width="21.1138" height="21.1138" filterUnits="userSpaceOnUse" color-interpolation-filters="sRGB">
<feFlood flood-opacity="0" result="BackgroundImageFix"/>
<feBlend mode="normal" in="SourceGraphic" in2="BackgroundImageFix" result="shape"/>
<feGaussianBlur stdDeviation="4.71156" result="effect1_foregroundBlur_364_2090"/>
</filter>
<filter id="filter7_f_364_2090" x="19.4118" y="27.7874" width="21.1138" height="21.1138" filterUnits="userSpaceOnUse" color-interpolation-filters="sRGB">
<feFlood flood-opacity="0" result="BackgroundImageFix"/>
<feBlend mode="normal" in="SourceGraphic" in2="BackgroundImageFix" result="shape"/>
<feGaussianBlur stdDeviation="4.71156" result="effect1_foregroundBlur_364_2090"/>
</filter>
<filter id="filter8_f_364_2090" x="55.8556" y="20.554" width="14.8317" height="14.8317" filterUnits="userSpaceOnUse" color-interpolation-filters="sRGB">
<feFlood flood-opacity="0" result="BackgroundImageFix"/>
<feBlend mode="normal" in="SourceGraphic" in2="BackgroundImageFix" result="shape"/>
<feGaussianBlur stdDeviation="3.14104" result="effect1_foregroundBlur_364_2090"/>
</filter>
<filter id="filter9_f_364_2090" x="55.8556" y="50.4853" width="14.8317" height="14.8317" filterUnits="userSpaceOnUse" color-interpolation-filters="sRGB">
<feFlood flood-opacity="0" result="BackgroundImageFix"/>
<feBlend mode="normal" in="SourceGraphic" in2="BackgroundImageFix" result="shape"/>
<feGaussianBlur stdDeviation="3.14104" result="effect1_foregroundBlur_364_2090"/>
</filter>
<filter id="filter10_f_364_2090" x="68.9503" y="58.9034" width="14.8317" height="14.8317" filterUnits="userSpaceOnUse" color-interpolation-filters="sRGB">
<feFlood flood-opacity="0" result="BackgroundImageFix"/>
<feBlend mode="normal" in="SourceGraphic" in2="BackgroundImageFix" result="shape"/>
<feGaussianBlur stdDeviation="3.14104" result="effect1_foregroundBlur_364_2090"/>
</filter>
<filter id="filter11_f_364_2090" x="7.21793" y="47.6789" width="14.8317" height="14.8317" filterUnits="userSpaceOnUse" color-interpolation-filters="sRGB">
<feFlood flood-opacity="0" result="BackgroundImageFix"/>
<feBlend mode="normal" in="SourceGraphic" in2="BackgroundImageFix" result="shape"/>
<feGaussianBlur stdDeviation="3.14104" result="effect1_foregroundBlur_364_2090"/>
</filter>
<radialGradient id="paint0_radial_364_2090" cx="0" cy="0" r="1" gradientUnits="userSpaceOnUse" gradientTransform="translate(48.0518 75.2105) rotate(-90) scale(27.3677 158.903)">
<stop stop-color="#007CFF"/>
<stop offset="0.584565" stop-color="#007CFF" stop-opacity="0.5"/>
<stop offset="1" stop-color="#007CFF" stop-opacity="0.2"/>
</radialGradient>
<linearGradient id="paint1_linear_364_2090" x1="48.0518" y1="75.2105" x2="48.0518" y2="51.2638" gradientUnits="userSpaceOnUse">
<stop stop-color="#00FFFF"/>
<stop offset="0.356732" stop-color="#00FFFF" stop-opacity="0.3"/>
<stop offset="0.496982" stop-color="#00FFFF" stop-opacity="0"/>
</linearGradient>
<radialGradient id="paint2_radial_364_2090" cx="0" cy="0" r="1" gradientUnits="userSpaceOnUse" gradientTransform="translate(48.0518 69.1691) rotate(-90) scale(27.3677 158.903)">
<stop stop-color="#007CFF"/>
<stop offset="0.584565" stop-color="#007CFF" stop-opacity="0.5"/>
<stop offset="1" stop-color="#007CFF" stop-opacity="0.2"/>
</radialGradient>
<linearGradient id="paint3_linear_364_2090" x1="48.0518" y1="69.1691" x2="48.0518" y2="45.2224" gradientUnits="userSpaceOnUse">
<stop stop-color="#00FFFF"/>
<stop offset="0.356732" stop-color="#00FFFF" stop-opacity="0.3"/>
<stop offset="0.496982" stop-color="#00FFFF" stop-opacity="0"/>
</linearGradient>
<linearGradient id="paint4_linear_364_2090" x1="48.0518" y1="62.6199" x2="48.0518" y2="38.6732" gradientUnits="userSpaceOnUse">
<stop stop-color="#00FFFF"/>
<stop offset="0.356732" stop-color="#00FFFF" stop-opacity="0.3"/>
<stop offset="0.899806" stop-color="#00FFFF" stop-opacity="0"/>
</linearGradient>
<linearGradient id="paint5_linear_364_2090" x1="48.0518" y1="82.0794" x2="48.4252" y2="55.5748" gradientUnits="userSpaceOnUse">
<stop stop-color="#4ABEFF"/>
<stop offset="0.230969" stop-color="#8BD5FF" stop-opacity="0.3"/>
<stop offset="0.403068" stop-color="#6AC9FF" stop-opacity="0"/>
</linearGradient>
<linearGradient id="paint6_linear_364_2090" x1="45.0145" y1="67.9893" x2="45.0145" y2="17.0272" gradientUnits="userSpaceOnUse">
<stop stop-color="#00D1FF"/>
<stop offset="0.624905" stop-color="#54E0FF" stop-opacity="0"/>
</linearGradient>
<linearGradient id="paint7_linear_364_2090" x1="31.3149" y1="50.2966" x2="62.5336" y2="18.0995" gradientUnits="userSpaceOnUse">
<stop offset="0.261281" stop-color="#1A91FF"/>
<stop offset="1" stop-color="#01FFDF"/>
</linearGradient>
<linearGradient id="paint8_linear_364_2090" x1="31.5634" y1="50.1018" x2="60.6461" y2="21.1296" gradientUnits="userSpaceOnUse">
<stop offset="0.261281" stop-color="#1A91FF"/>
<stop offset="1" stop-color="#01FFDF"/>
</linearGradient>
</defs>
</svg>
