<svg width="25" height="31" viewBox="0 0 25 31" fill="none" xmlns="http://www.w3.org/2000/svg">
<path d="M11.0002 17.6667V28.3334H0.333496C0.333496 22.4423 5.10912 17.6667 11.0002 17.6667ZM11.0002 16.3334C6.58016 16.3334 3.00016 12.7534 3.00016 8.33337C3.00016 3.91337 6.58016 0.333374 11.0002 0.333374C15.4202 0.333374 19.0002 3.91337 19.0002 8.33337C19.0002 12.7534 15.4202 16.3334 11.0002 16.3334ZM22.7714 26.7712L19.0002 30.5426L15.229 26.7712C13.1462 24.6884 13.1462 21.3116 15.229 19.2288C17.3118 17.146 20.6886 17.146 22.7714 19.2288C24.8542 21.3116 24.8542 24.6884 22.7714 26.7712ZM19.0002 21.6667C18.2638 21.6667 17.6668 22.2636 17.6668 23C17.6668 23.7364 18.2638 24.3334 19.0002 24.3334C19.7366 24.3334 20.3335 23.7364 20.3335 23C20.3335 22.2636 19.7366 21.6667 19.0002 21.6667Z" fill="url(#paint0_linear_321_1163)"/>
<defs>
<linearGradient id="paint0_linear_321_1163" x1="6.51531" y1="4.12587" x2="13.4232" y2="30.6288" gradientUnits="userSpaceOnUse">
<stop stop-color="#A9D6FF" stop-opacity="0.7"/>
<stop offset="1" stop-color="#B6D7FF" stop-opacity="0.4"/>
</linearGradient>
</defs>
</svg>
